SplineFontDB: 3.2
FontName: Farid
FullName: Farid
FamilyName: Farid
Weight: Regular
Copyright: Copyright (c) 2024, TDC
UComments: "2024-7-12: Created with FontForge (http://fontforge.org)"
Version: 001.000
ItalicAngle: 0
UnderlinePosition: -204
UnderlineWidth: 102
Ascent: 1638
Descent: 410
InvalidEm: 0
LayerCount: 2
Layer: 0 0 "Back" 1
Layer: 1 0 "Fore" 0
XUID: [1021 343 21420783 216052]
StyleMap: 0x0000
FSType: 0
OS2Version: 0
OS2_WeightWidthSlopeOnly: 0
OS2_UseTypoMetrics: 1
PfmFamily: 17
TTFWeight: 400
TTFWidth: 5
LineGap: 300
VLineGap: 0
OS2TypoAscent: 3000
OS2TypoAOffset: 0
OS2TypoDescent: -2000
OS2TypoDOffset: 0
OS2TypoLinegap: 300
OS2WinAscent: 3000
OS2WinAOffset: 0
OS2WinDescent: 2000
OS2WinDOffset: 0
HheadAscent: 3000
HheadAOffset: 0
HheadDescent: -2000
HheadDOffset: 0
OS2CapHeight: 1532
OS2XHeight: 858
OS2Vendor: 'PfEd'
Lookup: 1 1 0 "Initial Forms Preceding Jeem" { "Initial Forms Preceding Jeem-1"  } []
Lookup: 1 1 0 "Initial Forms Preceding Meem" { "Initial Forms Preceding Meem-1"  } []
Lookup: 1 1 0 "Initial Forms Preceding Heh" { "Initial Forms Preceding Heh-1"  } []
Lookup: 1 1 0 "Initial Forms Preceding Reh" { "Initial Forms Preceding Reh-1"  } []
Lookup: 1 1 0 "Initial Forms Preceding Yeh" { "Initial Forms Preceding Yeh-1"  } []
Lookup: 1 9 0 "Initial Forms Preceding Keh" { "Initial Forms Preceding Keh-1"  } []
Lookup: 1 1 0 "Initial Forms preceding Alef" { "Initial Forms preceding Alef-1"  } []
Lookup: 1 1 0 "Medial Forms Preceding Jeem" { "Medial Forms Preceding Jeem-1"  } []
Lookup: 1 1 0 "Medial Forms Preceding Meem" { "Medial Forms Preceding Meem-1"  } []
Lookup: 1 1 0 "Medial Forms Preceding Heh" { "Medial Forms Preceding Heh-1"  } []
Lookup: 1 1 0 "Medial Forms Preceding Reh" { "Medial Forms Preceding Reh-1"  } []
Lookup: 1 1 0 "Medial Forms Preceding Yeh" { "Medial Forms Preceding Yeh-1"  } []
Lookup: 1 1 0 "Medial Forms Preceding Keh" { "Medial Forms Preceding Keh-1"  } []

StartChar: exclam
Encoding: 33 33 33
Width: 276
Flags: W
LayerCount: 2
Fore
SplineSet
82 1471 m 0
 163 1485 165 1334 176 1187 c 0
 180 1132 202 957 212 859 c 0
 225 730 229 607 171 598 c 0
 109 588 84 701 69 830 c 0
 59 919 39 1097 33 1151 c 0
 18 1292 -2 1456 82 1471 c 0
107 60 m 4
 -1 159 171 275 233 217 c 4
 319 137 177 -4 107 60 c 4
EndSplineSet
EndChar
StartChar: quotedbl
Encoding: 34 34 34
Width: 503
Flags: W
LayerCount: 2
Fore
SplineSet
87 1556 m 0
 159 1566 183 1464 200 1355 c 0
 214 1267 244 1127 157 1109 c 0
 85 1094 60 1205 49 1278 c 0
 31 1394 -4 1543 87 1556 c 0
411 1558 m 0
 483 1551 482 1446 473 1336 c 0
 466 1247 463 1104 374 1107 c 0
 301 1109 302 1224 308 1297 c 0
 317 1414 320 1567 411 1558 c 0
EndSplineSet
EndChar
StartChar: numbersign
Encoding: 35 35 35
Width: 1351
Flags: W
LayerCount: 2
Fore
SplineSet
727 1315 m 0
 800 1276 669 1035 611 851 c 0
 574 735 534 585 492 451 c 0
 429 250 435 87 320 101 c 0
 232 112 278 276 324 474 c 0
 354 604 401 773 450 904 c 0
 500 1037 619 1374 727 1315 c 0
991 1175 m 0
 1090 1142 1014 1001 956 817 c 0
 919 701 897 585 855 451 c 0
 792 250 798 87 683 101 c 0
 595 112 648 294 687 474 c 0
 715 604 748 729 777 817 c 0
 837 1000 908 1203 991 1175 c 0
1319 737 m 0
 1292 649 1119 724 938 759 c 0
 818 782 635 801 493 800 c 0
 282 799 110 726 102 842 c 0
 96 930 304 957 508 956 c 0
 678 955 818 940 913 922 c 0
 1110 885 1346 827 1319 737 c 0
1261 471 m 0
 1231 399 1105 442 940 451 c 0
 818 457 559 480 417 471 c 0
 207 457 35 400 27 516 c 0
 21 604 230 629 434 632 c 0
 566 634 770 630 855 625 c 0
 1078 613 1300 563 1261 471 c 0
EndSplineSet
EndChar
StartChar: dollar
Encoding: 36 36 36
Width: 978
Flags: W
LayerCount: 2
Fore
SplineSet
740 1197 m 0
 720 1134 596 1199 536 1170 c 0
 435 1122 260 987 265 936 c 0
 269 888 493 925 623 933 c 0
 709 938 868 920 919 839 c 0
 982 740 934 591 879 460 c 0
 803 280 650 126 491 84 c 0
 358 49 181 92 80 185 c 0
 6 253 -26 377 48 415 c 0
 105 444 152 324 252 259 c 0
 304 225 375 212 444 228 c 0
 534 249 619 326 671 397 c 0
 733 482 821 692 787 739 c 0
 750 789 471 743 315 742 c 0
 203 741 125 771 105 851 c 0
 88 922 106 1034 192 1118 c 0
 297 1220 450 1333 590 1342 c 4
 677 1347 767 1281 740 1197 c 0
438 1628 m 4
 525 1638 535 1276 554 1071 c 4
 580 793 608 516 617 219 c 4
 624 -8 646 -377 541 -374 c 4
 444 -371 471 14 469 213 c 4
 466 473 444 783 420 1053 c 4
 403 1244 325 1615 438 1628 c 4
EndSplineSet
EndChar
StartChar: percent
Encoding: 37 37 37
Width: 1096
Flags: W
LayerCount: 2
Fore
SplineSet
425 1368 m 0
 535 1376 521 1151 466 996 c 0
 396 796 244 707 127 755 c 0
 -1 808 26 1020 70 1151 c 0
 111 1274 175 1387 300 1423 c 0
 386 1448 439 1357 607 1391 c 0
 742 1418 801 1564 885 1508 c 0
 969 1452 895 1358 837 1309 c 0
 814 1289 709 1058 607 836 c 0
 569 752 507 584 466 458 c 0
 400 254 401 82 300 93 c 0
 206 103 236 268 300 468 c 0
 343 603 406 762 439 836 c 0
 494 961 560 1116 624 1241 c 1
 554 1221 509 1227 466 1232 c 0
 363 1244 366 1280 322 1265 c 0
 268 1247 234 1181 209 1108 c 0
 183 1031 168 913 209 905 c 0
 260 895 320 1020 343 1108 c 0
 370 1209 343 1362 425 1368 c 0
612 551 m 0
 681 707 839 806 960 767 c 0
 1059 735 1101 563 1015 390 c 0
 941 241 821 144 672 203 c 0
 577 240 550 409 612 551 c 0
887 605 m 0
 851 624 804 566 767 505 c 0
 732 447 728 371 755 356 c 0
 788 338 845 372 887 458 c 0
 921 528 916 590 887 605 c 0
EndSplineSet
EndChar
StartChar: ampersand
Encoding: 38 38 38
Width: 1095
Flags: W
LayerCount: 2
Fore
SplineSet
1065 193 m 4
 1024 110 860 190 704 303 c 4
 583 391 473 487 404 576 c 4
 319 685 240 903 218 1060 c 4
 211 1110 183 1285 302 1393 c 4
 366 1451 472 1433 539 1407 c 4
 606 1382 664 1334 680 1256 c 4
 701 1152 647 1075 584 995 c 4
 550 952 425 819 316 664 c 4
 278 609 207 482 197 387 c 4
 192 338 209 249 304 257 c 4
 422 266 519 341 631 446 c 4
 796 600 906 777 962 743 c 4
 1040 696 903 506 742 340 c 4
 635 229 487 126 367 106 c 4
 212 81 136 133 94 184 c 4
 17 278 39 380 49 435 c 4
 69 540 131 684 171 739 c 4
 239 832 300 891 347 940 c 4
 434 1032 526 1163 533 1210 c 4
 539 1253 431 1294 399 1263 c 4
 353 1218 341 1141 386 992 c 4
 437 823 467 754 591 598 c 4
 659 513 737 458 841 394 c 4
 955 324 1094 251 1065 193 c 4
EndSplineSet
EndChar
StartChar: quotesingle
Encoding: 39 39 39
Width: 309
Flags: W
LayerCount: 2
Fore
SplineSet
212 1453 m 4
 303 1439 277 1278 247 1180 c 4
 218 1085 113 923 50 954 c 4
 -30 993 79 1141 109 1243 c 4
 131 1317 139 1464 212 1453 c 4
EndSplineSet
EndChar
StartChar: parenleft
Encoding: 40 40 40
Width: 442
Flags: W
LayerCount: 2
Fore
SplineSet
395 1585 m 0
 473 1511 296 1359 241 1192 c 0
 206 1087 177 941 177 801 c 0
 177 667 206 538 246 458 c 0
 323 305 462 93 386 39 c 0
 322 -7 193 207 123 344 c 0
 65 457 21 614 17 802 c 0
 12 1060 101 1264 167 1395 c 0
 213 1487 321 1655 395 1585 c 0
EndSplineSet
EndChar
StartChar: parenright
Encoding: 41 41 41
Width: 454
Flags: W
LayerCount: 2
Fore
SplineSet
50 1585 m 0
 -28 1511 149 1359 204 1192 c 0
 239 1087 268 941 268 801 c 0
 268 667 239 538 199 458 c 0
 122 305 -17 93 59 39 c 0
 123 -7 252 207 322 344 c 0
 380 457 424 614 428 802 c 0
 433 1060 344 1264 278 1395 c 0
 232 1487 124 1655 50 1585 c 0
EndSplineSet
EndChar
StartChar: asterisk
Encoding: 42 42 42
Width: 839
Flags: W
LayerCount: 2
Fore
SplineSet
587 897 m 0
 688 845 496 650 435 522 c 0
 379 404 360 104 241 134 c 0
 139 160 235 424 296 553 c 0
 356 679 501 941 587 897 c 0
245 912 m 0
 331 956 427 692 487 566 c 0
 548 437 712 260 622 195 c 0
 530 129 398 397 342 515 c 0
 281 643 144 860 245 912 c 0
11 499 m 0
 -4 594 278 603 416 619 c 0
 557 636 778 734 811 628 c 0
 844 520 547 481 418 465 c 0
 277 448 29 386 11 499 c 0
EndSplineSet
EndChar
StartChar: plus
Encoding: 43 43 43
Width: 836
Flags: W
LayerCount: 2
Fore
SplineSet
32 502 m 0
 32 592 250 589 368 593 c 0
 518 598 804 610 802 516 c 0
 800 421 527 448 389 445 c 0
 259 442 32 402 32 502 c 0
427 891 m 0
 508 888 502 626 510 490 c 0
 518 361 516 108 434 96 c 0
 328 81 364 339 354 466 c 0
 343 609 331 895 427 891 c 0
EndSplineSet
EndChar
StartChar: comma
Encoding: 44 44 44
Width: 272
Flags: W
LayerCount: 2
Fore
SplineSet
158 78 m 4
 220 63 238 -18 231 -72 c 4
 225 -122 200 -191 169 -245 c 4
 136 -303 90 -354 60 -336 c 4
 29 -318 43 -274 60 -230 c 4
 80 -176 85 -154 91 -128 c 5
 40 -104 20 -57 32 -3 c 4
 44 51 96 93 158 78 c 4
EndSplineSet
EndChar
StartChar: hyphen
Encoding: 45 45 45
Width: 707
Flags: W
LayerCount: 2
Fore
SplineSet
17 450 m 0
 11 550 229 567 348 574 c 0
 504 583 693 586 689 479 c 0
 685 380 491 399 371 391 c 0
 242 382 23 334 17 450 c 0
EndSplineSet
EndChar
StartChar: period
Encoding: 46 46 46
Width: 177
Flags: W
LayerCount: 2
Fore
SplineSet
48 182 m 4
 17 192 7 244 19 290 c 4
 31 337 66 378 123 366 c 4
 162 358 176 297 162 246 c 4
 149 199 112 160 48 182 c 4
EndSplineSet
EndChar
StartChar: slash
Encoding: 47 47 47
Width: 599
Flags: W
LayerCount: 2
Fore
SplineSet
54 42 m 4
 -34 71 56 282 131 494 c 4
 195 676 295 950 339 1081 c 4
 403 1272 482 1431 552 1392 c 4
 608 1361 554 1216 484 1021 c 4
 438 894 338 610 279 439 c 4
 216 255 145 12 54 42 c 4
EndSplineSet
EndChar
StartChar: zero
Encoding: 48 48 48
Width: 938
Flags: W
LayerCount: 2
Fore
SplineSet
525 1378 m 0
 660 1372 784 1304 837 1175 c 0
 920 975 916 753 864 487 c 0
 808 197 625 12 379 32 c 0
 171 49 36 277 31 488 c 0
 26 701 47 893 137 1088 c 0
 233 1299 393 1383 525 1378 c 0
508 1195 m 0
 441 1196 380 1153 334 1090 c 0
 278 1014 234 900 213 781 c 0
 188 638 194 512 219 417 c 0
 248 306 316 221 401 216 c 4
 499 210 584 276 634 362 c 0
 691 461 716 601 728 730 c 0
 738 836 729 966 688 1060 c 0
 657 1131 600 1193 508 1195 c 0
EndSplineSet
EndChar
StartChar: one
Encoding: 49 49 49
Width: 320
Flags: W
LayerCount: 2
Fore
SplineSet
256 1335 m 0
 364 1315 252 1024 224 798 c 0
 210 689 205 481 203 355 c 0
 200 177 218 20 127 20 c 0
 48 20 31 175 31 349 c 4
 31 492 38 693 57 818 c 0
 96 1072 127 1359 256 1335 c 0
EndSplineSet
EndChar
StartChar: two
Encoding: 50 50 50
Width: 954
Flags: W
LayerCount: 2
Fore
SplineSet
30 1125 m 0
 24 1215 95 1296 208 1353 c 0
 286 1392 446 1413 525 1398 c 0
 630 1378 726 1340 727 1177 c 0
 728 1005 583 821 476 680 c 4
 382 556 255 388 255 309 c 0
 255 287 290 205 322 202 c 0
 400 196 502 229 562 253 c 0
 676 299 855 416 895 309 c 0
 937 197 716 134 604 86 c 0
 496 39 332 2 222 44 c 0
 126 80 82 189 76 292 c 4
 68 435 204 608 306 744 c 0
 409 880 596 1133 542 1197 c 0
 506 1240 309 1220 253 1167 c 0
 223 1138 201 1074 152 1054 c 0
 110 1038 35 1052 30 1125 c 0
EndSplineSet
EndChar
StartChar: three
Encoding: 51 51 51
Width: 819
Flags: W
LayerCount: 2
Fore
SplineSet
107 910 m 0
 45 887 14 948 11 983 c 0
 6 1064 63 1142 128 1194 c 0
 232 1276 392 1336 525 1336 c 0
 609 1336 687 1279 708 1224 c 0
 747 1121 730 1027 653 930 c 0
 611 877 514 791 439 723 c 1
 549 722 618 701 662 672 c 0
 737 623 782 579 796 489 c 0
 813 375 752 261 669 182 c 0
 544 64 363 -21 213 35 c 0
 80 84 7 237 94 276 c 0
 162 306 216 194 302 197 c 0
 371 200 401 205 479 257 c 0
 565 314 645 399 615 485 c 0
 593 547 488 555 411 556 c 0
 332 557 245 549 225 626 c 0
 195 739 290 805 373 882 c 0
 457 960 586 1091 552 1146 c 0
 511 1213 374 1157 281 1105 c 0
 174 1045 152 927 107 910 c 0
EndSplineSet
EndChar
StartChar: four
Encoding: 52 52 52
Width: 789
Flags: W
LayerCount: 2
Fore
SplineSet
367 1330 m 0
 433 1295 305 1080 251 936 c 0
 215 840 162 628 206 546 c 0
 227 507 348 519 452 568 c 0
 553 616 685 747 735 702 c 0
 779 662 753 589 717 541 c 0
 657 463 546 418 438 376 c 0
 354 344 266 344 183 357 c 0
 111 368 63 419 41 488 c 0
 -1 614 43 849 89 974 c 0
 151 1142 262 1386 367 1330 c 0
543 923 m 0
 624 899 549 679 528 519 c 0
 512 398 496 292 479 188 c 0
 448 0 446 -126 355 -118 c 0
 280 -112 289 -7 316 193 c 0
 330 300 343 385 364 515 c 0
 394 701 444 952 543 923 c 0
EndSplineSet
EndChar
StartChar: five
Encoding: 53 53 53
Width: 859
Flags: W
LayerCount: 2
Fore
SplineSet
237 1118 m 0
 333 1097 236 917 217 820 c 4
 199 728 196 689 195 582 c 5
 319 589 520 603 630 572 c 0
 732 543 733 453 716 341 c 0
 696 211 600 68 474 -23 c 0
 364 -104 131 -200 109 -73 c 0
 91 32 329 65 413 156 c 0
 497 247 561 370 540 400 c 0
 514 438 237 385 109 419 c 0
 48 435 25 508 24 575 c 0
 23 647 30 741 46 811 c 0
 76 938 121 1143 237 1118 c 0
104 1010 m 0
 25 1127 291 1251 443 1294 c 0
 598 1338 840 1410 835 1275 c 0
 831 1175 626 1169 484 1117 c 0
 354 1070 170 912 104 1010 c 0
EndSplineSet
EndChar
StartChar: six
Encoding: 54 54 54
Width: 834
Flags: W
LayerCount: 2
Fore
SplineSet
383 1172 m 0
 464 1138 300 782 248 588 c 0
 209 443 190 383 203 280 c 0
 215 184 258 96 344 75 c 0
 428 54 523 91 572 171 c 0
 624 257 648 316 621 394 c 0
 601 453 503 468 436 399 c 0
 327 286 248 109 170 190 c 0
 102 260 251 525 436 599 c 0
 523 634 594 629 662 603 c 0
 754 568 801 467 805 370 c 0
 810 250 775 167 697 49 c 0
 629 -52 495 -116 351 -108 c 0
 207 -100 100 -9 64 104 c 0
 16 255 10 417 82 641 c 0
 157 876 273 1218 383 1172 c 0
EndSplineSet
EndChar
StartChar: seven
Encoding: 55 55 55
Width: 1049
Flags: W
LayerCount: 2
Fore
SplineSet
83 691 m 0
 27 705 37 862 50 948 c 0
 67 1061 81 1146 176 1209 c 0
 268 1270 355 1224 469 1218 c 4
 550 1214 647 1246 722 1266 c 0
 818 1292 946 1387 1004 1292 c 0
 1066 1191 948 1130 884 1039 c 0
 833 966 754 759 705 582 c 0
 671 461 637 259 629 102 c 0
 623 -12 612 -133 525 -132 c 0
 437 -131 457 44 461 108 c 0
 473 284 487 479 544 664 c 0
 593 824 623 915 714 1087 c 1
 648 1062 559 1037 466 1039 c 0
 353 1042 302 1060 270 1039 c 0
 235 1017 225 927 205 844 c 0
 184 760 148 675 83 691 c 0
222 465 m 0
 210 582 412 616 560 633 c 0
 740 654 952 674 947 560 c 0
 942 438 731 476 578 450 c 0
 430 425 234 345 222 465 c 0
EndSplineSet
EndChar
StartChar: eight
Encoding: 56 56 56
Width: 819
Flags: W
LayerCount: 2
Fore
SplineSet
48 799 m 0
 84 873 214 850 313 799 c 0
 451 727 506 678 579 600 c 0
 709 462 751 364 760 231 c 4
 769 96 742 0 632 -90 c 0
 525 -177 382 -176 261 -116 c 0
 131 -52 110 69 126 151 c 0
 160 330 259 454 350 582 c 0
 443 712 523 801 564 870 c 0
 594 920 634 993 579 1015 c 0
 513 1041 439 1018 340 941 c 0
 204 834 177 646 89 671 c 0
 12 693 14 764 70 890 c 0
 99 955 161 1024 209 1072 c 0
 270 1133 313 1154 376 1180 c 0
 455 1212 622 1230 714 1155 c 0
 825 1064 784 926 735 823 c 0
 692 732 512 518 448 421 c 0
 388 331 315 224 310 132 c 0
 304 22 481 19 532 65 c 0
 607 134 597 202 564 305 c 0
 523 433 385 524 267 608 c 0
 151 690 1 700 48 799 c 0
EndSplineSet
EndChar
StartChar: nine
Encoding: 57 57 57
Width: 825
Flags: W
LayerCount: 2
Fore
SplineSet
673 1067 m 0
 611 1018 573 1059 521 1103 c 0
 491 1129 433 1164 387 1146 c 0
 327 1123 261 1087 226 992 c 0
 213 956 206 848 234 820 c 0
 278 774 342 766 403 786 c 0
 473 809 553 834 578 904 c 0
 606 981 661 1127 734 1102 c 0
 864 1058 765 879 681 624 c 0
 651 533 580 313 541 192 c 0
 477 -7 441 -148 350 -125 c 0
 229 -94 322 122 384 309 c 0
 431 449 441 480 485 613 c 1
 381 558 269 566 195 595 c 0
 109 627 44 691 31 786 c 0
 15 898 29 1012 84 1113 c 0
 135 1208 244 1321 351 1334 c 0
 413 1342 509 1336 586 1288 c 0
 686 1226 752 1132 673 1067 c 0
EndSplineSet
EndChar
StartChar: colon
Encoding: 58 58 58
Width: 177
Flags: W
LayerCount: 2
Fore
SplineSet
45 687 m 0
 -17 708 6 895 120 871 c 0
 196 856 177 642 45 687 c 0
46 238 m 4
 -16 259 7 446 121 422 c 4
 197 407 178 193 46 238 c 4
EndSplineSet
EndChar
StartChar: semicolon
Encoding: 59 59 59
Width: 272
Flags: W
LayerCount: 2
Fore
SplineSet
164 456 m 4
 226 441 244 360 237 306 c 4
 231 256 206 187 175 133 c 4
 142 75 96 24 66 42 c 4
 35 60 49 104 66 148 c 4
 86 202 91 224 97 250 c 5
 46 274 26 321 38 375 c 4
 50 429 102 471 164 456 c 4
89 788 m 0
 27 809 50 996 164 972 c 0
 240 957 221 743 89 788 c 0
EndSplineSet
EndChar
StartChar: less
Encoding: 60 60 60
Width: 652
Flags: W
LayerCount: 2
Fore
SplineSet
611 973 m 4
 669 908 527 803 452 742 c 4
 374 679 329 652 257 614 c 5
 335 570 375 524 430 478 c 4
 511 409 654 279 579 216 c 4
 511 159 390 308 296 390 c 4
 152 516 30 524 29 601 c 4
 28 690 246 775 344 837 c 4
 441 899 555 1035 611 973 c 4
EndSplineSet
EndChar
StartChar: equal
Encoding: 61 61 61
Width: 685
Flags: W
LayerCount: 2
Fore
SplineSet
67 369 m 4
 51 456 247 500 351 503 c 4
 452 506 662 506 632 391 c 4
 611 309 484 357 364 354 c 4
 236 351 83 280 67 369 c 4
67 647 m 0
 51 734 247 778 351 781 c 0
 452 784 662 783 632 668 c 0
 611 586 484 635 364 632 c 0
 236 629 83 558 67 647 c 0
EndSplineSet
EndChar
StartChar: greater
Encoding: 62 62 62
Width: 625
Flags: W
LayerCount: 2
Fore
SplineSet
29 973 m 4
 -29 908 113 803 188 742 c 4
 266 679 312 652 384 614 c 5
 306 570 265 524 210 478 c 4
 129 409 -14 279 61 216 c 4
 129 159 250 308 344 390 c 4
 488 516 610 524 611 601 c 4
 612 690 394 775 296 837 c 4
 199 899 85 1035 29 973 c 4
EndSplineSet
EndChar
StartChar: question
Encoding: 63 63 63
Width: 751
Flags: W
LayerCount: 2
Fore
SplineSet
92 1146 m 0
 10 1158 -24 1377 234 1482 c 0
 378 1540 673 1544 699 1342 c 0
 726 1122 334 912 318 753 c 0
 309 665 488 561 428 492 c 0
 364 418 136 580 170 774 c 4
 208 986 558 1205 540 1311 c 4
 525 1397 322 1363 228 1311 c 4
 170 1277 180 1132 92 1146 c 0
405 58 m 0
 319 34 214 209 340 249 c 0
 414 273 540 96 405 58 c 0
EndSplineSet
EndChar
StartChar: at
Encoding: 64 64 64
Width: 1291
Flags: W
LayerCount: 2
Fore
SplineSet
888 936 m 4
 866 908 825 907 808 912 c 4
 781 920 752 915 716 896 c 4
 672 873 637 842 592 784 c 4
 536 711 501 629 520 617 c 4
 550 598 620 666 682 745 c 4
 757 840 808 937 872 928 c 4
 945 917 886 783 872 709 c 4
 857 628 882 563 921 556 c 4
 999 542 1088 784 1102 918 c 4
 1124 1124 1049 1298 915 1349 c 4
 785 1398 588 1324 424 1123 c 4
 284 952 152 714 196 498 c 4
 226 350 327 206 498 175 c 4
 681 141 856 408 927 347 c 4
 1011 275 745 22 557 22 c 4
 290 22 174 165 100 301 c 4
 12 463 29 730 124 928 c 4
 232 1153 342 1304 557 1434 c 4
 697 1519 916 1559 1049 1460 c 4
 1210 1340 1257 1180 1254 951 c 4
 1251 752 1118 397 895 403 c 4
 761 406 724 532 736 606 c 5
 682 535 589 454 479 450 c 4
 393 447 357 577 371 647 c 4
 388 733 419 799 467 860 c 4
 508 912 563 960 632 1011 c 4
 688 1052 795 1072 842 1043 c 4
 872 1024 910 964 888 936 c 4
EndSplineSet
EndChar
StartChar: A
Encoding: 65 65 65
Width: 1011
Flags: W
LayerCount: 2
Fore
SplineSet
74 125 m 0
 -11 137 59 690 150 942 c 0
 233 1170 370 1471 540 1480 c 0
 756 1491 877 1178 907 963 c 0
 953 638 1030 84 902 73 c 0
 789 63 800 636 763 869 c 0
 732 1065 668 1310 546 1295 c 0
 457 1284 351 1043 300 873 c 0
 227 627 209 106 74 125 c 0
125 984 m 0
 242 1007 247 717 242 574 c 0
 237 416 205 108 84 124 c 0
 -33 139 83 386 89 517 c 0
 96 673 32 966 125 984 c 0
216 475 m 0
 166 591 350 660 508 682 c 4
 644 701 873 661 835 562 c 0
 804 480 618 527 518 510 c 0
 421 494 258 378 216 475 c 0
EndSplineSet
EndChar
StartChar: B
Encoding: 66 66 66
Width: 1272
Flags: W
LayerCount: 2
Fore
SplineSet
210 1475 m 0
 323 1489 329 1151 315 965 c 0
 298 749 211 308 76 342 c 0
 -34 370 110 727 130 918 c 0
 150 1105 101 1461 210 1475 c 0
109 337 m 0
 -28 360 82 730 128 918 c 0
 189 1169 227 1513 463 1619 c 0
 584 1673 785 1642 863 1535 c 0
 955 1410 962 1228 836 1040 c 1
 1078 1022 1208 865 1232 690 c 4
 1267 437 1134 107 756 53 c 0
 410 4 128 382 263 444 c 0
 361 489 442 188 724 221 c 0
 989 252 1062 442 1064 648 c 0
 1065 781 941 880 795 875 c 0
 698 872 591 712 538 723 c 0
 485 734 428 821 448 863 c 0
 476 922 650 1028 707 1135 c 0
 751 1218 796 1360 732 1430 c 0
 680 1486 562 1497 495 1443 c 0
 398 1365 347 1175 322 1052 c 0
 286 877 267 311 109 337 c 0
EndSplineSet
EndChar
StartChar: C
Encoding: 67 67 67
Width: 1080
Flags: W
LayerCount: 2
Fore
SplineSet
921 1255 m 0
 872 1195 747 1327 671 1311 c 0
 547 1285 472 1197 399 1093 c 0
 288 934 224 747 205 530 c 0
 188 336 312 230 449 216 c 0
 572 203 712 278 817 393 c 0
 906 490 948 619 1046 536 c 0
 1115 478 898 162 666 69 c 0
 457 -15 235 31 109 196 c 0
 -24 369 24 640 85 850 c 0
 147 1061 263 1224 391 1345 c 0
 507 1455 655 1517 802 1454 c 0
 887 1418 980 1326 921 1255 c 0
EndSplineSet
EndChar
StartChar: D
Encoding: 68 68 68
Width: 1362
Flags: W
LayerCount: 2
Fore
SplineSet
127 1235 m 0
 225 1244 227 967 226 828 c 0
 225 652 201 319 91 329 c 0
 14 336 58 623 63 768 c 0
 68 928 46 1227 127 1235 c 0
96 323 m 0
 -18 344 90 658 108 810 c 0
 127 965 143 1042 153 1254 c 0
 157 1331 162 1426 290 1442 c 0
 458 1462 684 1445 859 1369 c 0
 1008 1305 1164 1207 1237 1063 c 0
 1311 917 1331 753 1288 595 c 0
 1254 470 1153 324 1049 247 c 0
 895 133 685 46 498 84 c 0
 343 116 63 289 130 373 c 0
 165 416 313 310 502 278 c 0
 615 259 755 269 840 314 c 0
 958 376 1064 493 1112 618 c 0
 1155 731 1141 882 1079 986 c 0
 1014 1095 889 1181 768 1221 c 0
 626 1268 499 1273 315 1269 c 1
 309 1087 291 928 268 761 c 0
 246 605 219 300 96 323 c 0
EndSplineSet
EndChar
StartChar: E
Encoding: 69 69 69
Width: 1008
Flags: W
LayerCount: 2
Fore
SplineSet
-6 1272 m 0
 -21 1391 318 1448 488 1454 c 0
 639 1458 925 1478 918 1346 c 0
 914 1247 618 1273 478 1264 c 0
 311 1253 9 1150 -6 1272 c 0
133 1284 m 0
 255 1312 249 1098 260 965 c 0
 269 863 272 738 250 646 c 0
 230 561 211 475 239 393 c 0
 264 316 314 227 392 204 c 0
 482 178 580 202 671 217 c 0
 763 232 897 247 908 167 c 0
 922 59 719 43 595 21 c 0
 485 1 361 -2 273 46 c 0
 152 113 99 211 64 345 c 0
 36 449 56 557 80 665 c 0
 99 749 99 864 93 946 c 0
 84 1073 27 1260 133 1284 c 0
190 578 m 0
 162 686 345 748 523 768 c 0
 725 790 916 813 916 699 c 0
 916 600 690 616 547 604 c 0
 430 593 213 484 190 578 c 0
EndSplineSet
EndChar
StartChar: F
Encoding: 70 70 70
Width: 1069
Flags: W
LayerCount: 2
Fore
SplineSet
157 1296 m 0
 290 1304 242 870 228 650 c 4
 215 439 220 -17 98 -10 c 4
 -15 -3 44 464 57 648 c 0
 78 949 38 1289 157 1296 c 0
578 1324 m 0
 415 1298 146 1118 102 1222 c 0
 42 1367 358 1448 534 1492 c 0
 710 1536 1014 1572 1016 1451 c 0
 1017 1363 795 1359 578 1324 c 0
134 584 m 0
 128 690 254 693 444 731 c 0
 616 766 796 846 812 722 c 0
 823 637 588 586 460 562 c 0
 350 542 138 496 134 584 c 0
EndSplineSet
EndChar
StartChar: G
Encoding: 71 71 71
Width: 1495
Flags: W
LayerCount: 2
Fore
SplineSet
942 1223 m 0
 872 1156 750 1307 682 1292 c 0
 526 1257 348 1115 278 972 c 0
 218 850 199 701 239 572 c 0
 284 425 406 296 552 269 c 0
 714 239 830 273 960 407 c 0
 1033 483 1106 723 1184 701 c 0
 1259 680 1240 544 1180 422 c 0
 1080 217 889 89 655 82 c 0
 450 75 316 152 196 282 c 0
 102 383 52 554 47 692 c 0
 41 870 128 1073 246 1205 c 0
 367 1341 562 1503 772 1466 c 4
 868 1449 1024 1303 942 1223 c 0
810 675 m 0
 808 788 992 762 1129 774 c 0
 1279 787 1459 833 1463 716 c 0
 1466 617 1310 633 1148 612 c 0
 1008 594 812 559 810 675 c 0
EndSplineSet
EndChar
StartChar: H
Encoding: 72 72 72
Width: 1243
Flags: W
LayerCount: 2
Fore
SplineSet
286 1402 m 0
 387 1388 284 938 254 704 c 0
 228 499 245 90 131 96 c 0
 9 102 66 501 85 700 c 0
 109 946 176 1417 286 1402 c 0
190 634 m 0
 197 730 446 706 565 742 c 0
 759 801 966 958 1022 854 c 0
 1074 757 834 680 627 599 c 0
 476 540 182 535 190 634 c 0
1126 1425 m 4
 1227 1414 1116 942 1110 703 c 0
 1104 467 1224 60 1108 36 c 4
 971 7 945 469 946 695 c 0
 947 960 1002 1439 1126 1425 c 4
EndSplineSet
EndChar
StartChar: I
Encoding: 73 73 73
Width: 768
Flags: W
LayerCount: 2
Fore
SplineSet
392 -57 m 4
 264 -90 89 -159 71 -94 c 4
 38 24 226 62 358 94 c 4
 483 124 723 163 721 64 c 4
 719 -42 511 -26 392 -57 c 4
374 1243 m 0
 246 1210 71 1141 53 1206 c 0
 20 1324 208 1362 340 1394 c 0
 465 1424 705 1463 703 1364 c 0
 701 1258 493 1274 374 1243 c 0
368 1328 m 0
 447 1335 452 1206 456 1039 c 0
 459 917 449 582 450 486 c 0
 452 260 466 14 348 23 c 0
 245 31 306 268 302 477 c 0
 300 583 305 889 302 1022 c 0
 299 1181 296 1322 368 1328 c 0
EndSplineSet
EndChar
StartChar: J
Encoding: 74 74 74
Width: 901
Flags: W
LayerCount: 2
Fore
SplineSet
263 1094 m 0
 232 1203 435 1253 548 1270 c 0
 651 1286 846 1296 847 1192 c 0
 848 1078 660 1113 547 1097 c 0
 462 1085 287 1010 263 1094 c 0
767 1265 m 0
 869 1241 808 988 812 833 c 0
 813 761 817 642 839 535 c 0
 876 349 849 126 761 -42 c 0
 669 -218 471 -358 278 -337 c 0
 87 -316 10 -123 27 35 c 4
 40 160 89 381 180 365 c 0
 299 345 183 125 194 5 c 0
 200 -62 226 -129 291 -147 c 0
 410 -181 522 -86 594 14 c 0
 676 128 688 266 689 406 c 0
 690 538 658 680 654 812 c 0
 650 934 624 1299 767 1265 c 0
EndSplineSet
EndChar
StartChar: K
Encoding: 75 75 75
Width: 1221
Flags: W
LayerCount: 2
Fore
SplineSet
319 1383 m 0
 420 1378 371 952 335 742 c 0
 298 526 244 38 121 53 c 0
 20 65 115 485 159 745 c 0
 197 972 203 1389 319 1383 c 0
1154 1340 m 0
 1236 1277 983 956 850 811 c 0
 702 649 432 419 371 521 c 0
 316 612 591 767 718 904 c 0
 862 1058 1064 1410 1154 1340 c 0
383 574 m 0
 396 669 684 599 845 502 c 0
 973 425 1237 167 1151 95 c 0
 1063 22 880 289 725 378 c 4
 597 451 367 461 383 574 c 0
EndSplineSet
EndChar
StartChar: L
Encoding: 76 76 76
Width: 1058
Flags: W
LayerCount: 2
Fore
SplineSet
238 1487 m 0
 341 1485 301 1158 302 947 c 0
 303 759 248 400 235 279 c 1
 339 289 508 307 626 313 c 0
 801 323 1044 362 1039 229 c 4
 1035 123 768 139 582 122 c 0
 415 106 270 100 151 90 c 0
 41 82 50 208 56 288 c 0
 67 425 107 610 113 742 c 0
 118 856 127 984 127 1100 c 0
 127 1250 116 1490 238 1487 c 0
EndSplineSet
EndChar
StartChar: M
Encoding: 77 77 77
Width: 1480
Flags: W
LayerCount: 2
Fore
SplineSet
1331 67 m 0
 1237 43 1143 399 1092 617 c 0
 1042 829 973 1209 1092 1226 c 4
 1182 1239 1196 899 1255 666 c 0
 1305 469 1461 100 1331 67 c 0
1104 1224 m 0
 1211 1196 1112 882 1005 659 c 0
 911 462 743 128 647 213 c 0
 563 287 768 538 866 758 c 0
 947 939 998 1252 1104 1224 c 0
709 204 m 0
 605 156 514 421 428 656 c 0
 353 861 237 1181 353 1214 c 0
 452 1243 495 932 580 707 c 0
 651 520 827 258 709 204 c 0
378 1214 m 0
 473 1194 383 827 341 614 c 0
 299 400 203 28 88 65 c 0
 -10 97 115 405 171 639 c 0
 218 834 246 1242 378 1214 c 0
EndSplineSet
EndChar
StartChar: N
Encoding: 78 78 78
Width: 1074
Flags: W
LayerCount: 2
Fore
SplineSet
53 78 m 0
 -41 96 36 467 60 708 c 0
 79 906 70 1223 178 1235 c 0
 306 1249 358 989 444 809 c 0
 512 666 654 295 757 337 c 0
 858 378 853 665 859 821 c 0
 866 1003 826 1290 940 1296 c 4
 1042 1301 1041 994 1034 779 c 0
 1027 565 1020 230 817 160 c 0
 629 95 479 323 406 461 c 0
 348 569 275 746 244 820 c 1
 242 744 213 486 194 341 c 0
 178 219 160 56 53 78 c 0
EndSplineSet
EndChar
StartChar: O
Encoding: 79 79 79
Width: 1106
Flags: W
LayerCount: 2
Fore
SplineSet
577 1435 m 0
 725 1447 928 1298 993 1090 c 0
 1061 870 1076 560 926 279 c 0
 842 122 655 48 477 69 c 0
 278 93 168 231 107 381 c 0
 17 602 41 914 140 1109 c 0
 240 1306 363 1418 577 1435 c 0
676 1237 m 0
 602 1278 498 1244 428 1199 c 0
 325 1133 263 1011 235 891 c 0
 203 755 216 535 280 408 c 0
 329 312 411 261 494 245 c 4
 588 227 683 253 734 306 c 0
 859 436 881 658 881 838 c 0
 881 953 804 1166 676 1237 c 0
EndSplineSet
EndChar
StartChar: P
Encoding: 80 80 80
Width: 1081
Flags: W
LayerCount: 2
Fore
SplineSet
149 1440 m 4
 285 1439 240 1006 238 791 c 4
 236 538 282 42 151 37 c 4
 7 31 55 513 61 755 c 4
 66 984 30 1441 149 1440 c 4
133 46 m 4
 11 56 67 506 78 738 c 4
 89 967 125 1219 190 1440 c 4
 214 1523 275 1611 371 1618 c 4
 579 1634 810 1477 929 1290 c 4
 1000 1180 1045 1062 1001 938 c 4
 955 810 839 692 715 634 c 4
 590 575 295 438 280 565 c 4
 267 669 507 704 633 784 c 4
 741 852 864 974 853 1074 c 4
 846 1134 771 1240 680 1320 c 4
 582 1406 465 1463 398 1441 c 4
 300 1409 271 975 250 743 c 4
 229 511 284 34 133 46 c 4
EndSplineSet
EndChar
StartChar: Q
Encoding: 81 81 81
Width: 1293
Flags: W
LayerCount: 2
Fore
SplineSet
679 1505 m 0
 962 1505 1167 1297 1232 965 c 0
 1275 744 1248 461 1096 265 c 0
 975 109 826 38 660 31 c 0
 504 24 333 88 226 202 c 0
 21 420 4 730 54 940 c 0
 126 1245 369 1505 679 1505 c 0
670 1324 m 0
 509 1320 432 1262 326 1138 c 0
 210 1002 185 759 219 588 c 0
 243 468 332 341 435 269 c 0
 545 191 771 186 922 327 c 0
 1044 441 1087 687 1073 853 c 0
 1056 1052 938 1330 670 1324 c 0
390 271 m 0
 343 360 530 468 627 493 c 0
 753 525 836 509 917 458 c 0
 1007 402 1068 318 1125 227 c 0
 1184 133 1313 -49 1240 -104 c 0
 1168 -158 1080 3 1032 79 c 0
 983 157 952 203 887 262 c 0
 838 306 772 362 684 336 c 0
 580 304 439 178 390 271 c 0
EndSplineSet
EndChar
StartChar: R
Encoding: 82 82 82
Width: 1081
Flags: W
LayerCount: 2
Fore
SplineSet
295 583 m 0
 316 700 544 571 664 500 c 0
 837 398 1117 109 1028 36 c 0
 947 -31 725 287 592 352 c 0
 452 420 279 494 295 583 c 0
149 1440 m 0
 285 1439 240 1006 238 791 c 0
 236 538 282 42 151 37 c 0
 7 31 55 513 61 755 c 0
 66 984 30 1441 149 1440 c 0
133 46 m 0
 11 56 67 506 78 738 c 0
 89 967 125 1219 190 1440 c 4
 214 1523 275 1611 371 1618 c 4
 579 1634 810 1477 929 1290 c 0
 1000 1180 1045 1062 1001 938 c 0
 955 810 839 692 715 634 c 0
 590 575 295 438 280 565 c 0
 267 669 507 704 633 784 c 0
 741 852 864 974 853 1074 c 0
 846 1134 771 1240 680 1320 c 0
 582 1406 465 1463 398 1441 c 4
 300 1409 271 975 250 743 c 0
 229 511 284 34 133 46 c 0
EndSplineSet
EndChar
StartChar: S
Encoding: 83 83 83
Width: 1182
Flags: W
LayerCount: 2
Fore
SplineSet
763 1303 m 0
 710 1268 665 1330 629 1320 c 0
 557 1301 480 1256 408 1198 c 0
 308 1119 230 1043 246 1002 c 0
 268 946 520 978 764 952 c 0
 1027 923 1128 750 1123 642 c 0
 1115 444 979 232 805 119 c 0
 693 47 517 35 391 60 c 0
 246 89 12 226 73 329 c 0
 125 417 290 269 390 251 c 0
 496 232 578 224 674 266 c 0
 762 304 826 364 875 446 c 0
 919 520 958 614 924 678 c 0
 866 789 720 781 589 785 c 0
 443 790 276 771 145 836 c 0
 66 874 34 926 36 994 c 0
 40 1098 134 1182 212 1252 c 0
 349 1376 569 1531 709 1487 c 0
 780 1464 825 1344 763 1303 c 0
EndSplineSet
EndChar
StartChar: T
Encoding: 84 84 84
Width: 1413
Flags: W
LayerCount: 2
Fore
SplineSet
18 1351 m 4
 -18 1500 431 1548 703 1584 c 4
 1010 1625 1394 1675 1380 1542 c 4
 1372 1466 1034 1449 732 1405 c 4
 411 1358 42 1251 18 1351 c 4
695 1568 m 0
 813 1568 756 1098 748 839 c 0
 731 330 739 137 636 136 c 0
 516 135 552 409 568 837 c 0
 578 1114 586 1568 695 1568 c 0
EndSplineSet
EndChar
StartChar: U
Encoding: 85 85 85
Width: 1398
Flags: W
LayerCount: 2
Fore
SplineSet
150 1467 m 0
 251 1469 175 1068 176 833 c 4
 177 664 222 254 385 237 c 0
 511 224 659 451 725 593 c 0
 798 750 842 866 872 1033 c 0
 908 1233 902 1487 1014 1472 c 0
 1117 1459 1084 1128 977 765 c 0
 926 592 865 464 797 346 c 0
 663 113 512 14 308 58 c 0
 50 114 2 567 -2 796 c 4
 -6 1035 16 1464 150 1467 c 0
1010 1470 m 0
 1104 1460 1055 1224 1063 1068 c 0
 1074 854 1083 718 1151 513 c 0
 1197 375 1381 214 1300 116 c 0
 1226 26 1065 240 1012 373 c 0
 923 597 903 805 901 1046 c 0
 900 1224 895 1482 1010 1470 c 0
EndSplineSet
EndChar
StartChar: V
Encoding: 86 86 86
Width: 1257
Flags: W
LayerCount: 2
Fore
SplineSet
72 1444 m 0
 190 1498 285 1095 348 914 c 0
 408 742 503 486 579 303 c 1
 671 496 775 721 864 920 c 0
 950 1114 1076 1488 1180 1447 c 0
 1254 1418 1179 1207 1091 983 c 0
 1045 865 991 745 945 649 c 0
 844 437 707 45 561 45 c 0
 445 45 322 446 270 597 c 0
 221 741 159 903 113 1047 c 0
 47 1251 0 1411 72 1444 c 0
EndSplineSet
EndChar
StartChar: W
Encoding: 87 87 87
Width: 1614
Flags: W
LayerCount: 2
Fore
SplineSet
158 1480 m 0
 285 1472 193 1041 220 788 c 0
 238 618 328 234 434 236 c 0
 574 239 630 453 661 567 c 0
 697 698 707 875 830 882 c 4
 917 887 966 678 1022 570 c 0
 1075 468 1164 322 1272 362 c 0
 1380 402 1395 637 1391 752 c 0
 1384 975 1346 1375 1474 1375 c 0
 1583 1375 1548 1049 1557 880 c 0
 1569 663 1596 424 1451 261 c 0
 1373 173 1208 147 1106 193 c 0
 950 263 888 417 842 536 c 1
 802 392 777 291 721 199 c 0
 668 112 576 24 421 32 c 0
 219 43 108 323 58 616 c 0
 8 905 24 1488 158 1480 c 0
EndSplineSet
EndChar
StartChar: X
Encoding: 88 88 88
Width: 1117
Flags: W
LayerCount: 2
Fore
SplineSet
154 48 m 0
 -56 104 267 671 412 917 c 0
 561 1170 965 1572 1037 1470 c 0
 1105 1375 799 1170 601 869 c 0
 416 588 326 2 154 48 c 0
40 1536 m 0
 177 1602 283 1231 388 1066 c 4
 490 904 594 740 712 589 c 0
 831 438 1120 153 1055 80 c 0
 978 -6 713 308 577 452 c 0
 438 600 331 767 240 948 c 0
 146 1133 -49 1493 40 1536 c 0
EndSplineSet
EndChar
StartChar: Y
Encoding: 89 89 89
Width: 851
Flags: W
LayerCount: 2
Fore
SplineSet
98 1487 m 0
 192 1504 178 1258 197 1155 c 0
 213 1070 302 869 369 869 c 0
 434 869 516 998 581 1144 c 0
 635 1266 699 1521 814 1466 c 0
 894 1428 773 1213 727 1092 c 0
 671 944 571 703 401 690 c 0
 263 680 122 864 76 994 c 0
 22 1144 0 1469 98 1487 c 0
807 1478 m 4
 910 1437 747 1145 706 998 c 4
 647 785 547 401 491 200 c 0
 454 65 428 -199 311 -171 c 0
 189 -142 290 87 331 240 c 0
 388 456 492 824 549 1034 c 0
 591 1188 697 1521 807 1478 c 4
EndSplineSet
EndChar
StartChar: Z
Encoding: 90 90 90
Width: 1052
Flags: W
LayerCount: 2
Fore
SplineSet
53 1338 m 0
 121 1388 283 1411 422 1424 c 0
 565 1437 600 1442 784 1449 c 0
 902 1454 920 1341 875 1275 c 0
 754 1096 623 924 503 726 c 0
 415 582 286 360 224 226 c 5
 376 226 444 229 571 239 c 0
 693 249 794 279 906 289 c 0
 1026 300 1053 159 941 127 c 0
 779 80 701 74 550 60 c 0
 402 46 198 17 90 84 c 0
 1 139 25 233 68 328 c 0
 122 447 239 654 342 809 c 0
 440 958 581 1171 666 1268 c 1
 587 1262 466 1251 383 1241 c 0
 291 1230 163 1194 72 1204 c 0
 7 1211 0 1300 53 1338 c 0
20 750 m 0
 17 851 279 868 430 876 c 0
 588 886 883 934 880 803 c 0
 877 705 599 712 444 702 c 0
 295 692 23 653 20 750 c 0
EndSplineSet
EndChar
StartChar: bracketleft
Encoding: 91 91 91
Width: 627
Flags: W
LayerCount: 2
Fore
SplineSet
613 1385 m 4
 601 1295 443 1331 352 1318 c 4
 248 1304 61 1241 45 1335 c 4
 29 1427 225 1465 329 1476 c 4
 424 1486 626 1479 613 1385 c 4
115 1368 m 0
 213 1408 237 1232 260 1128 c 0
 284 1016 277 889 256 765 c 0
 238 658 184 474 186 366 c 0
 187 302 222 241 271 223 c 0
 321 204 389 211 441 229 c 0
 506 251 581 259 600 200 c 0
 623 129 517 88 446 66 c 0
 356 39 245 48 166 100 c 0
 93 148 49 239 34 325 c 0
 12 450 70 668 99 791 c 0
 125 900 134 1002 109 1123 c 0
 93 1198 44 1339 115 1368 c 0
EndSplineSet
EndChar
StartChar: backslash
Encoding: 92 92 92
Width: 599
Flags: W
LayerCount: 2
Fore
SplineSet
552 42 m 0
 640 71 550 282 475 494 c 0
 411 676 311 950 267 1081 c 0
 203 1272 124 1431 54 1392 c 0
 -2 1361 52 1216 122 1021 c 0
 168 894 268 610 327 439 c 0
 390 255 461 12 552 42 c 0
EndSplineSet
EndChar
StartChar: bracketright
Encoding: 93 93 93
Width: 627
Flags: W
LayerCount: 2
Fore
SplineSet
15 1329 m 4
 37 1241 190 1294 282 1292 c 4
 387 1289 580 1247 585 1343 c 4
 590 1436 392 1453 287 1452 c 4
 192 1451 -8 1421 15 1329 c 4
511 1368 m 0
 413 1408 389 1232 366 1128 c 0
 342 1016 349 889 370 765 c 0
 388 658 442 474 440 366 c 0
 439 302 404 241 355 223 c 0
 305 204 237 211 185 229 c 0
 120 251 45 259 26 200 c 0
 3 129 109 88 180 66 c 0
 270 39 381 48 460 100 c 0
 533 148 577 239 592 325 c 0
 614 450 556 668 527 791 c 0
 501 900 493 1002 518 1123 c 0
 534 1198 582 1339 511 1368 c 0
EndSplineSet
EndChar
StartChar: asciicircum
Encoding: 94 94 94
Width: 437
Flags: W
LayerCount: 2
Fore
SplineSet
400 1008 m 4
 347 970 267 1072 233 1127 c 4
 196 1188 138 1305 201 1338 c 4
 250 1364 300 1267 330 1220 c 4
 370 1157 460 1051 400 1008 c 4
231 1342 m 4
 297 1313 232 1177 202 1111 c 4
 168 1035 103 909 38 961 c 4
 -15 1003 64 1117 94 1181 c 4
 127 1252 180 1364 231 1342 c 4
EndSplineSet
EndChar
StartChar: underscore
Encoding: 95 95 95
Width: 751
Flags: W
LayerCount: 2
Fore
SplineSet
354 166 m 0
 529 176 740 188 737 98 c 0
 734 17 539 24 369 18 c 0
 270 15 56 -27 46 46 c 0
 32 145 253 160 354 166 c 0
EndSplineSet
EndChar
StartChar: grave
Encoding: 96 96 96
Width: 384
Flags: W
LayerCount: 2
Fore
SplineSet
49 1384 m 4
 118 1448 203 1321 256 1242 c 4
 318 1149 399 1008 327 968 c 4
 266 934 214 1054 163 1133 c 4
 106 1221 -8 1331 49 1384 c 4
EndSplineSet
EndChar
StartChar: a
Encoding: 97 97 97
Width: 795
Flags: W
LayerCount: 2
Fore
SplineSet
475 683 m 0
 405 696 376 683 332 646 c 0
 267 591 245 554 205 472 c 0
 168 397 130 218 187 199 c 0
 269 172 335 331 375 418 c 0
 429 537 507 744 566 730 c 0
 672 706 550 478 500 366 c 0
 440 233 364 71 223 32 c 0
 159 14 77 46 46 105 c 0
 -12 217 7 365 64 524 c 0
 86 585 166 701 242 756 c 0
 341 828 446 821 498 802 c 0
 539 787 558 757 545 721 c 4
 533 688 504 678 475 683 c 0
581 724 m 0
 649 712 565 479 601 362 c 0
 630 267 794 240 773 176 c 0
 754 118 686 110 630 134 c 0
 538 174 480 265 465 363 c 0
 445 495 475 743 581 724 c 0
EndSplineSet
EndChar
StartChar: b
Encoding: 98 98 98
Width: 751
Flags: W
LayerCount: 2
Fore
SplineSet
248 1568 m 4
 341 1554 233 1153 209 867 c 4
 194 681 238 398 245 268 c 4
 250 176 119 175 106 240 c 4
 79 370 66 718 72 904 c 4
 80 1132 150 1582 248 1568 c 4
171 215 m 4
 81 239 155 405 175 496 c 4
 195 590 245 704 304 780 c 4
 360 852 458 914 545 880 c 4
 672 831 694 639 694 503 c 4
 694 369 641 222 543 131 c 4
 468 62 315 16 252 39 c 4
 183 64 159 140 201 163 c 4
 284 208 385 205 444 257 c 4
 503 309 540 388 552 465 c 4
 566 551 567 704 511 724 c 4
 423 755 345 587 308 481 c 4
 275 385 269 188 171 215 c 4
EndSplineSet
EndChar
StartChar: c
Encoding: 99 99 99
Width: 751
Flags: W
LayerCount: 2
Fore
SplineSet
498 675 m 0
 458 638 386 685 352 674 c 0
 281 650 262 595 226 529 c 0
 179 441 162 287 211 226 c 0
 263 163 384 231 437 278 c 0
 513 346 634 513 694 444 c 0
 774 353 537 119 380 54 c 4
 272 9 142 19 80 103 c 0
 26 177 14 315 40 444 c 0
 60 544 107 637 147 702 c 0
 205 796 293 838 403 835 c 0
 477 833 552 726 498 675 c 0
EndSplineSet
EndChar
StartChar: d
Encoding: 100 100 100
Width: 789
Flags: W
LayerCount: 2
Fore
SplineSet
450 624 m 0
 456 504 244 538 203 466 c 0
 162 394 171 193 218 180 c 0
 280 163 378 373 400 458 c 0
 442 621 443 762 458 926 c 0
 478 1143 493 1582 617 1560 c 0
 701 1545 637 1151 616 950 c 0
 597 772 601 585 546 414 c 0
 500 271 450 115 317 36 c 0
 259 1 150 -3 105 48 c 0
 1 165 6 383 63 539 c 0
 87 605 195 651 264 664 c 0
 326 676 447 687 450 624 c 0
617 1560 m 0
 712 1530 588 1234 576 1070 c 0
 566 935 549 834 542 699 c 0
 535 565 527 404 582 298 c 0
 611 243 745 352 768 252 c 0
 787 170 612 80 535 115 c 0
 416 169 404 324 393 459 c 4
 376 662 395 865 419 1072 c 0
 439 1246 511 1594 617 1560 c 0
EndSplineSet
EndChar
StartChar: e
Encoding: 101 101 101
Width: 751
Flags: W
LayerCount: 2
Fore
SplineSet
148 407 m 0
 114 466 231 527 289 563 c 0
 371 613 447 668 437 684 c 0
 426 701 364 667 335 646 c 0
 288 613 267 588 242 552 c 0
 209 504 187 425 192 367 c 0
 196 313 213 246 262 223 c 0
 324 194 392 223 468 276 c 0
 541 327 642 463 689 408 c 0
 742 347 629 216 569 162 c 0
 478 80 356 34 235 54 c 0
 152 68 96 123 67 202 c 0
 20 328 47 447 104 569 c 0
 140 647 193 724 260 772 c 0
 330 822 424 867 501 828 c 0
 571 793 591 736 576 660 c 0
 560 578 480 518 409 475 c 0
 332 428 192 329 148 407 c 0
EndSplineSet
EndChar
StartChar: f
Encoding: 102 102 102
Width: 915
Flags: W
LayerCount: 2
Fore
SplineSet
866 1431 m 0
 822 1329 680 1408 628 1360 c 0
 556 1293 528 1210 496 1064 c 0
 454 871 454 713 438 516 c 0
 426 366 430 211 414 45 c 0
 400 -102 331 -351 246 -335 c 0
 136 -315 248 -79 251 59 c 0
 256 287 266 455 281 662 c 0
 291 801 302 933 330 1070 c 0
 367 1248 442 1471 552 1531 c 0
 633 1575 699 1557 759 1551 c 0
 824 1545 896 1501 866 1431 c 0
401 702 m 0
 286 648 78 507 28 589 c 0
 -37 698 214 807 340 867 c 0
 473 931 754 1026 780 918 c 0
 807 804 578 785 401 702 c 0
EndSplineSet
EndChar
StartChar: g
Encoding: 103 103 103
Width: 763
Flags: W
LayerCount: 2
Fore
SplineSet
622 720 m 0
 601 634 553 656 500 650 c 0
 426 641 364 549 331 483 c 0
 297 415 259 296 296 273 c 0
 330 252 415 374 464 449 c 0
 510 520 532 615 595 672 c 0
 649 721 729 675 716 631 c 0
 672 485 606 375 529 273 c 0
 473 200 393 107 303 90 c 0
 238 78 166 106 140 200 c 0
 102 337 142 441 195 560 c 0
 237 655 348 774 447 807 c 0
 520 831 647 824 622 720 c 0
651 691 m 0
 742 703 715 515 716 423 c 0
 718 234 723 101 713 -61 c 0
 705 -199 702 -343 685 -478 c 0
 668 -620 647 -772 546 -872 c 0
 474 -944 361 -984 262 -961 c 0
 185 -943 97 -878 68 -797 c 0
 33 -698 26 -601 54 -499 c 0
 77 -418 124 -268 204 -295 c 0
 287 -323 200 -472 199 -560 c 0
 198 -642 207 -737 273 -767 c 0
 342 -798 433 -769 468 -702 c 0
 524 -595 547 -369 557 -209 c 0
 567 -36 573 132 579 307 c 0
 583 436 526 675 651 691 c 0
EndSplineSet
EndChar
StartChar: h
Encoding: 104 104 104
Width: 809
Flags: W
LayerCount: 2
Fore
SplineSet
78 1375 m 0
 157 1388 176 1204 189 1078 c 0
 200 971 211 856 218 731 c 0
 225 611 224 541 229 426 c 0
 234 321 239 3 148 -7 c 0
 35 -19 70 241 73 381 c 0
 76 533 57 785 41 968 c 0
 28 1122 5 1363 78 1375 c 0
126 -4 m 0
 40 30 125 370 166 473 c 0
 237 649 354 774 484 775 c 0
 604 776 646 607 656 540 c 0
 672 439 679 403 704 298 c 0
 724 213 753 195 771 113 c 0
 785 49 751 1 685 7 c 0
 617 13 578 150 559 215 c 0
 504 406 522 548 456 555 c 0
 378 563 308 419 273 277 c 0
 240 143 197 -32 126 -4 c 0
EndSplineSet
EndChar
StartChar: i
Encoding: 105 105 105
Width: 355
Flags: W
LayerCount: 2
Fore
SplineSet
153 720 m 0
 263 717 207 509 210 399 c 0
 214 265 263 179 222 93 c 0
 200 47 156 6 112 33 c 0
 42 75 35 270 40 392 c 0
 45 506 39 723 153 720 c 0
265 1156 m 0
 216 1135 145 1183 122 1231 c 0
 95 1286 90 1383 143 1413 c 0
 193 1441 272 1392 298 1341 c 0
 328 1282 326 1182 265 1156 c 0
EndSplineSet
EndChar
StartChar: j
Encoding: 106 106 106
Width: 703
Flags: W
LayerCount: 2
Fore
SplineSet
254 518 m 0
 215 591 338 678 415 710 c 0
 487 741 627 768 649 693 c 0
 673 610 521 572 441 540 c 0
 383 517 284 463 254 518 c 0
592 725 m 0
 689 731 666 497 667 403 c 0
 668 266 672 165 671 45 c 0
 669 -124 648 -282 589 -432 c 0
 538 -562 467 -707 351 -785 c 0
 270 -840 171 -843 96 -780 c 0
 20 -716 7 -588 21 -490 c 0
 32 -414 42 -271 119 -280 c 0
 190 -288 168 -374 163 -490 c 0
 161 -547 171 -636 227 -649 c 0
 273 -660 335 -576 371 -520 c 0
 440 -412 476 -294 501 -170 c 0
 531 -23 531 176 529 373 c 0
 528 484 488 719 592 725 c 0
632 1314 m 0
 583 1293 512 1341 489 1389 c 0
 462 1444 457 1541 510 1571 c 0
 560 1599 640 1550 666 1499 c 0
 696 1440 693 1340 632 1314 c 0
EndSplineSet
EndChar
StartChar: k
Encoding: 107 107 107
Width: 789
Flags: W
LayerCount: 2
Fore
SplineSet
88 1489 m 0
 158 1495 177 1220 186 1114 c 0
 196 997 198 886 204 748 c 0
 208 653 204 502 204 385 c 0
 204 286 203 26 129 14 c 0
 10 -6 57 377 54 509 c 0
 50 675 46 913 29 1096 c 0
 17 1223 -1 1481 88 1489 c 0
110 15 m 0
 16 41 64 347 97 469 c 0
 130 593 181 716 253 809 c 0
 326 903 464 969 562 939 c 0
 648 913 691 820 667 719 c 0
 639 603 554 512 463 424 c 0
 416 379 332 306 278 343 c 0
 217 386 293 464 342 520 c 0
 405 591 557 755 507 793 c 0
 469 822 342 708 282 568 c 0
 247 485 211 335 204 235 c 0
 199 154 182 -5 110 15 c 0
273 430 m 0
 342 528 562 369 635 274 c 0
 711 174 818 37 746 -17 c 0
 686 -62 578 62 495 173 c 0
 411 285 212 344 273 430 c 0
EndSplineSet
EndChar
StartChar: l
Encoding: 108 108 108
Width: 549
Flags: W
LayerCount: 2
Fore
SplineSet
201 1578 m 0
 291 1567 254 1412 244 1325 c 0
 221 1126 204 883 199 709 c 0
 195 547 217 265 283 253 c 0
 380 236 364 427 459 405 c 0
 570 379 517 174 402 83 c 0
 309 10 175 45 134 118 c 0
 55 257 33 526 36 775 c 0
 39 1023 74 1593 201 1578 c 0
EndSplineSet
EndChar
StartChar: m
Encoding: 109 109 109
Width: 947
Flags: W
LayerCount: 2
Fore
SplineSet
49 742 m 0
 150 784 185 580 188 437 c 0
 191 328 208 -4 100 11 c 0
 -8 26 41 286 37 398 c 0
 33 514 -29 710 49 742 c 0
101 31 m 0
 -26 96 124 417 185 547 c 0
 235 654 307 745 409 731 c 0
 480 721 516 649 531 550 c 0
 552 409 553 244 533 119 c 0
 523 54 421 35 410 123 c 0
 400 208 414 548 370 551 c 0
 317 555 282 433 253 365 c 0
 201 245 178 -9 101 31 c 0
461 75 m 0
 334 140 471 469 544 592 c 0
 601 689 670 746 764 733 c 0
 865 719 912 616 924 464 c 0
 935 321 953 69 858 62 c 0
 776 56 778 247 774 361 c 0
 770 467 774 559 730 565 c 0
 677 572 625 437 596 369 c 0
 544 249 538 35 461 75 c 0
EndSplineSet
EndChar
StartChar: n
Encoding: 110 110 110
Width: 643
Flags: W
LayerCount: 2
Fore
SplineSet
106 775 m 4
 209 783 184 539 181 399 c 4
 178 274 195 -5 89 25 c 4
 7 49 32 247 43 380 c 4
 54 512 8 767 106 775 c 4
452 304 m 4
 449 387 465 606 412 610 c 4
 343 615 320 466 277 351 c 4
 235 239 166 -11 84 28 c 4
 -3 69 94 267 132 366 c 4
 179 489 186 534 245 647 c 4
 290 734 379 811 466 781 c 4
 537 757 573 701 585 605 c 4
 597 504 598 388 603 307 c 4
 611 167 624 28 558 24 c 4
 488 19 461 90 452 304 c 4
EndSplineSet
EndChar
StartChar: o
Encoding: 111 111 111
Width: 649
Flags: W
LayerCount: 2
Fore
SplineSet
354 907 m 4
 473 906 575 813 604 698 c 4
 640 557 629 358 557 220 c 4
 497 105 413 14 236 24 c 4
 126 30 37 161 23 262 c 4
 4 397 2 520 54 653 c 4
 104 781 212 908 354 907 c 4
343 728 m 4
 267 728 209 643 190 578 c 4
 168 504 166 411 175 338 c 4
 182 281 218 212 277 210 c 4
 354 207 392 252 418 317 c 4
 453 403 461 482 458 567 c 4
 456 639 407 728 343 728 c 4
EndSplineSet
EndChar
StartChar: p
Encoding: 112 112 112
Width: 847
Flags: W
LayerCount: 2
Fore
SplineSet
202 797 m 0
 305 800 283 367 281 150 c 0
 279 -54 264 -187 247 -364 c 0
 234 -501 238 -678 175 -858 c 0
 153 -920 42 -917 30 -842 c 0
 7 -699 79 -259 100 -1 c 0
 115 181 133 367 127 549 c 0
 124 639 115 794 202 797 c 0
310 192 m 0
 339 264 470 179 518 217 c 4
 596 279 653 357 641 456 c 0
 632 530 543 629 480 623 c 0
 422 617 375 423 342 288 c 0
 295 98 274 -162 253 -357 c 0
 232 -549 211 -901 113 -896 c 0
 5 -891 64 -592 72 -451 c 0
 81 -293 107 -132 133 24 c 0
 155 156 180 285 217 413 c 0
 253 535 275 685 375 759 c 0
 445 810 538 797 613 754 c 0
 723 691 798 572 803 445 c 0
 808 319 743 186 649 102 c 0
 604 62 492 35 433 45 c 0
 363 57 283 127 310 192 c 0
EndSplineSet
EndChar
StartChar: q
Encoding: 113 113 113
Width: 928
Flags: W
LayerCount: 2
Fore
SplineSet
449 719 m 0
 415 666 297 725 253 679 c 0
 229 654 197 562 185 465 c 0
 172 357 183 230 203 224 c 0
 252 210 337 367 365 472 c 0
 390 568 398 799 493 787 c 0
 578 776 544 591 532 506 c 0
 514 377 453 258 373 151 c 0
 322 82 230 24 148 51 c 0
 61 79 29 204 23 297 c 0
 15 428 37 577 86 699 c 0
 122 788 168 825 236 856 c 0
 296 883 379 880 434 845 c 0
 483 814 480 768 449 719 c 0
485 740 m 0
 599 753 565 406 562 204 c 0
 560 41 559 -88 549 -247 c 0
 538 -409 530 -761 400 -736 c 0
 295 -716 375 -406 383 -243 c 0
 390 -95 398 49 406 202 c 0
 415 385 348 724 485 740 c 0
402 -732 m 0
 310 -721 362 -555 377 -416 c 0
 392 -283 431 -208 497 -92 c 0
 545 -7 620 83 710 122 c 0
 766 146 867 179 891 123 c 0
 926 42 773 -14 709 -79 c 0
 654 -135 620 -193 587 -278 c 0
 513 -467 531 -748 402 -732 c 0
EndSplineSet
EndChar
StartChar: r
Encoding: 114 114 114
Width: 751
Flags: W
LayerCount: 2
Fore
SplineSet
60 785 m 0
 154 837 230 616 234 487 c 0
 239 343 254 -9 131 32 c 4
 28 66 81 314 76 463 c 0
 73 564 -28 736 60 785 c 0
140 32 m 0
 4 60 84 336 133 466 c 0
 172 569 228 667 302 739 c 0
 338 774 412 842 479 852 c 0
 586 868 694 800 665 724 c 0
 620 605 519 724 446 657 c 0
 379 596 304 480 266 388 c 0
 221 278 257 8 140 32 c 0
EndSplineSet
EndChar
StartChar: s
Encoding: 115 115 115
Width: 654
Flags: W
LayerCount: 2
Fore
SplineSet
444 737 m 4
 425 683 305 725 262 694 c 4
 223 666 160 579 173 550 c 4
 189 514 317 527 390 533 c 4
 471 540 550 525 593 458 c 4
 651 369 652 300 610 202 c 4
 568 106 431 31 302 16 c 4
 203 5 -30 66 16 180 c 4
 49 260 208 174 282 179 c 4
 353 184 420 216 463 263 c 4
 505 310 485 373 439 382 c 4
 389 391 262 357 139 382 c 4
 70 396 13 446 13 517 c 4
 13 592 37 648 72 701 c 4
 125 780 208 842 303 847 c 4
 368 850 466 798 444 737 c 4
EndSplineSet
EndChar
StartChar: t
Encoding: 116 116 116
Width: 928
Flags: W
LayerCount: 2
Fore
SplineSet
468 1594 m 4
 559 1583 490 1312 472 1173 c 0
 449 997 432 851 438 689 c 0
 443 545 455 379 490 276 c 0
 515 204 580 213 597 248 c 0
 623 300 624 389 685 374 c 0
 774 352 760 166 655 85 c 0
 600 43 537 25 481 40 c 0
 418 57 364 122 338 206 c 0
 303 320 286 470 281 616 c 0
 277 742 280 875 291 985 c 4
 313 1205 363 1607 468 1594 c 4
60 841 m 0
 -36 914 113 1083 207 1158 c 0
 328 1255 448 1297 589 1321 c 0
 698 1340 880 1355 890 1275 c 0
 902 1183 728 1208 617 1181 c 0
 505 1154 390 1089 292 1016 c 0
 215 958 137 783 60 841 c 0
EndSplineSet
EndChar
StartChar: u
Encoding: 117 117 117
Width: 672
Flags: W
LayerCount: 2
Fore
SplineSet
128 674 m 0
 186 674 188 571 176 512 c 0
 157 419 146 214 173 211 c 0
 209 207 293 362 338 452 c 0
 384 545 426 758 510 738 c 0
 597 718 526 574 500 489 c 4
 463 368 413 251 344 157 c 0
 288 80 219 -9 127 21 c 0
 13 58 4 232 14 350 c 0
 24 468 34 674 128 674 c 0
488 734 m 0
 584 737 547 558 555 462 c 0
 561 392 571 342 596 287 c 0
 629 215 697 89 620 54 c 0
 556 25 499 104 469 172 c 0
 431 259 413 359 408 452 c 0
 403 550 390 731 488 734 c 0
EndSplineSet
EndChar
StartChar: v
Encoding: 118 118 118
Width: 536
Flags: W
LayerCount: 2
Fore
SplineSet
64 633 m 0
 141 648 151 498 170 421 c 0
 195 320 248 184 278 186 c 0
 323 190 351 360 363 421 c 0
 382 519 389 704 484 673 c 0
 538 655 521 502 512 416 c 0
 502 314 460 158 399 76 c 0
 336 -9 239 -11 166 74 c 0
 94 158 56 256 27 382 c 0
 5 479 -5 620 64 633 c 0
EndSplineSet
EndChar
StartChar: w
Encoding: 119 119 119
Width: 892
Flags: W
LayerCount: 2
Fore
SplineSet
125 777 m 0
 200 771 175 568 167 456 c 0
 159 340 180 189 240 186 c 0
 292 183 333 290 355 347 c 0
 381 415 391 548 466 561 c 0
 591 583 509 245 412 116 c 0
 341 22 227 -16 140 44 c 0
 26 123 18 253 13 391 c 0
 8 525 37 784 125 777 c 0
461 562 m 0
 524 576 541 474 561 404 c 0
 574 358 599 253 637 257 c 0
 702 263 718 429 720 513 c 0
 722 611 702 779 783 784 c 0
 868 790 897 435 848 285 c 0
 812 174 735 87 631 86 c 0
 524 85 475 178 450 241 c 0
 411 338 380 544 461 562 c 0
EndSplineSet
EndChar
StartChar: x
Encoding: 120 120 120
Width: 640
Flags: W
LayerCount: 2
Fore
SplineSet
86 854 m 0
 178 894 196 691 242 602 c 0
 293 504 371 414 433 372 c 0
 507 322 625 280 602 196 c 0
 576 100 439 170 352 229 c 4
 237 308 145 415 95 545 c 0
 60 636 -3 815 86 854 c 0
466 831 m 0
 531 781 426 647 371 567 c 0
 308 476 282 396 240 286 c 0
 210 206 198 32 98 46 c 0
 -13 62 48 204 79 311 c 0
 107 409 184 572 240 655 c 0
 308 756 392 887 466 831 c 0
EndSplineSet
EndChar
StartChar: y
Encoding: 121 121 121
Width: 607
Flags: W
LayerCount: 2
Fore
SplineSet
79 620 m 0
 156 625 160 474 178 367 c 0
 191 290 212 198 283 203 c 0
 385 210 395 345 403 425 c 0
 411 503 387 665 472 673 c 4
 595 685 567 343 525 220 c 0
 481 91 395 11 259 20 c 0
 148 28 75 139 46 264 c 0
 19 378 -30 613 79 620 c 0
323 -887 m 0
 219 -864 306 -570 331 -414 c 0
 356 -258 374 -94 386 58 c 0
 402 275 391 666 472 673 c 0
 594 684 558 377 551 213 c 0
 544 34 522 -214 487 -425 c 0
 462 -573 441 -913 323 -887 c 0
EndSplineSet
EndChar
StartChar: z
Encoding: 122 122 122
Width: 678
Flags: W
LayerCount: 2
Fore
SplineSet
27 631 m 0
 -2 698 124 762 220 793 c 0
 314 823 414 864 475 787 c 0
 513 739 429 588 381 502 c 0
 337 422 277 291 248 223 c 1
 296 235 389 271 431 285 c 0
 522 315 615 394 655 318 c 0
 699 234 554 184 443 142 c 0
 363 112 266 74 193 94 c 0
 136 110 102 165 111 223 c 0
 120 284 174 381 217 462 c 0
 259 541 330 666 348 702 c 1
 332 699 264 672 224 656 c 0
 167 633 62 550 27 631 c 0
38 349 m 0
 9 435 164 468 246 507 c 0
 350 556 555 656 583 569 c 0
 604 505 423 447 335 408 c 0
 237 365 61 282 38 349 c 0
EndSplineSet
EndChar
StartChar: braceleft
Encoding: 123 123 123
Width: 540
Flags: W
LayerCount: 2
Fore
SplineSet
496 1443 m 0
 484 1366 324 1422 294 1357 c 0
 264 1293 282 1222 300 1156 c 0
 321 1076 353 994 333 909 c 0
 317 839 270 776 204 720 c 1
 238 702 301 658 309 598 c 0
 317 536 302 464 296 394 c 0
 292 331 294 270 324 217 c 0
 361 151 513 222 510 106 c 0
 508 6 289 -1 214 83 c 0
 102 209 152 379 158 532 c 0
 160 598 24 594 17 695 c 0
 10 790 142 846 161 938 c 0
 180 1033 85 1218 114 1369 c 0
 130 1458 167 1522 293 1546 c 0
 395 1566 512 1545 496 1443 c 0
EndSplineSet
EndChar
StartChar: bar
Encoding: 124 124 124
Width: 253
Flags: W
LayerCount: 2
Fore
SplineSet
128 1553 m 0
 219 1560 204 1216 211 1046 c 0
 221 818 222 657 221 453 c 0
 220 311 207 38 112 40 c 0
 21 42 59 299 60 414 c 0
 62 636 63 827 50 1050 c 0
 40 1219 33 1546 128 1553 c 0
EndSplineSet
EndChar
StartChar: braceright
Encoding: 125 125 125
Width: 534
Flags: W
LayerCount: 2
Fore
SplineSet
34 131 m 0
 46 208 205 152 235 217 c 0
 265 281 247 351 229 417 c 0
 208 497 176 580 196 665 c 0
 212 735 259 798 325 854 c 1
 291 872 229 916 221 976 c 0
 213 1038 227 1109 233 1179 c 0
 237 1242 235 1303 205 1356 c 0
 168 1422 16 1352 19 1468 c 0
 21 1568 240 1575 315 1491 c 0
 427 1365 377 1195 371 1042 c 0
 369 976 506 980 513 879 c 0
 520 784 387 728 368 636 c 0
 349 541 444 356 415 205 c 0
 399 116 362 52 236 28 c 0
 134 8 18 29 34 131 c 0
EndSplineSet
EndChar
StartChar: asciitilde
Encoding: 126 126 126
Width: 1011
Flags: W
LayerCount: 2
Fore
SplineSet
56 446 m 4
 135 381 222 581 329 601 c 4
 429 620 566 490 688 507 c 4
 781 520 841 574 895 632 c 4
 966 708 1016 796 948 836 c 4
 881 875 764 694 668 686 c 4
 588 679 447 812 313 783 c 4
 216 762 188 733 134 678 c 4
 63 606 -5 496 56 446 c 4
EndSplineSet
EndChar
StartChar: exclamdown
Encoding: 161 161 161
Width: 276
Flags: W
LayerCount: 2
Fore
SplineSet
194 -787 m 4
 113 -801 111 -650 100 -503 c 4
 96 -448 74 -273 64 -175 c 4
 51 -46 47 77 105 86 c 4
 167 96 192 -17 207 -146 c 4
 217 -235 237 -413 243 -467 c 4
 258 -608 278 -772 194 -787 c 4
169 624 m 4
 277 525 105 409 43 467 c 4
 -43 547 99 688 169 624 c 4
EndSplineSet
EndChar
StartChar: cent
Encoding: 162 162 162
Width: 978
Flags: W
LayerCount: 2
Fore
SplineSet
644 839 m 0
 604 802 532 849 498 838 c 0
 427 814 408 759 372 693 c 0
 325 605 308 452 357 391 c 0
 409 328 530 396 583 443 c 0
 659 511 780 677 840 608 c 0
 920 517 703 298 546 233 c 0
 438 188 288 183 226 267 c 0
 172 341 160 480 186 609 c 0
 206 709 253 801 293 866 c 0
 351 960 439 1002 549 999 c 0
 623 997 698 890 644 839 c 0
410 1624 m 4
 497 1634 507 1271 526 1066 c 4
 552 788 593 520 602 223 c 4
 609 -4 629 -376 524 -373 c 4
 427 -370 456 18 454 217 c 4
 451 477 416 779 392 1049 c 4
 375 1240 297 1611 410 1624 c 4
EndSplineSet
EndChar
StartChar: sterling
Encoding: 163 163 163
Width: 1009
Flags: W
LayerCount: 2
Fore
SplineSet
744 1325 m 0
 684 1265 559 1429 495 1400 c 0
 409 1361 221 1242 221 1122 c 0
 221 987 336 935 399 816 c 0
 434 750 451 635 446 561 c 0
 436 414 330 188 229 80 c 0
 157 3 78 40 61 124 c 0
 46 198 144 277 200 371 c 0
 245 447 277 531 268 622 c 0
 260 706 212 760 162 826 c 0
 110 895 30 1005 51 1145 c 0
 69 1266 220 1446 345 1516 c 0
 459 1580 587 1608 677 1517 c 0
 736 1458 803 1384 744 1325 c 0
261 236 m 0
 209 308 303 445 391 456 c 0
 468 466 528 422 576 386 c 0
 655 327 729 261 783 264 c 0
 861 269 874 441 945 409 c 0
 1041 366 970 126 848 84 c 0
 744 48 610 137 554 178 c 0
 488 227 441 277 377 261 c 0
 338 251 284 204 261 236 c 0
34 514 m 0
 -39 617 179 790 319 841 c 0
 449 888 780 951 776 813 c 0
 773 703 505 722 377 672 c 0
 274 632 98 424 34 514 c 0
EndSplineSet
EndChar
StartChar: currency
Encoding: 164 164 164
Width: 973
Flags: W
LayerCount: 2
Fore
SplineSet
490 1251 m 0
 640 1253 842 1110 834 774 c 0
 828 526 666 302 428 311 c 0
 227 319 98 557 126 795 c 0
 153 1019 301 1248 490 1251 c 0
501 1066 m 0
 406 1066 309 917 294 787 c 0
 278 653 335 492 449 489 c 0
 550 486 651 640 664 780 c 0
 680 951 593 1066 501 1066 c 0
125 1420 m 0
 202 1462 262 1329 303 1252 c 0
 350 1164 424 1022 336 975 c 0
 261 935 204 1053 163 1127 c 0
 114 1217 35 1371 125 1420 c 0
39 131 m 0
 -30 185 68 293 123 361 c 0
 186 439 290 576 368 513 c 0
 434 460 345 349 293 282 c 0
 230 201 120 68 39 131 c 0
863 98 m 0
 797 41 710 157 653 224 c 0
 588 300 468 439 544 504 c 0
 608 559 708 440 763 376 c 0
 830 298 941 165 863 98 c 0
931 1398 m 0
 999 1343 899 1237 844 1169 c 0
 780 1091 689 964 611 1027 c 0
 546 1081 622 1184 675 1250 c 0
 739 1330 851 1462 931 1398 c 0
EndSplineSet
EndChar
StartChar: yen
Encoding: 165 165 165
Width: 851
Flags: W
LayerCount: 2
Fore
SplineSet
83 1334 m 0
 177 1351 163 1106 182 1003 c 0
 198 918 287 717 354 717 c 0
 419 717 501 845 566 991 c 0
 620 1113 684 1368 799 1313 c 0
 879 1275 757 1060 711 939 c 0
 655 791 556 551 386 538 c 0
 248 528 107 711 61 841 c 0
 7 991 -15 1316 83 1334 c 0
792 1326 m 0
 895 1285 732 993 691 846 c 0
 632 633 532 249 476 48 c 0
 439 -87 413 -352 296 -324 c 0
 174 -295 274 -65 315 88 c 0
 372 304 476 672 533 882 c 0
 575 1036 682 1369 792 1326 c 0
69 340 m 0
 34 461 271 507 394 531 c 0
 528 557 814 591 811 476 c 0
 809 369 547 397 413 373 c 0
 299 353 93 258 69 340 c 0
66 97 m 0
 31 218 268 264 391 288 c 0
 525 314 811 347 808 232 c 0
 806 125 544 154 410 130 c 0
 296 110 90 15 66 97 c 0
EndSplineSet
EndChar
StartChar: brokenbar
Encoding: 166 166 166
Width: 244
Flags: W
LayerCount: 2
Fore
SplineSet
140 1613 m 0
 250 1613 208 1346 204 1208 c 0
 201 1092 227 875 111 873 c 0
 7 871 44 1113 45 1217 c 0
 47 1377 49 1613 140 1613 c 0
116 747 m 0
 226 751 195 510 197 372 c 0
 199 256 234 39 118 33 c 0
 14 27 41 270 38 374 c 0
 33 534 25 743 116 747 c 0
EndSplineSet
EndChar
StartChar: section
Encoding: 167 167 167
Width: 911
Flags: W
LayerCount: 2
Fore
SplineSet
783 1558 m 0
 782 1481 636 1481 572 1464 c 0
 496 1443 376 1404 382 1348 c 0
 386 1306 497 1284 601 1242 c 0
 778 1170 884 1117 892 966 c 0
 898 848 805 738 697 662 c 0
 627 612 435 545 418 629 c 4
 396 735 722 831 721 941 c 0
 720 1045 540 1079 451 1115 c 0
 331 1163 205 1206 195 1302 c 0
 180 1450 335 1572 478 1616 c 0
 569 1644 784 1663 783 1558 c 0
480 1167 m 0
 532 1118 413 1021 361 976 c 0
 299 923 244 836 262 783 c 0
 285 713 492 693 593 650 c 0
 757 580 840 496 847 374 c 0
 855 227 803 117 583 54 c 0
 455 17 171 22 182 147 c 0
 189 233 394 201 478 216 c 0
 574 233 678 261 670 350 c 0
 660 459 492 501 382 533 c 0
 269 566 114 606 87 721 c 0
 58 845 134 998 218 1064 c 0
 291 1122 413 1231 480 1167 c 0
EndSplineSet
EndChar
StartChar: dieresis
Encoding: 168 168 168
Width: 505
Flags: W
LayerCount: 2
Fore
SplineSet
70 970 m 0
 18 996 17 1082 42 1134 c 0
 63 1179 116 1246 172 1217 c 0
 239 1183 219 1098 192 1044 c 0
 170 1001 113 949 70 970 c 0
322 994 m 4
 270 1020 269 1105 294 1157 c 4
 315 1202 368 1269 424 1240 c 4
 491 1206 470 1121 443 1067 c 4
 421 1024 365 973 322 994 c 4
EndSplineSet
EndChar
StartChar: copyright
Encoding: 169 169 169
Width: 1463
Flags: W
LayerCount: 2
Fore
SplineSet
1164 369 m 4
 1248 287 939 76 746 52 c 4
 511 23 312 105 173 297 c 4
 75 433 24 615 43 826 c 4
 63 1040 165 1242 303 1392 c 4
 443 1544 613 1649 839 1629 c 4
 1093 1606 1283 1409 1375 1186 c 4
 1437 1034 1459 813 1394 662 c 4
 1330 513 1097 268 1055 321 c 4
 975 423 1245 554 1276 777 c 4
 1299 944 1275 1124 1174 1259 c 4
 1078 1386 947 1495 758 1483 c 4
 579 1471 369 1294 283 1136 c 4
 164 918 161 655 257 459 c 4
 357 254 487 203 671 197 c 4
 966 188 1083 448 1164 369 c 4
890 1039 m 0
 860 973 742 1056 682 1016 c 0
 621 976 579 921 560 825 c 0
 543 740 593 613 739 644 c 0
 891 676 1020 905 1095 848 c 0
 1179 785 1000 630 918 565 c 0
 808 477 678 460 556 530 c 0
 445 594 396 727 423 852 c 0
 452 988 551 1154 690 1167 c 0
 831 1180 925 1115 890 1039 c 0
EndSplineSet
EndChar
StartChar: ordfeminine
Encoding: 170 170 170
Width: 750
Flags: W
LayerCount: 2
Fore
SplineSet
511 1475 m 0
 487 1425 384 1464 340 1428 c 0
 276 1375 168 1135 210 1110 c 0
 238 1094 316 1218 352 1284 c 0
 400 1371 466 1521 538 1480 c 0
 606 1442 515 1241 456 1136 c 0
 383 1006 258 867 129 943 c 0
 9 1014 41 1194 95 1322 c 0
 143 1435 243 1594 366 1599 c 0
 430 1602 539 1532 511 1475 c 0
513 1483 m 0
 599 1482 541 1317 578 1239 c 0
 624 1143 748 1142 714 1047 c 0
 688 974 548 1025 489 1075 c 0
 446 1112 421 1198 421 1255 c 0
 421 1338 430 1484 513 1483 c 0
EndSplineSet
EndChar
StartChar: guillemotleft
Encoding: 171 171 171
Width: 813
Flags: W
LayerCount: 2
Fore
SplineSet
520 915 m 4
 457 992 315 839 231 774 c 4
 118 687 37 645 36 568 c 4
 35 504 149 417 240 334 c 4
 331 250 470 41 548 137 c 4
 595 195 462 332 394 401 c 4
 333 463 289 499 222 568 c 5
 286 622 331 664 380 705 c 4
 460 772 579 843 520 915 c 4
757 820 m 4
 705 871 612 786 557 741 c 4
 491 687 360 612 369 544 c 4
 376 491 491 417 548 362 c 4
 621 292 719 169 777 234 c 4
 840 304 685 449 554 550 c 5
 666 626 835 742 757 820 c 4
EndSplineSet
EndChar
StartChar: logicalnot
Encoding: 172 172 172
Width: 1102
Flags: W
LayerCount: 2
Fore
SplineSet
28 683 m 4
 35 821 356 773 524 797 c 4
 705 823 1056 961 1068 812 c 4
 1077 699 722 650 535 625 c 4
 362 602 22 562 28 683 c 4
1003 867 m 4
 1101 861 1057 714 1056 554 c 4
 1055 393 1125 229 1011 205 c 4
 907 183 902 407 898 514 c 4
 894 629 888 874 1003 867 c 4
EndSplineSet
EndChar
StartChar: uni00AD
Encoding: 173 173 173
Width: 707
Flags: W
LayerCount: 2
Fore
SplineSet
17 450 m 4
 11 550 229 567 348 574 c 4
 504 583 693 586 689 479 c 4
 685 380 491 399 371 391 c 4
 242 382 23 334 17 450 c 4
EndSplineSet
EndChar
StartChar: registered
Encoding: 174 174 174
Width: 1461
Flags: W
LayerCount: 2
Fore
SplineSet
1164 369 m 0
 1248 287 939 76 746 52 c 0
 511 23 312 105 173 297 c 0
 75 433 24 615 43 826 c 0
 63 1040 165 1242 303 1392 c 0
 443 1544 613 1649 839 1629 c 0
 1093 1606 1283 1409 1375 1186 c 0
 1437 1034 1459 813 1394 662 c 0
 1330 513 1097 268 1055 321 c 0
 975 423 1245 554 1276 777 c 0
 1299 944 1275 1124 1174 1259 c 0
 1078 1386 947 1495 758 1483 c 0
 579 1471 369 1294 283 1136 c 0
 164 918 161 655 257 459 c 0
 357 254 487 203 671 197 c 0
 966 188 1083 448 1164 369 c 0
526 1145 m 0
 604 1154 612 909 607 808 c 0
 601 682 562 439 480 457 c 0
 399 474 483 698 492 818 c 0
 499 922 446 1135 526 1145 c 0
545 954 m 0
 501 994 551 1119 622 1186 c 0
 677 1237 725 1260 814 1240 c 0
 914 1218 966 1128 972 1008 c 0
 978 880 884 797 813 753 c 0
 762 721 658 657 638 713 c 0
 614 781 750 830 822 926 c 0
 878 1001 847 1090 803 1113 c 0
 745 1144 705 1114 668 1069 c 0
 613 1002 572 930 545 954 c 0
669 756 m 0
 701 816 812 755 863 710 c 0
 925 654 1033 556 966 498 c 0
 917 456 846 559 801 605 c 0
 754 653 638 696 669 756 c 0
EndSplineSet
EndChar
StartChar: macron
Encoding: 175 175 175
Width: 751
Flags: W
LayerCount: 2
Fore
SplineSet
335 1261 m 4
 451 1289 658 1305 651 1195 c 4
 646 1114 509 1141 355 1109 c 4
 258 1089 96 1039 73 1109 c 4
 41 1203 238 1238 335 1261 c 4
EndSplineSet
EndChar
StartChar: degree
Encoding: 176 176 176
Width: 386
Flags: W
LayerCount: 2
Fore
SplineSet
108 1200 m 4
 2 1250 -11 1367 30 1447 c 4
 81 1546 192 1600 276 1554 c 4
 368 1504 396 1403 346 1303 c 4
 298 1207 197 1158 108 1200 c 4
221 1444 m 4
 174 1463 135 1444 117 1406 c 4
 97 1364 113 1322 147 1308 c 4
 190 1290 228 1310 249 1345 c 4
 274 1387 256 1430 221 1444 c 4
EndSplineSet
EndChar
StartChar: plusminus
Encoding: 177 177 177
Width: 836
Flags: W
LayerCount: 2
Fore
SplineSet
98 37 m 4
 90 137 312 146 431 153 c 4
 587 162 778 173 770 66 c 4
 764 -10 562 12 442 4 c 4
 313 -5 104 -47 98 37 c 4
32 502 m 0
 32 592 250 589 368 593 c 0
 518 598 804 610 802 516 c 0
 800 421 527 448 389 445 c 0
 259 442 32 402 32 502 c 0
427 891 m 0
 508 888 502 626 510 490 c 0
 518 361 516 108 434 96 c 0
 328 81 364 339 354 466 c 0
 343 609 331 895 427 891 c 0
EndSplineSet
EndChar
StartChar: uni00B2
Encoding: 178 178 178
Width: 633
Flags: W
LayerCount: 2
Fore
SplineSet
106 1276 m 0
 60 1247 -13 1289 16 1366 c 0
 49 1456 102 1503 204 1554 c 0
 280 1592 385 1593 442 1529 c 0
 491 1474 448 1342 425 1272 c 0
 394 1176 339 1068 312 1007 c 1
 367 1036 481 1135 535 1151 c 0
 604 1171 641 1074 586 1018 c 0
 529 960 357 847 277 858 c 0
 189 870 124 926 155 1009 c 0
 176 1064 217 1144 247 1217 c 0
 275 1284 329 1382 317 1415 c 0
 305 1447 238 1427 198 1383 c 0
 161 1343 170 1316 106 1276 c 0
EndSplineSet
EndChar
StartChar: uni00B3
Encoding: 179 179 179
Width: 561
Flags: W
LayerCount: 2
Fore
SplineSet
30 1401 m 0
 41 1481 92 1525 171 1566 c 0
 226 1594 330 1607 383 1575 c 0
 442 1540 456 1464 445 1396 c 0
 435 1334 396 1267 337 1207 c 1
 409 1209 470 1212 509 1163 c 0
 556 1103 533 1012 486 952 c 0
 420 868 301 810 199 840 c 0
 124 862 26 985 92 1027 c 0
 153 1065 197 961 266 970 c 0
 314 976 393 1033 391 1064 c 0
 388 1102 248 1057 195 1101 c 0
 166 1125 173 1180 191 1213 c 0
 221 1267 278 1331 310 1383 c 0
 334 1423 320 1474 279 1470 c 0
 235 1466 177 1441 139 1382 c 0
 89 1304 23 1349 30 1401 c 0
EndSplineSet
EndChar
StartChar: acute
Encoding: 180 180 180
Width: 384
Flags: W
LayerCount: 2
Fore
SplineSet
327 1384 m 4
 258 1448 173 1321 120 1242 c 4
 58 1149 -23 1008 49 968 c 4
 110 934 162 1054 213 1133 c 4
 270 1221 384 1331 327 1384 c 4
EndSplineSet
EndChar
StartChar: mu
Encoding: 181 181 181
Width: 751
Flags: W
LayerCount: 2
Fore
SplineSet
211 795 m 0
 287 789 258 598 247 493 c 0
 239 421 240 287 296 282 c 0
 362 276 414 343 470 463 c 0
 532 597 562 882 641 879 c 0
 765 875 676 555 617 410 c 0
 559 266 454 97 299 107 c 0
 161 116 97 253 99 383 c 0
 102 532 98 805 211 795 c 0
647 874 m 0
 753 867 686 630 699 459 c 0
 711 303 767 75 687 48 c 0
 578 12 550 300 540 438 c 0
 530 575 558 880 647 874 c 0
219 808 m 0
 326 795 229 429 218 224 c 0
 211 90 202 -39 196 -173 c 0
 190 -306 182 -604 95 -596 c 0
 -23 -585 29 -287 38 -118 c 0
 46 37 54 183 72 352 c 0
 89 511 92 823 219 808 c 0
EndSplineSet
EndChar
StartChar: paragraph
Encoding: 182 182 182
Width: 1109
Flags: W
LayerCount: 2
Fore
SplineSet
405 471 m 0
 294 500 222 569 167 630 c 0
 89 717 62 847 70 945 c 0
 79 1055 173 1181 255 1258 c 0
 364 1361 515 1424 658 1433 c 0
 727 1437 807 1430 874 1402 c 0
 963 1365 1030 1299 1012 1254 c 0
 983 1180 858 1222 782 1252 c 0
 722 1276 634 1265 571 1248 c 1
 553 617 l 1
 619 618 707 627 800 663 c 0
 912 707 1017 769 1047 694 c 0
 1074 626 922 528 787 482 c 0
 645 434 514 443 405 471 c 0
844 1572 m 0
 956 1576 927 1252 922 1080 c 0
 918 923 914 755 913 601 c 0
 912 417 919 4 823 8 c 0
 723 12 744 410 744 581 c 4
 744 722 743 925 749 1081 c 4
 756 1277 738 1568 844 1572 c 0
524 1585 m 0
 621 1585 584 1279 580 1088 c 0
 577 952 569 763 564 610 c 0
 558 426 573 25 473 19 c 0
 362 12 384 429 389 584 c 0
 394 725 399 935 405 1091 c 0
 412 1287 399 1585 524 1585 c 0
EndSplineSet
EndChar
StartChar: periodcentered
Encoding: 183 183 183
Width: 177
Flags: W
LayerCount: 2
Fore
SplineSet
45 578 m 4
 14 588 4 640 16 686 c 4
 28 733 63 774 120 762 c 4
 159 754 173 693 159 642 c 4
 146 595 109 556 45 578 c 4
EndSplineSet
EndChar
StartChar: cedilla
Encoding: 184 184 184
Width: 751
Flags: W
LayerCount: 2
Fore
SplineSet
318 25 m 4
 347 25 369 2 368 -33 c 4
 367 -60 364 -83 375 -86 c 4
 403 -93 444 -121 463 -143 c 4
 491 -175 506 -230 480 -297 c 4
 462 -344 408 -391 346 -415 c 4
 294 -435 246 -432 233 -398 c 4
 216 -354 266 -339 308 -312 c 4
 339 -292 360 -272 360 -247 c 4
 360 -219 336 -205 305 -193 c 4
 273 -181 236 -172 237 -124 c 4
 238 -92 242 -60 252 -31 c 4
 264 5 289 25 318 25 c 4
EndSplineSet
EndChar
StartChar: uni00B9
Encoding: 185 185 185
Width: 245
Flags: W
LayerCount: 2
Fore
SplineSet
106 1483 m 4
 189 1488 189 1266 194 1183 c 4
 201 1066 217 909 119 898 c 4
 28 888 55 1073 51 1165 c 4
 47 1273 -1 1476 106 1483 c 4
EndSplineSet
EndChar
StartChar: ordmasculine
Encoding: 186 186 186
Width: 639
Flags: W
LayerCount: 2
Fore
SplineSet
340 1598 m 0
 478 1594 604 1419 602 1260 c 0
 599 1069 482 877 282 883 c 0
 97 889 -3 1076 25 1253 c 0
 57 1455 184 1602 340 1598 c 0
329 1431 m 0
 261 1436 188 1338 179 1236 c 0
 172 1156 221 1061 292 1058 c 0
 374 1055 431 1153 439 1240 c 0
 447 1332 386 1427 329 1431 c 0
EndSplineSet
EndChar
StartChar: guillemotright
Encoding: 187 187 187
Width: 813
Flags: W
LayerCount: 2
Fore
SplineSet
292 915 m 0
 355 992 497 839 581 774 c 0
 694 687 776 645 777 568 c 0
 778 504 663 417 572 334 c 0
 481 250 342 41 264 137 c 0
 217 195 350 332 418 401 c 0
 479 463 523 499 590 568 c 1
 526 622 481 664 432 705 c 0
 352 772 233 843 292 915 c 0
55 820 m 0
 107 871 200 786 255 741 c 0
 321 687 452 612 443 544 c 0
 436 491 321 417 264 362 c 0
 191 292 94 169 36 234 c 0
 -27 304 127 449 258 550 c 1
 146 626 -23 742 55 820 c 0
EndSplineSet
EndChar
StartChar: onequarter
Encoding: 188 188 188
Width: 1301
Flags: W
LayerCount: 2
Fore
SplineSet
974 878 m 0
 1034 847 944 681 920 596 c 0
 901 528 882 403 906 387 c 0
 947 360 997 395 1040 424 c 0
 1109 470 1209 538 1249 478 c 0
 1292 413 1164 350 1101 304 c 0
 1028 251 924 196 845 240 c 0
 757 288 757 457 785 593 c 0
 808 706 886 922 974 878 c 0
1076 618 m 0
 1157 627 1153 428 1162 330 c 0
 1171 227 1209 48 1131 40 c 0
 1063 33 1046 219 1038 321 c 0
 1030 420 1000 609 1076 618 c 0
154 1483 m 4
 237 1488 237 1266 242 1183 c 4
 249 1066 265 909 167 898 c 4
 76 888 103 1073 99 1165 c 4
 95 1273 47 1476 154 1483 c 4
66 86 m 0
 -16 154 186 361 317 569 c 0
 391 686 544 930 665 1115 c 0
 786 1301 842 1454 921 1410 c 0
 1011 1360 901 1225 778 1021 c 0
 667 836 513 596 440 484 c 0
 306 277 139 26 66 86 c 0
EndSplineSet
EndChar
StartChar: onehalf
Encoding: 189 189 189
Width: 1301
Flags: W
LayerCount: 2
Fore
SplineSet
154 1483 m 0
 237 1488 237 1266 242 1183 c 0
 249 1066 265 909 167 898 c 0
 76 888 103 1073 99 1165 c 0
 95 1273 47 1476 154 1483 c 0
66 86 m 0
 -16 154 186 361 317 569 c 0
 391 686 544 930 665 1115 c 0
 786 1301 842 1454 921 1410 c 0
 1011 1360 901 1225 778 1021 c 0
 667 836 513 596 440 484 c 0
 306 277 139 26 66 86 c 0
753 442 m 4
 707 413 634 455 663 532 c 4
 696 622 749 669 851 720 c 4
 927 758 1032 759 1089 695 c 4
 1138 640 1095 508 1072 438 c 4
 1041 342 986 234 959 173 c 5
 1014 202 1128 301 1182 317 c 4
 1251 337 1288 240 1233 184 c 4
 1176 126 1004 13 924 24 c 4
 836 36 771 92 802 175 c 4
 823 230 864 310 894 383 c 4
 922 450 976 548 964 581 c 4
 952 613 885 593 845 549 c 4
 808 509 817 482 753 442 c 4
EndSplineSet
EndChar
StartChar: threequarters
Encoding: 190 190 190
Width: 1453
Flags: W
LayerCount: 2
Fore
SplineSet
74 1353 m 0
 85 1433 136 1477 215 1518 c 0
 270 1546 374 1559 427 1527 c 0
 486 1492 500 1416 489 1348 c 0
 479 1286 440 1219 381 1159 c 1
 453 1161 514 1164 553 1115 c 0
 600 1055 577 964 530 904 c 0
 464 820 345 762 243 792 c 0
 168 814 70 937 136 979 c 0
 197 1017 241 913 310 922 c 0
 358 928 437 985 435 1016 c 0
 432 1054 292 1009 239 1053 c 0
 210 1077 217 1132 235 1165 c 0
 265 1219 322 1283 354 1335 c 0
 378 1375 364 1426 323 1422 c 0
 279 1418 221 1393 183 1334 c 0
 133 1256 67 1301 74 1353 c 0
1082 878 m 0
 1142 847 1052 681 1028 596 c 0
 1009 528 990 403 1014 387 c 0
 1055 360 1105 395 1148 424 c 0
 1217 470 1317 538 1357 478 c 0
 1400 413 1272 350 1209 304 c 0
 1136 251 1032 196 953 240 c 0
 865 288 865 457 893 593 c 0
 916 706 994 922 1082 878 c 0
1184 618 m 0
 1265 627 1261 428 1270 330 c 0
 1279 227 1317 48 1239 40 c 0
 1171 33 1154 219 1146 321 c 0
 1138 420 1108 609 1184 618 c 0
222 86 m 0
 140 154 342 361 473 569 c 0
 547 686 700 930 821 1115 c 0
 942 1301 998 1454 1077 1410 c 0
 1167 1360 1057 1225 934 1021 c 0
 823 836 669 596 596 484 c 0
 462 277 295 26 222 86 c 0
EndSplineSet
EndChar
StartChar: questiondown
Encoding: 191 191 191
Width: 751
Flags: W
LayerCount: 2
Fore
SplineSet
632 -372 m 4
 714 -384 748 -603 490 -708 c 4
 346 -766 51 -770 25 -568 c 4
 -2 -348 390 -138 406 21 c 4
 415 109 236 213 296 282 c 4
 360 356 588 194 554 0 c 4
 516 -212 166 -431 184 -537 c 4
 199 -623 402 -589 496 -537 c 4
 554 -503 544 -358 632 -372 c 4
319 716 m 4
 405 740 510 565 384 525 c 4
 310 501 184 678 319 716 c 4
EndSplineSet
EndChar
StartChar: Agrave
Encoding: 192 192 192
Width: 1011
Flags: W
LayerCount: 2
Fore
SplineSet
283 2021 m 0
 352 2085 437 1958 490 1879 c 0
 552 1786 633 1645 561 1605 c 0
 500 1571 448 1691 397 1770 c 0
 340 1858 226 1968 283 2021 c 0
74 125 m 4
 -11 137 59 690 150 942 c 4
 233 1170 370 1471 540 1480 c 4
 756 1491 877 1178 907 963 c 4
 953 638 1030 84 902 73 c 4
 789 63 800 636 763 869 c 4
 732 1065 668 1310 546 1295 c 4
 457 1284 351 1043 300 873 c 4
 227 627 209 106 74 125 c 4
125 984 m 4
 242 1007 247 717 242 574 c 4
 237 416 205 108 84 124 c 4
 -33 139 83 386 89 517 c 4
 96 673 32 966 125 984 c 4
216 475 m 4
 166 591 350 660 508 682 c 4
 644 701 873 661 835 562 c 4
 804 480 618 527 518 510 c 4
 421 494 258 378 216 475 c 4
EndSplineSet
EndChar
StartChar: Aacute
Encoding: 193 193 193
Width: 1011
Flags: W
LayerCount: 2
Fore
SplineSet
805 2044 m 4
 736 2108 651 1981 598 1902 c 4
 536 1809 455 1668 527 1628 c 4
 588 1594 640 1714 691 1793 c 4
 748 1881 862 1991 805 2044 c 4
74 125 m 0
 -11 137 59 690 150 942 c 0
 233 1170 370 1471 540 1480 c 0
 756 1491 877 1178 907 963 c 0
 953 638 1030 84 902 73 c 0
 789 63 800 636 763 869 c 0
 732 1065 668 1310 546 1295 c 0
 457 1284 351 1043 300 873 c 0
 227 627 209 106 74 125 c 0
125 984 m 0
 242 1007 247 717 242 574 c 0
 237 416 205 108 84 124 c 0
 -33 139 83 386 89 517 c 0
 96 673 32 966 125 984 c 0
216 475 m 0
 166 591 350 660 508 682 c 0
 644 701 873 661 835 562 c 0
 804 480 618 527 518 510 c 0
 421 494 258 378 216 475 c 0
EndSplineSet
EndChar
StartChar: Acircumflex
Encoding: 194 194 194
Width: 1011
Flags: W
LayerCount: 2
Fore
SplineSet
705 1594 m 4
 652 1556 572 1658 538 1713 c 4
 501 1774 443 1891 506 1924 c 4
 555 1950 605 1852 635 1805 c 4
 675 1742 765 1637 705 1594 c 4
536 1928 m 4
 602 1899 536 1763 506 1697 c 4
 472 1621 408 1495 343 1547 c 4
 290 1589 369 1703 399 1767 c 4
 432 1838 485 1950 536 1928 c 4
74 125 m 0
 -11 137 59 690 150 942 c 0
 233 1170 370 1471 540 1480 c 0
 756 1491 877 1178 907 963 c 0
 953 638 1030 84 902 73 c 0
 789 63 800 636 763 869 c 0
 732 1065 668 1310 546 1295 c 0
 457 1284 351 1043 300 873 c 0
 227 627 209 106 74 125 c 0
125 984 m 0
 242 1007 247 717 242 574 c 0
 237 416 205 108 84 124 c 0
 -33 139 83 386 89 517 c 0
 96 673 32 966 125 984 c 0
216 475 m 0
 166 591 350 660 508 682 c 0
 644 701 873 661 835 562 c 0
 804 480 618 527 518 510 c 0
 421 494 258 378 216 475 c 0
EndSplineSet
EndChar
StartChar: Atilde
Encoding: 195 195 195
Width: 1011
Flags: W
LayerCount: 2
Fore
SplineSet
231 1660 m 0
 302 1587 348 1765 442 1778 c 0
 524 1789 560 1720 657 1733 c 0
 749 1745 910 1904 835 1970 c 0
 777 2021 695 1889 634 1888 c 0
 554 1886 521 1957 409 1929 c 0
 284 1898 170 1723 231 1660 c 0
74 125 m 0
 -11 137 59 690 150 942 c 0
 233 1170 370 1471 540 1480 c 0
 756 1491 877 1178 907 963 c 0
 953 638 1030 84 902 73 c 0
 789 63 800 636 763 869 c 0
 732 1065 668 1310 546 1295 c 0
 457 1284 351 1043 300 873 c 0
 227 627 209 106 74 125 c 0
125 984 m 0
 242 1007 247 717 242 574 c 0
 237 416 205 108 84 124 c 0
 -33 139 83 386 89 517 c 0
 96 673 32 966 125 984 c 0
216 475 m 0
 166 591 350 660 508 682 c 0
 644 701 873 661 835 562 c 0
 804 480 618 527 518 510 c 0
 421 494 258 378 216 475 c 0
EndSplineSet
EndChar
StartChar: Adieresis
Encoding: 196 196 196
Width: 1011
Flags: W
LayerCount: 2
Fore
SplineSet
377 1612 m 4
 325 1638 324 1724 349 1776 c 4
 370 1821 423 1888 479 1859 c 4
 546 1825 526 1740 499 1686 c 4
 477 1643 420 1591 377 1612 c 4
629 1636 m 4
 577 1662 576 1747 601 1799 c 4
 622 1844 675 1911 731 1882 c 4
 798 1848 777 1763 750 1709 c 4
 728 1666 672 1615 629 1636 c 4
74 125 m 0
 -11 137 59 690 150 942 c 0
 233 1170 370 1471 540 1480 c 0
 756 1491 877 1178 907 963 c 0
 953 638 1030 84 902 73 c 0
 789 63 800 636 763 869 c 0
 732 1065 668 1310 546 1295 c 0
 457 1284 351 1043 300 873 c 0
 227 627 209 106 74 125 c 0
125 984 m 0
 242 1007 247 717 242 574 c 0
 237 416 205 108 84 124 c 0
 -33 139 83 386 89 517 c 0
 96 673 32 966 125 984 c 0
216 475 m 0
 166 591 350 660 508 682 c 0
 644 701 873 661 835 562 c 0
 804 480 618 527 518 510 c 0
 421 494 258 378 216 475 c 0
EndSplineSet
EndChar
StartChar: Aring
Encoding: 197 197 197
Width: 1011
Flags: W
LayerCount: 2
Fore
SplineSet
463 1560 m 4
 357 1610 344 1727 385 1807 c 4
 436 1906 547 1960 631 1914 c 4
 723 1864 751 1763 701 1663 c 4
 653 1567 552 1518 463 1560 c 4
576 1804 m 4
 529 1823 490 1804 472 1766 c 4
 452 1724 468 1682 502 1668 c 4
 545 1650 583 1670 604 1705 c 4
 629 1747 611 1790 576 1804 c 4
74 125 m 0
 -11 137 59 690 150 942 c 0
 233 1170 370 1471 540 1480 c 0
 756 1491 877 1178 907 963 c 0
 953 638 1030 84 902 73 c 0
 789 63 800 636 763 869 c 0
 732 1065 668 1310 546 1295 c 0
 457 1284 351 1043 300 873 c 0
 227 627 209 106 74 125 c 0
125 984 m 0
 242 1007 247 717 242 574 c 0
 237 416 205 108 84 124 c 0
 -33 139 83 386 89 517 c 0
 96 673 32 966 125 984 c 0
216 475 m 0
 166 591 350 660 508 682 c 0
 644 701 873 661 835 562 c 0
 804 480 618 527 518 510 c 0
 421 494 258 378 216 475 c 0
EndSplineSet
EndChar
StartChar: AE
Encoding: 198 198 198
Width: 1649
Flags: W
LayerCount: 2
Fore
SplineSet
905 1456 m 0
 969 1360 705 1250 544 967 c 0
 456 812 382 676 305 505 c 0
 243 367 184 71 63 112 c 0
 -56 153 105 447 175 611 c 0
 248 782 352 962 469 1137 c 0
 561 1275 818 1587 905 1456 c 0
897 1464 m 0
 979 1456 947 1355 943 1242 c 0
 939 1132 932 985 926 873 c 0
 921 768 905 489 937 404 c 0
 969 319 1006 292 1078 286 c 0
 1164 279 1229 292 1300 320 c 0
 1384 354 1514 463 1558 395 c 0
 1614 308 1477 228 1395 179 c 0
 1281 111 1139 87 1019 112 c 0
 918 133 844 185 799 278 c 0
 732 415 758 825 769 977 c 0
 782 1154 780 1475 897 1464 c 0
807 1328 m 0
 794 1437 1048 1481 1181 1498 c 0
 1323 1516 1619 1566 1617 1437 c 0
 1615 1333 1371 1351 1191 1324 c 0
 1025 1299 819 1223 807 1328 c 0
351 614 m 0
 322 715 516 757 617 785 c 0
 738 819 1087 891 1209 910 c 0
 1311 926 1501 959 1499 855 c 0
 1497 754 1357 762 1183 734 c 0
 1057 714 789 668 636 622 c 0
 553 597 376 530 351 614 c 0
EndSplineSet
EndChar
StartChar: Ccedilla
Encoding: 199 199 199
Width: 1080
Flags: W
LayerCount: 2
Fore
SplineSet
489 33 m 4
 518 33 540 10 539 -25 c 4
 538 -52 535 -75 546 -78 c 4
 574 -85 615 -113 634 -135 c 4
 662 -167 677 -222 651 -289 c 4
 633 -336 579 -383 517 -407 c 4
 465 -427 417 -424 404 -390 c 4
 387 -346 437 -331 479 -304 c 4
 510 -284 531 -264 531 -239 c 4
 531 -211 507 -197 476 -185 c 4
 444 -173 407 -164 408 -116 c 4
 409 -84 413 -52 423 -23 c 4
 435 13 460 33 489 33 c 4
921 1255 m 0
 872 1195 747 1327 671 1311 c 0
 547 1285 472 1197 399 1093 c 0
 288 934 224 747 205 530 c 0
 188 336 312 230 449 216 c 0
 572 203 712 278 817 393 c 0
 906 490 948 619 1046 536 c 0
 1115 478 898 162 666 69 c 0
 457 -15 235 31 109 196 c 0
 -24 369 24 640 85 850 c 0
 147 1061 263 1224 391 1345 c 0
 507 1455 655 1517 802 1454 c 0
 887 1418 980 1326 921 1255 c 0
EndSplineSet
EndChar
StartChar: Egrave
Encoding: 200 200 200
Width: 1008
Flags: W
LayerCount: 2
Fore
SplineSet
263 2020 m 4
 332 2084 417 1957 470 1878 c 4
 532 1785 613 1644 541 1604 c 4
 480 1570 428 1690 377 1769 c 4
 320 1857 206 1967 263 2020 c 4
-6 1272 m 0
 -21 1391 318 1448 488 1454 c 0
 639 1458 925 1478 918 1346 c 0
 914 1247 618 1273 478 1264 c 0
 311 1253 9 1150 -6 1272 c 0
133 1284 m 0
 255 1312 249 1098 260 965 c 0
 269 863 272 738 250 646 c 0
 230 561 211 475 239 393 c 0
 264 316 314 227 392 204 c 0
 482 178 580 202 671 217 c 0
 763 232 897 247 908 167 c 0
 922 59 719 43 595 21 c 0
 485 1 361 -2 273 46 c 0
 152 113 99 211 64 345 c 0
 36 449 56 557 80 665 c 0
 99 749 99 864 93 946 c 0
 84 1073 27 1260 133 1284 c 0
190 578 m 0
 162 686 345 748 523 768 c 0
 725 790 916 813 916 699 c 0
 916 600 690 616 547 604 c 0
 430 593 213 484 190 578 c 0
EndSplineSet
EndChar
StartChar: Eacute
Encoding: 201 201 201
Width: 1008
Flags: W
LayerCount: 2
Fore
SplineSet
747 2034 m 4
 678 2098 593 1971 540 1892 c 4
 478 1799 397 1658 469 1618 c 4
 530 1584 582 1704 633 1783 c 4
 690 1871 804 1981 747 2034 c 4
-6 1272 m 0
 -21 1391 318 1448 488 1454 c 0
 639 1458 925 1478 918 1346 c 0
 914 1247 618 1273 478 1264 c 0
 311 1253 9 1150 -6 1272 c 0
133 1284 m 0
 255 1312 249 1098 260 965 c 0
 269 863 272 738 250 646 c 0
 230 561 211 475 239 393 c 0
 264 316 314 227 392 204 c 0
 482 178 580 202 671 217 c 0
 763 232 897 247 908 167 c 0
 922 59 719 43 595 21 c 0
 485 1 361 -2 273 46 c 0
 152 113 99 211 64 345 c 0
 36 449 56 557 80 665 c 0
 99 749 99 864 93 946 c 0
 84 1073 27 1260 133 1284 c 0
190 578 m 0
 162 686 345 748 523 768 c 0
 725 790 916 813 916 699 c 0
 916 600 690 616 547 604 c 0
 430 593 213 484 190 578 c 0
EndSplineSet
EndChar
StartChar: Ecircumflex
Encoding: 202 202 202
Width: 1008
Flags: W
LayerCount: 2
Fore
SplineSet
655 1596 m 4
 602 1558 522 1660 488 1715 c 4
 451 1776 393 1893 456 1926 c 4
 505 1952 555 1854 585 1807 c 4
 625 1744 715 1639 655 1596 c 4
486 1930 m 4
 552 1901 486 1765 456 1699 c 4
 422 1623 358 1497 293 1549 c 4
 240 1591 319 1705 349 1769 c 4
 382 1840 435 1952 486 1930 c 4
-6 1272 m 0
 -21 1391 318 1448 488 1454 c 0
 639 1458 925 1478 918 1346 c 0
 914 1247 618 1273 478 1264 c 0
 311 1253 9 1150 -6 1272 c 0
133 1284 m 0
 255 1312 249 1098 260 965 c 0
 269 863 272 738 250 646 c 0
 230 561 211 475 239 393 c 0
 264 316 314 227 392 204 c 0
 482 178 580 202 671 217 c 0
 763 232 897 247 908 167 c 0
 922 59 719 43 595 21 c 0
 485 1 361 -2 273 46 c 0
 152 113 99 211 64 345 c 0
 36 449 56 557 80 665 c 0
 99 749 99 864 93 946 c 0
 84 1073 27 1260 133 1284 c 0
190 578 m 0
 162 686 345 748 523 768 c 0
 725 790 916 813 916 699 c 0
 916 600 690 616 547 604 c 0
 430 593 213 484 190 578 c 0
EndSplineSet
EndChar
StartChar: Edieresis
Encoding: 203 203 203
Width: 1008
Flags: W
LayerCount: 2
Fore
SplineSet
334 1620 m 4
 282 1646 281 1731 306 1783 c 4
 327 1828 380 1895 436 1866 c 4
 503 1832 482 1747 455 1693 c 4
 433 1650 377 1599 334 1620 c 4
586 1644 m 4
 534 1670 533 1755 558 1807 c 4
 579 1852 632 1919 688 1890 c 4
 755 1856 734 1771 707 1717 c 4
 685 1674 629 1623 586 1644 c 4
-6 1272 m 0
 -21 1391 318 1448 488 1454 c 0
 639 1458 925 1478 918 1346 c 0
 914 1247 618 1273 478 1264 c 0
 311 1253 9 1150 -6 1272 c 0
133 1284 m 0
 255 1312 249 1098 260 965 c 0
 269 863 272 738 250 646 c 0
 230 561 211 475 239 393 c 0
 264 316 314 227 392 204 c 0
 482 178 580 202 671 217 c 0
 763 232 897 247 908 167 c 0
 922 59 719 43 595 21 c 0
 485 1 361 -2 273 46 c 0
 152 113 99 211 64 345 c 0
 36 449 56 557 80 665 c 0
 99 749 99 864 93 946 c 0
 84 1073 27 1260 133 1284 c 0
190 578 m 0
 162 686 345 748 523 768 c 0
 725 790 916 813 916 699 c 0
 916 600 690 616 547 604 c 0
 430 593 213 484 190 578 c 0
EndSplineSet
EndChar
StartChar: Igrave
Encoding: 204 204 204
Width: 768
Flags: W
LayerCount: 2
Fore
SplineSet
130 2024 m 4
 199 2088 285 1961 338 1882 c 4
 400 1789 480 1648 408 1608 c 4
 347 1574 295 1694 244 1773 c 4
 187 1861 73 1971 130 2024 c 4
392 -57 m 0
 264 -90 89 -159 71 -94 c 0
 38 24 226 62 358 94 c 0
 483 124 723 163 721 64 c 0
 719 -42 511 -26 392 -57 c 0
374 1243 m 0
 246 1210 71 1141 53 1206 c 0
 20 1324 208 1362 340 1394 c 0
 465 1424 705 1463 703 1364 c 0
 701 1258 493 1274 374 1243 c 0
368 1328 m 0
 447 1335 452 1206 456 1039 c 0
 459 917 449 582 450 486 c 0
 452 260 466 14 348 23 c 0
 245 31 306 268 302 477 c 0
 300 583 305 889 302 1022 c 0
 299 1181 296 1322 368 1328 c 0
EndSplineSet
EndChar
StartChar: Iacute
Encoding: 205 205 205
Width: 768
Flags: W
LayerCount: 2
Fore
SplineSet
644 2024 m 4
 575 2088 489 1961 436 1882 c 4
 374 1789 294 1648 366 1608 c 4
 427 1574 479 1694 530 1773 c 4
 587 1861 701 1971 644 2024 c 4
392 -57 m 0
 264 -90 89 -159 71 -94 c 0
 38 24 226 62 358 94 c 0
 483 124 723 163 721 64 c 0
 719 -42 511 -26 392 -57 c 0
374 1243 m 0
 246 1210 71 1141 53 1206 c 0
 20 1324 208 1362 340 1394 c 0
 465 1424 705 1463 703 1364 c 0
 701 1258 493 1274 374 1243 c 0
368 1328 m 0
 447 1335 452 1206 456 1039 c 0
 459 917 449 582 450 486 c 0
 452 260 466 14 348 23 c 0
 245 31 306 268 302 477 c 0
 300 583 305 889 302 1022 c 0
 299 1181 296 1322 368 1328 c 0
EndSplineSet
EndChar
StartChar: Icircumflex
Encoding: 206 206 206
Width: 768
Flags: W
LayerCount: 2
Fore
SplineSet
544 1592 m 4
 491 1554 410 1656 376 1711 c 4
 339 1772 282 1889 345 1922 c 4
 394 1948 444 1850 474 1803 c 4
 514 1740 604 1635 544 1592 c 4
374 1926 m 4
 440 1897 375 1761 345 1695 c 4
 311 1619 246 1493 181 1545 c 4
 128 1587 208 1701 238 1765 c 4
 271 1836 323 1948 374 1926 c 4
392 -57 m 0
 264 -90 89 -159 71 -94 c 0
 38 24 226 62 358 94 c 0
 483 124 723 163 721 64 c 0
 719 -42 511 -26 392 -57 c 0
374 1243 m 0
 246 1210 71 1141 53 1206 c 0
 20 1324 208 1362 340 1394 c 0
 465 1424 705 1463 703 1364 c 0
 701 1258 493 1274 374 1243 c 0
368 1328 m 0
 447 1335 452 1206 456 1039 c 0
 459 917 449 582 450 486 c 0
 452 260 466 14 348 23 c 0
 245 31 306 268 302 477 c 0
 300 583 305 889 302 1022 c 0
 299 1181 296 1322 368 1328 c 0
EndSplineSet
EndChar
StartChar: Idieresis
Encoding: 207 207 207
Width: 768
Flags: W
LayerCount: 2
Fore
SplineSet
227 1571 m 4
 175 1597 174 1682 199 1734 c 4
 220 1779 273 1846 329 1817 c 4
 396 1783 375 1698 348 1644 c 4
 326 1601 270 1550 227 1571 c 4
478 1594 m 4
 426 1620 426 1706 451 1758 c 4
 472 1803 525 1870 581 1841 c 4
 648 1807 627 1722 600 1668 c 4
 578 1625 521 1573 478 1594 c 4
392 -57 m 0
 264 -90 89 -159 71 -94 c 0
 38 24 226 62 358 94 c 0
 483 124 723 163 721 64 c 0
 719 -42 511 -26 392 -57 c 0
374 1243 m 0
 246 1210 71 1141 53 1206 c 0
 20 1324 208 1362 340 1394 c 0
 465 1424 705 1463 703 1364 c 0
 701 1258 493 1274 374 1243 c 0
368 1328 m 0
 447 1335 452 1206 456 1039 c 0
 459 917 449 582 450 486 c 0
 452 260 466 14 348 23 c 0
 245 31 306 268 302 477 c 0
 300 583 305 889 302 1022 c 0
 299 1181 296 1322 368 1328 c 0
EndSplineSet
EndChar
StartChar: Eth
Encoding: 208 208 208
Width: 1362
Flags: W
LayerCount: 2
Fore
SplineSet
174 883 m 0
 290 911 497 927 490 817 c 0
 485 736 348 763 194 731 c 0
 97 711 -65 661 -88 731 c 0
 -120 825 77 860 174 883 c 0
127 1235 m 0
 225 1244 227 967 226 828 c 0
 225 652 201 319 91 329 c 0
 14 336 58 623 63 768 c 0
 68 928 46 1227 127 1235 c 0
96 323 m 0
 -18 344 90 658 108 810 c 0
 127 965 143 1042 153 1254 c 0
 157 1331 162 1426 290 1442 c 0
 458 1462 684 1445 859 1369 c 0
 1008 1305 1164 1207 1237 1063 c 0
 1311 917 1331 753 1288 595 c 0
 1254 470 1153 324 1049 247 c 0
 895 133 685 46 498 84 c 0
 343 116 63 289 130 373 c 0
 165 416 313 310 502 278 c 0
 615 259 755 269 840 314 c 0
 958 376 1064 493 1112 618 c 0
 1155 731 1141 882 1079 986 c 0
 1014 1095 889 1181 768 1221 c 0
 626 1268 499 1273 315 1269 c 1
 309 1087 291 928 268 761 c 0
 246 605 219 300 96 323 c 0
EndSplineSet
EndChar
StartChar: Ntilde
Encoding: 209 209 209
Width: 1074
Flags: W
LayerCount: 2
Fore
SplineSet
219 1434 m 0
 290 1361 336 1539 430 1552 c 0
 512 1563 548 1494 645 1507 c 0
 737 1519 898 1678 823 1744 c 0
 765 1795 683 1663 622 1662 c 0
 542 1660 509 1731 397 1703 c 0
 272 1672 158 1497 219 1434 c 0
53 78 m 0
 -41 96 36 467 60 708 c 0
 79 906 70 1223 178 1235 c 0
 306 1249 358 989 444 809 c 0
 512 666 654 295 757 337 c 0
 858 378 853 665 859 821 c 0
 866 1003 826 1290 940 1296 c 0
 1042 1301 1041 994 1034 779 c 0
 1027 565 1020 230 817 160 c 0
 629 95 479 323 406 461 c 0
 348 569 275 746 244 820 c 1
 242 744 213 486 194 341 c 0
 178 219 160 56 53 78 c 0
EndSplineSet
EndChar
StartChar: Ograve
Encoding: 210 210 210
Width: 1106
Flags: W
LayerCount: 2
Fore
SplineSet
304 2040 m 4
 373 2104 459 1977 512 1898 c 4
 574 1805 654 1664 582 1624 c 4
 521 1590 469 1710 418 1789 c 4
 361 1877 247 1987 304 2040 c 4
577 1435 m 0
 725 1447 928 1298 993 1090 c 0
 1061 870 1076 560 926 279 c 0
 842 122 655 48 477 69 c 0
 278 93 168 231 107 381 c 0
 17 602 41 914 140 1109 c 0
 240 1306 363 1418 577 1435 c 0
676 1237 m 0
 602 1278 498 1244 428 1199 c 0
 325 1133 263 1011 235 891 c 0
 203 755 216 535 280 408 c 0
 329 312 411 261 494 245 c 0
 588 227 683 253 734 306 c 0
 859 436 881 658 881 838 c 0
 881 953 804 1166 676 1237 c 0
EndSplineSet
EndChar
StartChar: Oacute
Encoding: 211 211 211
Width: 1106
Flags: W
LayerCount: 2
Fore
SplineSet
810 2033 m 4
 741 2097 655 1970 602 1891 c 4
 540 1798 460 1657 532 1617 c 4
 593 1583 645 1703 696 1782 c 4
 753 1870 867 1980 810 2033 c 4
577 1435 m 0
 725 1447 928 1298 993 1090 c 0
 1061 870 1076 560 926 279 c 0
 842 122 655 48 477 69 c 0
 278 93 168 231 107 381 c 0
 17 602 41 914 140 1109 c 0
 240 1306 363 1418 577 1435 c 0
676 1237 m 0
 602 1278 498 1244 428 1199 c 0
 325 1133 263 1011 235 891 c 0
 203 755 216 535 280 408 c 0
 329 312 411 261 494 245 c 0
 588 227 683 253 734 306 c 0
 859 436 881 658 881 838 c 0
 881 953 804 1166 676 1237 c 0
EndSplineSet
EndChar
StartChar: Ocircumflex
Encoding: 212 212 212
Width: 1106
Flags: W
LayerCount: 2
Fore
SplineSet
726 1612 m 4
 673 1574 593 1676 559 1731 c 4
 522 1792 464 1909 527 1942 c 4
 576 1968 626 1870 656 1823 c 4
 696 1760 786 1655 726 1612 c 4
557 1946 m 4
 623 1917 557 1781 527 1715 c 4
 493 1639 429 1513 364 1565 c 4
 311 1607 390 1721 420 1785 c 4
 453 1856 506 1968 557 1946 c 4
577 1435 m 0
 725 1447 928 1298 993 1090 c 0
 1061 870 1076 560 926 279 c 0
 842 122 655 48 477 69 c 0
 278 93 168 231 107 381 c 0
 17 602 41 914 140 1109 c 0
 240 1306 363 1418 577 1435 c 0
676 1237 m 0
 602 1278 498 1244 428 1199 c 0
 325 1133 263 1011 235 891 c 0
 203 755 216 535 280 408 c 0
 329 312 411 261 494 245 c 0
 588 227 683 253 734 306 c 0
 859 436 881 658 881 838 c 0
 881 953 804 1166 676 1237 c 0
EndSplineSet
EndChar
StartChar: Otilde
Encoding: 213 213 213
Width: 1106
Flags: W
LayerCount: 2
Fore
SplineSet
238 1548 m 4
 309 1475 372 1653 480 1668 c 28
 577 1681 657 1577 746 1618 c 4
 837 1660 982 1788 907 1854 c 4
 849 1905 767 1773 706 1772 c 4
 626 1770 581 1850 447 1819 c 4
 322 1790 177 1611 238 1548 c 4
577 1435 m 0
 725 1447 928 1298 993 1090 c 0
 1061 870 1076 560 926 279 c 0
 842 122 655 48 477 69 c 0
 278 93 168 231 107 381 c 0
 17 602 41 914 140 1109 c 0
 240 1306 363 1418 577 1435 c 0
676 1237 m 0
 602 1278 498 1244 428 1199 c 0
 325 1133 263 1011 235 891 c 0
 203 755 216 535 280 408 c 0
 329 312 411 261 494 245 c 0
 588 227 683 253 734 306 c 0
 859 436 881 658 881 838 c 0
 881 953 804 1166 676 1237 c 0
EndSplineSet
EndChar
StartChar: Odieresis
Encoding: 214 214 214
Width: 1106
Flags: W
LayerCount: 2
Fore
SplineSet
406 1596 m 4
 354 1622 353 1708 378 1760 c 4
 399 1805 452 1872 508 1843 c 4
 575 1809 555 1724 528 1670 c 4
 506 1627 449 1575 406 1596 c 4
658 1620 m 4
 606 1646 605 1731 630 1783 c 4
 651 1828 704 1895 760 1866 c 4
 827 1832 806 1747 779 1693 c 4
 757 1650 701 1599 658 1620 c 4
577 1435 m 0
 725 1447 928 1298 993 1090 c 0
 1061 870 1076 560 926 279 c 0
 842 122 655 48 477 69 c 0
 278 93 168 231 107 381 c 0
 17 602 41 914 140 1109 c 0
 240 1306 363 1418 577 1435 c 0
676 1237 m 0
 602 1278 498 1244 428 1199 c 0
 325 1133 263 1011 235 891 c 0
 203 755 216 535 280 408 c 0
 329 312 411 261 494 245 c 0
 588 227 683 253 734 306 c 0
 859 436 881 658 881 838 c 0
 881 953 804 1166 676 1237 c 0
EndSplineSet
EndChar
StartChar: multiply
Encoding: 215 215 215
Width: 563
Flags: W
LayerCount: 2
Fore
SplineSet
57 983 m 0
 139 1019 210 741 293 625 c 0
 374 511 601 357 538 283 c 0
 464 196 265 429 179 550 c 0
 93 671 -15 951 57 983 c 0
96 213 m 0
 -17 260 116 520 190 635 c 0
 275 768 432 990 500 933 c 0
 584 863 375 666 298 538 c 0
 229 423 192 173 96 213 c 0
EndSplineSet
EndChar
StartChar: Oslash
Encoding: 216 216 216
Width: 1106
Flags: W
LayerCount: 2
Fore
SplineSet
187 -100 m 4
 107 -65 205 183 282 374 c 4
 384 629 505 881 648 1144 c 4
 760 1350 901 1563 965 1529 c 4
 1046 1486 892 1259 796 1084 c 4
 671 856 525 575 422 323 c 4
 349 145 266 -135 187 -100 c 4
577 1435 m 0
 725 1447 928 1298 993 1090 c 0
 1061 870 1076 560 926 279 c 0
 842 122 655 48 477 69 c 0
 278 93 168 231 107 381 c 0
 17 602 41 914 140 1109 c 0
 240 1306 363 1418 577 1435 c 0
676 1237 m 0
 646 1253 612 1257 577 1254 c 0
 524 1249 470 1226 428 1199 c 0
 325 1133 263 1011 235 891 c 0
 203 755 216 535 280 408 c 0
 329 312 411 261 494 245 c 0
 588 227 683 253 734 306 c 0
 859 436 881 658 881 838 c 0
 881 953 804 1166 676 1237 c 0
EndSplineSet
EndChar
StartChar: Ugrave
Encoding: 217 217 217
Width: 1398
Flags: W
LayerCount: 2
Fore
SplineSet
326 1986 m 4
 395 2050 481 1923 534 1844 c 4
 596 1751 676 1610 604 1570 c 4
 543 1536 491 1656 440 1735 c 4
 383 1823 269 1933 326 1986 c 4
150 1467 m 0
 251 1469 175 1068 176 833 c 0
 177 664 222 254 385 237 c 0
 511 224 659 451 725 593 c 0
 798 750 842 866 872 1033 c 0
 908 1233 902 1487 1014 1472 c 0
 1117 1459 1084 1128 977 765 c 0
 926 592 865 464 797 346 c 0
 663 113 512 14 308 58 c 0
 50 114 2 567 -2 796 c 0
 -6 1035 16 1464 150 1467 c 0
1010 1470 m 0
 1104 1460 1055 1224 1063 1068 c 0
 1074 854 1083 718 1151 513 c 0
 1197 375 1381 214 1300 116 c 0
 1226 26 1065 240 1012 373 c 0
 923 597 903 805 901 1046 c 0
 900 1224 895 1482 1010 1470 c 0
EndSplineSet
EndChar
StartChar: Uacute
Encoding: 218 218 218
Width: 1398
Flags: W
LayerCount: 2
Fore
SplineSet
810 2022 m 4
 741 2086 655 1959 602 1880 c 4
 540 1787 460 1646 532 1606 c 4
 593 1572 645 1692 696 1771 c 4
 753 1859 867 1969 810 2022 c 4
150 1467 m 0
 251 1469 175 1068 176 833 c 0
 177 664 222 254 385 237 c 0
 511 224 659 451 725 593 c 0
 798 750 842 866 872 1033 c 0
 908 1233 902 1487 1014 1472 c 0
 1117 1459 1084 1128 977 765 c 0
 926 592 865 464 797 346 c 0
 663 113 512 14 308 58 c 0
 50 114 2 567 -2 796 c 0
 -6 1035 16 1464 150 1467 c 0
1010 1470 m 0
 1104 1460 1055 1224 1063 1068 c 0
 1074 854 1083 718 1151 513 c 0
 1197 375 1381 214 1300 116 c 0
 1226 26 1065 240 1012 373 c 0
 923 597 903 805 901 1046 c 0
 900 1224 895 1482 1010 1470 c 0
EndSplineSet
EndChar
StartChar: Ucircumflex
Encoding: 219 219 219
Width: 1398
Flags: W
LayerCount: 2
Fore
SplineSet
710 1624 m 4
 657 1586 577 1688 543 1743 c 4
 506 1804 448 1921 511 1954 c 4
 560 1980 610 1882 640 1835 c 4
 680 1772 770 1667 710 1624 c 4
541 1958 m 4
 607 1929 542 1793 512 1727 c 4
 478 1651 413 1525 348 1577 c 4
 295 1619 374 1733 404 1797 c 4
 437 1868 490 1980 541 1958 c 4
150 1467 m 0
 251 1469 175 1068 176 833 c 0
 177 664 222 254 385 237 c 0
 511 224 659 451 725 593 c 0
 798 750 842 866 872 1033 c 0
 908 1233 902 1487 1014 1472 c 0
 1117 1459 1084 1128 977 765 c 0
 926 592 865 464 797 346 c 0
 663 113 512 14 308 58 c 0
 50 114 2 567 -2 796 c 0
 -6 1035 16 1464 150 1467 c 0
1010 1470 m 0
 1104 1460 1055 1224 1063 1068 c 0
 1074 854 1083 718 1151 513 c 0
 1197 375 1381 214 1300 116 c 0
 1226 26 1065 240 1012 373 c 0
 923 597 903 805 901 1046 c 0
 900 1224 895 1482 1010 1470 c 0
EndSplineSet
EndChar
StartChar: Udieresis
Encoding: 220 220 220
Width: 1398
Flags: W
LayerCount: 2
Fore
SplineSet
382 1580 m 4
 330 1606 329 1692 354 1744 c 4
 375 1789 428 1856 484 1827 c 4
 551 1793 531 1708 504 1654 c 4
 482 1611 425 1559 382 1580 c 4
634 1604 m 4
 582 1630 581 1715 606 1767 c 4
 627 1812 680 1879 736 1850 c 4
 803 1816 782 1731 755 1677 c 4
 733 1634 677 1583 634 1604 c 4
150 1467 m 0
 251 1469 175 1068 176 833 c 0
 177 664 222 254 385 237 c 0
 511 224 659 451 725 593 c 0
 798 750 842 866 872 1033 c 0
 908 1233 902 1487 1014 1472 c 0
 1117 1459 1084 1128 977 765 c 0
 926 592 865 464 797 346 c 0
 663 113 512 14 308 58 c 0
 50 114 2 567 -2 796 c 0
 -6 1035 16 1464 150 1467 c 0
1010 1470 m 0
 1104 1460 1055 1224 1063 1068 c 0
 1074 854 1083 718 1151 513 c 0
 1197 375 1381 214 1300 116 c 0
 1226 26 1065 240 1012 373 c 0
 923 597 903 805 901 1046 c 0
 900 1224 895 1482 1010 1470 c 0
EndSplineSet
EndChar
StartChar: Yacute
Encoding: 221 221 221
Width: 851
Flags: W
LayerCount: 2
Fore
SplineSet
664 2021 m 4
 595 2085 509 1958 456 1879 c 4
 394 1786 314 1645 386 1605 c 4
 447 1571 499 1691 550 1770 c 4
 607 1858 721 1968 664 2021 c 4
98 1487 m 0
 192 1504 178 1258 197 1155 c 0
 213 1070 302 869 369 869 c 0
 434 869 516 998 581 1144 c 0
 635 1266 699 1521 814 1466 c 0
 894 1428 773 1213 727 1092 c 0
 671 944 571 703 401 690 c 0
 263 680 122 864 76 994 c 0
 22 1144 0 1469 98 1487 c 0
807 1478 m 0
 910 1437 747 1145 706 998 c 0
 647 785 547 401 491 200 c 0
 454 65 428 -199 311 -171 c 0
 189 -142 290 87 331 240 c 0
 388 456 492 824 549 1034 c 0
 591 1188 697 1521 807 1478 c 0
EndSplineSet
EndChar
StartChar: Thorn
Encoding: 222 222 222
Width: 1237
Flags: W
LayerCount: 2
Fore
SplineSet
195 1462 m 4
 291 1472 287 1152 281 965 c 0
 275 766 265 561 252 371 c 0
 238 156 236 -274 116 -273 c 4
 11 -272 63 155 77 348 c 0
 91 548 103 734 109 930 c 4
 115 1138 94 1451 195 1462 c 4
150 505 m 0
 51 551 163 760 211 876 c 0
 261 995 329 1121 439 1190 c 0
 553 1262 710 1308 837 1264 c 0
 993 1210 1107 1047 1164 892 c 0
 1217 748 1215 575 1158 433 c 0
 1101 293 982 171 847 103 c 0
 717 38 555 13 415 52 c 0
 294 86 50 178 117 285 c 0
 169 369 372 221 488 216 c 0
 667 208 775 243 868 334 c 0
 987 450 1009 521 1023 668 c 0
 1034 786 966 910 909 983 c 0
 844 1068 782 1111 676 1097 c 0
 559 1082 481 1015 415 917 c 0
 339 805 258 454 150 505 c 0
EndSplineSet
EndChar
StartChar: germandbls
Encoding: 223 223 223
Width: 1000
Flags: W
LayerCount: 2
Fore
SplineSet
97 -273 m 0
 -13 -267 51 102 73 283 c 0
 100 508 114 758 172 976 c 0
 213 1128 278 1256 362 1392 c 0
 427 1497 541 1579 678 1522 c 0
 819 1463 810 1267 764 1135 c 0
 719 1007 618 843 651 768 c 0
 677 708 888 665 937 567 c 0
 998 447 927 293 845 186 c 0
 776 96 686 16 569 50 c 0
 440 88 310 213 395 278 c 0
 462 329 532 213 618 220 c 0
 697 227 798 428 785 467 c 0
 749 575 551 554 496 654 c 0
 444 749 484 873 528 978 c 0
 573 1086 684 1329 612 1363 c 0
 533 1400 464 1222 414 1130 c 0
 339 991 306 830 283 670 c 0
 264 536 256 394 236 269 c 0
 205 78 202 -279 97 -273 c 0
EndSplineSet
EndChar
StartChar: agrave
Encoding: 224 224 224
Width: 795
Flags: W
LayerCount: 2
Fore
SplineSet
198 1422 m 4
 267 1486 353 1359 406 1280 c 4
 468 1187 548 1046 476 1006 c 4
 415 972 363 1092 312 1171 c 4
 255 1259 141 1369 198 1422 c 4
475 683 m 0
 405 696 376 683 332 646 c 0
 267 591 245 554 205 472 c 0
 168 397 130 218 187 199 c 0
 269 172 335 331 375 418 c 0
 429 537 507 744 566 730 c 0
 672 706 550 478 500 366 c 0
 440 233 364 71 223 32 c 0
 159 14 77 46 46 105 c 0
 -12 217 7 365 64 524 c 0
 86 585 166 701 242 756 c 0
 341 828 446 821 498 802 c 0
 539 787 558 757 545 721 c 0
 533 688 504 678 475 683 c 0
581 724 m 0
 649 712 565 479 601 362 c 0
 630 267 794 240 773 176 c 0
 754 118 686 110 630 134 c 0
 538 174 480 265 465 363 c 0
 445 495 475 743 581 724 c 0
EndSplineSet
EndChar
StartChar: aacute
Encoding: 225 225 225
Width: 795
Flags: W
LayerCount: 2
Fore
SplineSet
644 1414 m 4
 575 1478 489 1351 436 1272 c 4
 374 1179 294 1038 366 998 c 4
 427 964 479 1084 530 1163 c 4
 587 1251 701 1361 644 1414 c 4
475 683 m 0
 405 696 376 683 332 646 c 0
 267 591 245 554 205 472 c 0
 168 397 130 218 187 199 c 0
 269 172 335 331 375 418 c 0
 429 537 507 744 566 730 c 0
 672 706 550 478 500 366 c 0
 440 233 364 71 223 32 c 0
 159 14 77 46 46 105 c 0
 -12 217 7 365 64 524 c 0
 86 585 166 701 242 756 c 0
 341 828 446 821 498 802 c 0
 539 787 558 757 545 721 c 0
 533 688 504 678 475 683 c 0
581 724 m 0
 649 712 565 479 601 362 c 0
 630 267 794 240 773 176 c 0
 754 118 686 110 630 134 c 0
 538 174 480 265 465 363 c 0
 445 495 475 743 581 724 c 0
EndSplineSet
EndChar
StartChar: acircumflex
Encoding: 226 226 226
Width: 795
Flags: W
LayerCount: 2
Fore
SplineSet
550 1057 m 0
 497 1019 417 1121 383 1176 c 0
 346 1237 288 1354 351 1387 c 0
 400 1413 450 1315 480 1268 c 0
 520 1205 610 1100 550 1057 c 0
381 1391 m 0
 447 1362 382 1226 352 1160 c 0
 318 1084 253 958 188 1010 c 0
 135 1052 214 1166 244 1230 c 0
 277 1301 330 1413 381 1391 c 0
475 683 m 0
 405 696 376 683 332 646 c 0
 267 591 245 554 205 472 c 0
 168 397 130 218 187 199 c 0
 269 172 335 331 375 418 c 0
 429 537 507 744 566 730 c 0
 672 706 550 478 500 366 c 0
 440 233 364 71 223 32 c 0
 159 14 77 46 46 105 c 0
 -12 217 7 365 64 524 c 0
 86 585 166 701 242 756 c 0
 341 828 446 821 498 802 c 0
 539 787 558 757 545 721 c 0
 533 688 504 678 475 683 c 0
581 724 m 0
 649 712 565 479 601 362 c 0
 630 267 794 240 773 176 c 0
 754 118 686 110 630 134 c 0
 538 174 480 265 465 363 c 0
 445 495 475 743 581 724 c 0
EndSplineSet
EndChar
StartChar: atilde
Encoding: 227 227 227
Width: 795
Flags: W
LayerCount: 2
Fore
SplineSet
68 1022 m 0
 139 949 185 1127 279 1140 c 0
 361 1151 397 1082 494 1095 c 0
 586 1107 747 1266 672 1332 c 0
 614 1383 532 1251 471 1250 c 0
 391 1248 358 1319 246 1291 c 0
 121 1260 7 1085 68 1022 c 0
475 683 m 0
 405 696 376 683 332 646 c 0
 267 591 245 554 205 472 c 0
 168 397 130 218 187 199 c 0
 269 172 335 331 375 418 c 0
 429 537 507 744 566 730 c 0
 672 706 550 478 500 366 c 0
 440 233 364 71 223 32 c 0
 159 14 77 46 46 105 c 0
 -12 217 7 365 64 524 c 0
 86 585 166 701 242 756 c 0
 341 828 446 821 498 802 c 0
 539 787 558 757 545 721 c 0
 533 688 504 678 475 683 c 0
581 724 m 0
 649 712 565 479 601 362 c 0
 630 267 794 240 773 176 c 0
 754 118 686 110 630 134 c 0
 538 174 480 265 465 363 c 0
 445 495 475 743 581 724 c 0
EndSplineSet
EndChar
StartChar: adieresis
Encoding: 228 228 228
Width: 795
Flags: W
LayerCount: 2
Fore
SplineSet
214 1090 m 0
 162 1116 161 1201 186 1253 c 0
 207 1298 260 1365 316 1336 c 0
 383 1302 362 1217 335 1163 c 0
 313 1120 257 1069 214 1090 c 0
466 1114 m 4
 414 1140 413 1225 438 1277 c 4
 459 1322 512 1389 568 1360 c 4
 635 1326 614 1241 587 1187 c 4
 565 1144 509 1093 466 1114 c 4
475 683 m 0
 405 696 376 683 332 646 c 0
 267 591 245 554 205 472 c 0
 168 397 130 218 187 199 c 0
 269 172 335 331 375 418 c 0
 429 537 507 744 566 730 c 0
 672 706 550 478 500 366 c 0
 440 233 364 71 223 32 c 0
 159 14 77 46 46 105 c 0
 -12 217 7 365 64 524 c 0
 86 585 166 701 242 756 c 0
 341 828 446 821 498 802 c 0
 539 787 558 757 545 721 c 0
 533 688 504 678 475 683 c 0
581 724 m 0
 649 712 565 479 601 362 c 0
 630 267 794 240 773 176 c 0
 754 118 686 110 630 134 c 0
 538 174 480 265 465 363 c 0
 445 495 475 743 581 724 c 0
EndSplineSet
EndChar
StartChar: aring
Encoding: 229 229 229
Width: 795
Flags: W
LayerCount: 2
Fore
SplineSet
292 1060 m 0
 186 1110 173 1227 214 1307 c 0
 265 1406 376 1460 460 1414 c 0
 552 1364 580 1263 530 1163 c 0
 482 1067 381 1018 292 1060 c 0
405 1304 m 0
 358 1323 319 1304 301 1266 c 0
 281 1224 297 1182 331 1168 c 0
 374 1150 412 1170 433 1205 c 0
 458 1247 440 1290 405 1304 c 0
475 683 m 0
 405 696 376 683 332 646 c 0
 267 591 245 554 205 472 c 0
 168 397 130 218 187 199 c 0
 269 172 335 331 375 418 c 0
 429 537 507 744 566 730 c 0
 672 706 550 478 500 366 c 0
 440 233 364 71 223 32 c 0
 159 14 77 46 46 105 c 0
 -12 217 7 365 64 524 c 0
 86 585 166 701 242 756 c 0
 341 828 446 821 498 802 c 0
 539 787 558 757 545 721 c 0
 533 688 504 678 475 683 c 0
581 724 m 0
 649 712 565 479 601 362 c 0
 630 267 794 240 773 176 c 0
 754 118 686 110 630 134 c 0
 538 174 480 265 465 363 c 0
 445 495 475 743 581 724 c 0
EndSplineSet
EndChar
StartChar: ae
Encoding: 230 230 230
Width: 1153
Flags: W
LayerCount: 2
Fore
SplineSet
149 646 m 0
 86 666 111 785 142 843 c 0
 186 926 270 995 363 990 c 0
 444 986 510 930 548 858 c 0
 593 773 589 652 596 556 c 0
 604 457 713 285 618 257 c 0
 523 228 485 420 467 518 c 0
 450 609 450 730 418 792 c 0
 389 848 336 858 282 819 c 0
 217 772 225 622 149 646 c 0
504 650 m 0
 538 574 424 497 359 444 c 0
 316 408 217 330 246 287 c 0
 275 244 388 325 447 371 c 0
 531 436 570 462 653 532 c 0
 717 586 776 651 816 710 c 0
 838 742 858 776 826 789 c 0
 799 800 669 623 649 511 c 0
 636 439 644 331 692 299 c 0
 748 261 830 323 885 363 c 0
 965 423 1056 552 1101 502 c 0
 1151 446 1038 305 963 243 c 0
 887 180 784 125 686 135 c 0
 608 143 563 206 528 277 c 0
 485 364 500 473 523 567 c 0
 544 651 586 727 637 798 c 0
 690 872 750 933 848 935 c 0
 928 936 985 870 985 801 c 0
 984 688 902 574 819 499 c 0
 741 428 723 416 642 349 c 0
 549 272 446 167 325 142 c 0
 250 126 162 126 122 192 c 0
 84 255 86 360 154 440 c 0
 212 508 271 555 336 602 c 0
 393 643 480 702 504 650 c 0
EndSplineSet
EndChar
StartChar: ccedilla
Encoding: 231 231 231
Width: 751
Flags: W
LayerCount: 2
Fore
SplineSet
353 86 m 4
 382 86 404 63 403 28 c 4
 402 1 399 -22 410 -25 c 4
 438 -32 479 -60 498 -82 c 4
 526 -114 541 -169 515 -236 c 4
 497 -283 443 -330 381 -354 c 4
 329 -374 281 -371 268 -337 c 4
 251 -293 301 -278 343 -251 c 4
 374 -231 395 -211 395 -186 c 4
 395 -158 371 -144 340 -132 c 4
 308 -120 271 -111 272 -63 c 4
 273 -31 277 1 287 30 c 4
 299 66 324 86 353 86 c 4
498 675 m 0
 458 638 386 685 352 674 c 0
 281 650 262 595 226 529 c 0
 179 441 162 287 211 226 c 0
 263 163 384 231 437 278 c 0
 513 346 634 513 694 444 c 0
 774 353 537 119 380 54 c 0
 272 9 142 19 80 103 c 0
 26 177 14 315 40 444 c 0
 60 544 107 637 147 702 c 0
 205 796 293 838 403 835 c 0
 477 833 552 726 498 675 c 0
EndSplineSet
EndChar
StartChar: egrave
Encoding: 232 232 232
Width: 751
Flags: W
LayerCount: 2
Fore
SplineSet
148 407 m 0
 114 466 231 527 289 563 c 0
 371 613 447 668 437 684 c 0
 426 701 364 667 335 646 c 0
 288 613 267 588 242 552 c 0
 209 504 187 425 192 367 c 0
 196 313 213 246 262 223 c 0
 324 194 392 223 468 276 c 0
 541 327 642 463 689 408 c 0
 742 347 629 216 569 162 c 0
 478 80 356 34 235 54 c 0
 152 68 96 123 67 202 c 0
 20 328 47 447 104 569 c 0
 140 647 193 724 260 772 c 0
 330 822 424 867 501 828 c 0
 571 793 591 736 576 660 c 0
 560 578 480 518 409 475 c 0
 332 428 192 329 148 407 c 0
151 1426 m 0
 220 1490 305 1363 358 1284 c 0
 420 1191 501 1050 429 1010 c 0
 368 976 316 1096 265 1175 c 0
 208 1263 94 1373 151 1426 c 0
EndSplineSet
EndChar
StartChar: eacute
Encoding: 233 233 233
Width: 751
Flags: W
LayerCount: 2
Fore
SplineSet
148 407 m 0
 114 466 231 527 289 563 c 0
 371 613 447 668 437 684 c 0
 426 701 364 667 335 646 c 0
 288 613 267 588 242 552 c 0
 209 504 187 425 192 367 c 0
 196 313 213 246 262 223 c 0
 324 194 392 223 468 276 c 0
 541 327 642 463 689 408 c 0
 742 347 629 216 569 162 c 0
 478 80 356 34 235 54 c 0
 152 68 96 123 67 202 c 0
 20 328 47 447 104 569 c 0
 140 647 193 724 260 772 c 0
 330 822 424 867 501 828 c 0
 571 793 591 736 576 660 c 0
 560 578 480 518 409 475 c 0
 332 428 192 329 148 407 c 0
555 1412 m 0
 486 1476 401 1349 348 1270 c 0
 286 1177 205 1036 277 996 c 0
 338 962 390 1082 441 1161 c 0
 498 1249 612 1359 555 1412 c 0
EndSplineSet
EndChar
StartChar: ecircumflex
Encoding: 234 234 234
Width: 751
Flags: W
LayerCount: 2
Fore
SplineSet
148 407 m 0
 114 466 231 527 289 563 c 0
 371 613 447 668 437 684 c 0
 426 701 364 667 335 646 c 0
 288 613 267 588 242 552 c 0
 209 504 187 425 192 367 c 0
 196 313 213 246 262 223 c 0
 324 194 392 223 468 276 c 0
 541 327 642 463 689 408 c 0
 742 347 629 216 569 162 c 0
 478 80 356 34 235 54 c 0
 152 68 96 123 67 202 c 0
 20 328 47 447 104 569 c 0
 140 647 193 724 260 772 c 0
 330 822 424 867 501 828 c 0
 571 793 591 736 576 660 c 0
 560 578 480 518 409 475 c 0
 332 428 192 329 148 407 c 0
519 1049 m 0
 466 1011 386 1113 352 1168 c 0
 315 1229 257 1346 320 1379 c 0
 369 1405 419 1307 449 1260 c 0
 489 1197 579 1092 519 1049 c 0
350 1383 m 0
 416 1354 351 1218 321 1152 c 0
 287 1076 222 950 157 1002 c 0
 104 1044 183 1158 213 1222 c 0
 246 1293 299 1405 350 1383 c 0
EndSplineSet
EndChar
StartChar: edieresis
Encoding: 235 235 235
Width: 751
Flags: W
LayerCount: 2
Fore
SplineSet
148 407 m 0
 114 466 231 527 289 563 c 0
 371 613 447 668 437 684 c 0
 426 701 364 667 335 646 c 0
 288 613 267 588 242 552 c 0
 209 504 187 425 192 367 c 0
 196 313 213 246 262 223 c 0
 324 194 392 223 468 276 c 0
 541 327 642 463 689 408 c 0
 742 347 629 216 569 162 c 0
 478 80 356 34 235 54 c 0
 152 68 96 123 67 202 c 0
 20 328 47 447 104 569 c 0
 140 647 193 724 260 772 c 0
 330 822 424 867 501 828 c 0
 571 793 591 736 576 660 c 0
 560 578 480 518 409 475 c 0
 332 428 192 329 148 407 c 0
187 1078 m 0
 135 1104 134 1189 159 1241 c 0
 180 1286 233 1353 289 1324 c 0
 356 1290 335 1205 308 1151 c 0
 286 1108 230 1057 187 1078 c 0
439 1102 m 0
 387 1128 386 1213 411 1265 c 0
 432 1310 485 1377 541 1348 c 0
 608 1314 587 1229 560 1175 c 0
 538 1132 482 1081 439 1102 c 0
EndSplineSet
EndChar
StartChar: igrave
Encoding: 236 236 236
Width: 355
Flags: W
LayerCount: 2
Fore
SplineSet
-49 1590 m 0
 20 1654 105 1527 158 1448 c 0
 220 1355 301 1214 229 1174 c 0
 168 1140 116 1260 65 1339 c 0
 8 1427 -106 1537 -49 1590 c 0
153 720 m 0
 263 717 207 509 210 399 c 0
 214 265 263 179 222 93 c 0
 200 47 156 6 112 33 c 0
 42 75 35 270 40 392 c 0
 45 506 39 723 153 720 c 0
EndSplineSet
EndChar
StartChar: iacute
Encoding: 237 237 237
Width: 355
Flags: W
LayerCount: 2
Fore
SplineSet
427 1552 m 0
 358 1616 273 1489 220 1410 c 0
 158 1317 77 1176 149 1136 c 0
 210 1102 262 1222 313 1301 c 0
 370 1389 484 1499 427 1552 c 0
153 720 m 0
 263 717 207 509 210 399 c 0
 214 265 263 179 222 93 c 0
 200 47 156 6 112 33 c 0
 42 75 35 270 40 392 c 0
 45 506 39 723 153 720 c 0
EndSplineSet
EndChar
StartChar: icircumflex
Encoding: 238 238 238
Width: 355
Flags: W
LayerCount: 2
Fore
SplineSet
344 1119 m 0
 291 1081 211 1183 177 1238 c 0
 140 1299 82 1416 145 1449 c 0
 194 1475 245 1377 275 1330 c 0
 315 1267 404 1162 344 1119 c 0
175 1453 m 0
 241 1424 176 1288 146 1222 c 0
 112 1146 47 1020 -18 1072 c 0
 -71 1114 8 1228 38 1292 c 0
 71 1363 124 1475 175 1453 c 0
153 720 m 0
 263 717 207 509 210 399 c 0
 214 265 263 179 222 93 c 0
 200 47 156 6 112 33 c 0
 42 75 35 270 40 392 c 0
 45 506 39 723 153 720 c 0
EndSplineSet
EndChar
StartChar: idieresis
Encoding: 239 239 239
Width: 355
Flags: W
LayerCount: 2
Fore
SplineSet
-7 1148 m 4
 -59 1174 -60 1260 -35 1312 c 4
 -14 1357 39 1424 95 1395 c 4
 162 1361 142 1276 115 1222 c 4
 93 1179 36 1127 -7 1148 c 4
245 1172 m 4
 193 1198 192 1283 217 1335 c 4
 238 1380 291 1447 347 1418 c 4
 414 1384 393 1299 366 1245 c 4
 344 1202 288 1151 245 1172 c 4
153 720 m 0
 263 717 207 509 210 399 c 0
 214 265 263 179 222 93 c 0
 200 47 156 6 112 33 c 0
 42 75 35 270 40 392 c 0
 45 506 39 723 153 720 c 0
EndSplineSet
EndChar
StartChar: eth
Encoding: 240 240 240
Width: 805
Flags: W
LayerCount: 2
Fore
SplineSet
137 1460 m 0
 227 1560 497 1195 620 989 c 0
 706 845 784 620 775 411 c 0
 767 246 631 38 452 27 c 0
 323 19 176 135 133 239 c 0
 84 357 99 555 175 667 c 0
 268 803 550 912 585 794 c 0
 615 692 473 711 385 647 c 0
 316 596 274 517 275 418 c 0
 276 298 357 224 431 226 c 0
 514 228 595 310 609 427 c 0
 619 512 594 628 562 717 c 0
 519 838 439 927 378 1032 c 0
 293 1177 51 1365 137 1460 c 0
657 1360 m 0
 701 1269 497 1200 380 1112 c 0
 255 1018 93 859 34 935 c 0
 -33 1022 181 1184 295 1259 c 0
 392 1323 607 1463 657 1360 c 0
EndSplineSet
EndChar
StartChar: ntilde
Encoding: 241 241 241
Width: 643
Flags: W
LayerCount: 2
Fore
SplineSet
18 964 m 4
 89 891 135 1069 229 1082 c 4
 311 1093 347 1024 444 1037 c 4
 536 1049 697 1208 622 1274 c 4
 564 1325 482 1193 421 1192 c 4
 341 1190 308 1261 196 1233 c 4
 71 1202 -43 1027 18 964 c 4
106 775 m 0
 209 783 184 539 181 399 c 0
 178 274 195 -5 89 25 c 0
 7 49 32 247 43 380 c 0
 54 512 8 767 106 775 c 0
452 304 m 0
 449 387 465 606 412 610 c 0
 343 615 320 466 277 351 c 0
 235 239 166 -11 84 28 c 0
 -3 69 94 267 132 366 c 0
 179 489 186 534 245 647 c 0
 290 734 379 811 466 781 c 0
 537 757 573 701 585 605 c 0
 597 504 598 388 603 307 c 0
 611 167 624 28 558 24 c 0
 488 19 461 90 452 304 c 0
EndSplineSet
EndChar
StartChar: ograve
Encoding: 242 242 242
Width: 649
Flags: W
LayerCount: 2
Fore
SplineSet
130 1484 m 4
 199 1548 285 1421 338 1342 c 4
 400 1249 480 1108 408 1068 c 4
 347 1034 295 1154 244 1233 c 4
 187 1321 73 1431 130 1484 c 4
354 907 m 0
 473 906 575 813 604 698 c 0
 640 557 629 358 557 220 c 0
 497 105 413 14 236 24 c 0
 126 30 37 161 23 262 c 0
 4 397 2 520 54 653 c 0
 104 781 212 908 354 907 c 0
343 728 m 0
 267 728 209 643 190 578 c 0
 168 504 166 411 175 338 c 0
 182 281 218 212 277 210 c 0
 354 207 392 252 418 317 c 0
 453 403 461 482 458 567 c 0
 456 639 407 728 343 728 c 0
EndSplineSet
EndChar
StartChar: oacute
Encoding: 243 243 243
Width: 649
Flags: W
LayerCount: 2
Fore
SplineSet
550 1477 m 4
 481 1541 395 1414 342 1335 c 4
 280 1242 200 1101 272 1061 c 4
 333 1027 385 1147 436 1226 c 4
 493 1314 607 1424 550 1477 c 4
354 907 m 0
 473 906 575 813 604 698 c 0
 640 557 629 358 557 220 c 0
 497 105 413 14 236 24 c 0
 126 30 37 161 23 262 c 0
 4 397 2 520 54 653 c 0
 104 781 212 908 354 907 c 0
343 728 m 0
 267 728 209 643 190 578 c 0
 168 504 166 411 175 338 c 0
 182 281 218 212 277 210 c 0
 354 207 392 252 418 317 c 0
 453 403 461 482 458 567 c 0
 456 639 407 728 343 728 c 0
EndSplineSet
EndChar
StartChar: ocircumflex
Encoding: 244 244 244
Width: 649
Flags: W
LayerCount: 2
Fore
SplineSet
502 1123 m 0
 449 1085 369 1187 335 1242 c 0
 298 1303 240 1420 303 1453 c 0
 352 1479 402 1381 432 1334 c 0
 472 1271 562 1166 502 1123 c 0
333 1457 m 0
 399 1428 334 1292 304 1226 c 0
 270 1150 205 1024 140 1076 c 0
 87 1118 166 1232 196 1296 c 0
 229 1367 282 1479 333 1457 c 0
354 907 m 0
 473 906 575 813 604 698 c 0
 640 557 629 358 557 220 c 0
 497 105 413 14 236 24 c 0
 126 30 37 161 23 262 c 0
 4 397 2 520 54 653 c 0
 104 781 212 908 354 907 c 0
343 728 m 0
 267 728 209 643 190 578 c 0
 168 504 166 411 175 338 c 0
 182 281 218 212 277 210 c 0
 354 207 392 252 418 317 c 0
 453 403 461 482 458 567 c 0
 456 639 407 728 343 728 c 0
EndSplineSet
EndChar
StartChar: otilde
Encoding: 245 245 245
Width: 649
Flags: W
LayerCount: 2
Fore
SplineSet
24 1098 m 4
 95 1025 141 1203 235 1216 c 4
 317 1227 353 1158 450 1171 c 4
 542 1183 703 1342 628 1408 c 4
 570 1459 488 1327 427 1326 c 4
 347 1324 314 1395 202 1367 c 4
 77 1336 -37 1161 24 1098 c 4
354 907 m 0
 473 906 575 813 604 698 c 0
 640 557 629 358 557 220 c 0
 497 105 413 14 236 24 c 0
 126 30 37 161 23 262 c 0
 4 397 2 520 54 653 c 0
 104 781 212 908 354 907 c 0
343 728 m 0
 267 728 209 643 190 578 c 0
 168 504 166 411 175 338 c 0
 182 281 218 212 277 210 c 0
 354 207 392 252 418 317 c 0
 453 403 461 482 458 567 c 0
 456 639 407 728 343 728 c 0
EndSplineSet
EndChar
StartChar: odieresis
Encoding: 246 246 246
Width: 649
Flags: W
LayerCount: 2
Fore
SplineSet
164 1130 m 0
 112 1156 111 1241 136 1293 c 0
 157 1338 210 1405 266 1376 c 0
 333 1342 312 1257 285 1203 c 0
 263 1160 207 1109 164 1130 c 0
416 1154 m 0
 364 1180 363 1265 388 1317 c 0
 409 1362 462 1429 518 1400 c 0
 585 1366 564 1281 537 1227 c 0
 515 1184 459 1133 416 1154 c 0
354 907 m 0
 473 906 575 813 604 698 c 0
 640 557 629 358 557 220 c 0
 497 105 413 14 236 24 c 0
 126 30 37 161 23 262 c 0
 4 397 2 520 54 653 c 0
 104 781 212 908 354 907 c 0
343 728 m 0
 267 728 209 643 190 578 c 0
 168 504 166 411 175 338 c 0
 182 281 218 212 277 210 c 0
 354 207 392 252 418 317 c 0
 453 403 461 482 458 567 c 0
 456 639 407 728 343 728 c 0
EndSplineSet
EndChar
StartChar: divide
Encoding: 247 247 247
Width: 872
Flags: W
LayerCount: 2
Fore
SplineSet
388 183 m 4
 326 204 349 391 463 367 c 4
 539 352 520 138 388 183 c 4
392 923 m 0
 330 944 353 1131 467 1107 c 0
 543 1092 524 878 392 923 c 0
26 539 m 0
 -6 653 264 702 430 733 c 0
 615 768 861 780 845 648 c 0
 833 553 636 608 467 574 c 0
 265 533 54 439 26 539 c 0
EndSplineSet
EndChar
StartChar: oslash
Encoding: 248 248 248
Width: 649
Flags: W
LayerCount: 2
Fore
SplineSet
34 -225 m 0
 -42 -180 57 40 100 149 c 0
 201 406 268 558 352 727 c 0
 456 937 588 1153 660 1108 c 0
 728 1066 575 852 486 674 c 0
 384 469 334 348 231 96 c 0
 158 -82 108 -269 34 -225 c 0
354 907 m 0
 473 906 575 813 604 698 c 0
 640 557 629 358 557 220 c 0
 497 105 413 14 236 24 c 0
 126 30 37 161 23 262 c 0
 4 397 2 520 54 653 c 0
 104 781 212 908 354 907 c 0
343 728 m 0
 267 728 209 643 190 578 c 0
 168 504 166 411 175 338 c 0
 182 281 218 212 277 210 c 0
 354 207 392 252 418 317 c 0
 453 403 461 482 458 567 c 0
 456 639 407 728 343 728 c 0
EndSplineSet
EndChar
StartChar: ugrave
Encoding: 249 249 249
Width: 672
Flags: W
LayerCount: 2
Fore
SplineSet
104 1331 m 4
 173 1395 259 1268 312 1189 c 4
 374 1096 454 955 382 915 c 4
 321 881 269 1001 218 1080 c 4
 161 1168 47 1278 104 1331 c 4
128 674 m 0
 186 674 188 571 176 512 c 0
 157 419 146 214 173 211 c 0
 209 207 293 362 338 452 c 0
 384 545 426 758 510 738 c 0
 597 718 526 574 500 489 c 0
 463 368 413 251 344 157 c 0
 288 80 219 -9 127 21 c 0
 13 58 4 232 14 350 c 0
 24 468 34 674 128 674 c 0
488 734 m 0
 584 737 547 558 555 462 c 0
 561 392 571 342 596 287 c 0
 629 215 697 89 620 54 c 0
 556 25 499 104 469 172 c 0
 431 259 413 359 408 452 c 0
 403 550 390 731 488 734 c 0
EndSplineSet
EndChar
StartChar: uacute
Encoding: 250 250 250
Width: 672
Flags: W
LayerCount: 2
Fore
SplineSet
526 1331 m 0
 457 1395 371 1268 318 1189 c 0
 256 1096 176 955 248 915 c 0
 309 881 361 1001 412 1080 c 0
 469 1168 583 1278 526 1331 c 0
128 674 m 0
 186 674 188 571 176 512 c 0
 157 419 146 214 173 211 c 0
 209 207 293 362 338 452 c 0
 384 545 426 758 510 738 c 0
 597 718 526 574 500 489 c 0
 463 368 413 251 344 157 c 0
 288 80 219 -9 127 21 c 0
 13 58 4 232 14 350 c 0
 24 468 34 674 128 674 c 0
488 734 m 0
 584 737 547 558 555 462 c 0
 561 392 571 342 596 287 c 0
 629 215 697 89 620 54 c 0
 556 25 499 104 469 172 c 0
 431 259 413 359 408 452 c 0
 403 550 390 731 488 734 c 0
EndSplineSet
EndChar
StartChar: ucircumflex
Encoding: 251 251 251
Width: 672
Flags: W
LayerCount: 2
Fore
SplineSet
488 996 m 4
 435 958 355 1060 321 1115 c 4
 284 1176 226 1293 289 1326 c 4
 338 1352 388 1254 418 1207 c 4
 458 1144 548 1039 488 996 c 4
319 1330 m 4
 385 1301 320 1165 290 1099 c 4
 256 1023 191 897 126 949 c 4
 73 991 152 1105 182 1169 c 4
 215 1240 268 1352 319 1330 c 4
128 674 m 0
 186 674 188 571 176 512 c 0
 157 419 146 214 173 211 c 0
 209 207 293 362 338 452 c 0
 384 545 426 758 510 738 c 0
 597 718 526 574 500 489 c 0
 463 368 413 251 344 157 c 0
 288 80 219 -9 127 21 c 0
 13 58 4 232 14 350 c 0
 24 468 34 674 128 674 c 0
488 734 m 0
 584 737 547 558 555 462 c 0
 561 392 571 342 596 287 c 0
 629 215 697 89 620 54 c 0
 556 25 499 104 469 172 c 0
 431 259 413 359 408 452 c 0
 403 550 390 731 488 734 c 0
EndSplineSet
EndChar
StartChar: udieresis
Encoding: 252 252 252
Width: 672
Flags: W
LayerCount: 2
Fore
SplineSet
162 993 m 0
 110 1019 109 1104 134 1156 c 0
 155 1201 208 1268 264 1239 c 0
 331 1205 310 1120 283 1066 c 0
 261 1023 205 972 162 993 c 0
414 1017 m 0
 362 1043 361 1128 386 1180 c 0
 407 1225 460 1292 516 1263 c 0
 583 1229 562 1144 535 1090 c 0
 513 1047 457 996 414 1017 c 0
128 674 m 0
 186 674 188 571 176 512 c 0
 157 419 146 214 173 211 c 0
 209 207 293 362 338 452 c 0
 384 545 426 758 510 738 c 0
 597 718 526 574 500 489 c 0
 463 368 413 251 344 157 c 0
 288 80 219 -9 127 21 c 0
 13 58 4 232 14 350 c 0
 24 468 34 674 128 674 c 0
488 734 m 0
 584 737 547 558 555 462 c 0
 561 392 571 342 596 287 c 0
 629 215 697 89 620 54 c 0
 556 25 499 104 469 172 c 0
 431 259 413 359 408 452 c 0
 403 550 390 731 488 734 c 0
EndSplineSet
EndChar
StartChar: yacute
Encoding: 253 253 253
Width: 607
Flags: W
LayerCount: 2
Fore
SplineSet
470 1337 m 4
 401 1401 315 1274 262 1195 c 4
 200 1102 120 961 192 921 c 4
 253 887 305 1007 356 1086 c 4
 413 1174 527 1284 470 1337 c 4
79 620 m 0
 156 625 160 474 178 367 c 0
 191 290 212 198 283 203 c 0
 385 210 395 345 403 425 c 0
 411 503 387 665 472 673 c 0
 595 685 567 343 525 220 c 0
 481 91 395 11 259 20 c 0
 148 28 75 139 46 264 c 0
 19 378 -30 613 79 620 c 0
323 -887 m 0
 219 -864 306 -570 331 -414 c 0
 356 -258 374 -94 386 58 c 0
 402 275 391 666 472 673 c 0
 594 684 558 377 551 213 c 0
 544 34 522 -214 487 -425 c 0
 462 -573 441 -913 323 -887 c 0
EndSplineSet
EndChar
StartChar: thorn
Encoding: 254 254 254
Width: 847
Flags: W
LayerCount: 2
Fore
SplineSet
187 1488 m 4
 275 1499 283 1302 293 984 c 4
 297 848 298 364 297 254 c 0
 295 50 282 -35 265 -212 c 0
 252 -349 267 -470 204 -650 c 0
 182 -712 81 -698 69 -623 c 0
 46 -480 95 -155 116 103 c 0
 131 285 135 784 127 966 c 4
 113 1284 101 1477 187 1488 c 4
310 192 m 0
 339 264 470 179 518 217 c 0
 596 279 653 357 641 456 c 0
 632 530 543 629 480 623 c 0
 422 617 375 423 342 288 c 0
 295 98 291 -10 270 -205 c 0
 249 -397 240 -692 142 -687 c 0
 34 -682 82 -440 90 -299 c 0
 99 -141 123 -28 149 128 c 0
 171 260 183 316 213 441 c 0
 243 565 275 685 375 759 c 0
 445 810 538 797 613 754 c 0
 723 691 798 572 803 445 c 0
 808 319 743 186 649 102 c 0
 604 62 492 35 433 45 c 0
 363 57 283 127 310 192 c 0
EndSplineSet
EndChar
StartChar: ydieresis
Encoding: 255 255 255
Width: 607
Flags: W
LayerCount: 2
Fore
SplineSet
90 979 m 4
 38 1005 37 1090 62 1142 c 4
 83 1187 136 1254 192 1225 c 4
 259 1191 238 1106 211 1052 c 4
 189 1009 133 958 90 979 c 4
342 1003 m 4
 290 1029 289 1114 314 1166 c 4
 335 1211 388 1278 444 1249 c 4
 511 1215 490 1130 463 1076 c 4
 441 1033 385 982 342 1003 c 4
79 620 m 0
 156 625 160 474 178 367 c 0
 191 290 212 198 283 203 c 0
 385 210 395 345 403 425 c 0
 411 503 387 665 472 673 c 0
 595 685 567 343 525 220 c 0
 481 91 395 11 259 20 c 0
 148 28 75 139 46 264 c 0
 19 378 -30 613 79 620 c 0
323 -887 m 0
 219 -864 306 -570 331 -414 c 0
 356 -258 374 -94 386 58 c 0
 402 275 391 666 472 673 c 0
 594 684 558 377 551 213 c 0
 544 34 522 -214 487 -425 c 0
 462 -573 441 -913 323 -887 c 0
EndSplineSet
EndChar
StartChar: Amacron
Encoding: 256 256 256
Width: 1011
Flags: W
LayerCount: 2
Fore
SplineSet
481 1820 m 0
 597 1848 804 1864 797 1754 c 0
 792 1673 655 1700 501 1668 c 0
 404 1648 242 1598 219 1668 c 0
 187 1762 384 1797 481 1820 c 0
74 125 m 0
 -11 137 59 690 150 942 c 0
 233 1170 370 1471 540 1480 c 0
 756 1491 877 1178 907 963 c 0
 953 638 1030 84 902 73 c 0
 789 63 800 636 763 869 c 0
 732 1065 668 1310 546 1295 c 0
 457 1284 351 1043 300 873 c 0
 227 627 209 106 74 125 c 0
125 984 m 0
 242 1007 247 717 242 574 c 0
 237 416 205 108 84 124 c 0
 -33 139 83 386 89 517 c 0
 96 673 32 966 125 984 c 0
216 475 m 0
 166 591 350 660 508 682 c 0
 644 701 873 661 835 562 c 0
 804 480 618 527 518 510 c 0
 421 494 258 378 216 475 c 0
EndSplineSet
EndChar
StartChar: amacron
Encoding: 257 257 257
Width: 795
Flags: W
LayerCount: 2
Fore
SplineSet
335 1261 m 0
 451 1289 658 1305 651 1195 c 0
 646 1114 509 1141 355 1109 c 0
 258 1089 96 1039 73 1109 c 0
 41 1203 238 1238 335 1261 c 0
475 683 m 0
 405 696 376 683 332 646 c 0
 267 591 245 554 205 472 c 0
 168 397 130 218 187 199 c 0
 269 172 335 331 375 418 c 0
 429 537 507 744 566 730 c 0
 672 706 550 478 500 366 c 0
 440 233 364 71 223 32 c 0
 159 14 77 46 46 105 c 0
 -12 217 7 365 64 524 c 0
 86 585 166 701 242 756 c 0
 341 828 446 821 498 802 c 0
 539 787 558 757 545 721 c 0
 533 688 504 678 475 683 c 0
581 724 m 0
 649 712 565 479 601 362 c 0
 630 267 794 240 773 176 c 0
 754 118 686 110 630 134 c 0
 538 174 480 265 465 363 c 0
 445 495 475 743 581 724 c 0
EndSplineSet
EndChar
StartChar: Abreve
Encoding: 258 258 258
Width: 1011
Flags: W
LayerCount: 2
Fore
SplineSet
358 1962 m 0
 432 1962 423 1883 440 1835 c 0
 461 1777 494 1756 537 1762 c 0
 583 1769 620 1810 648 1856 c 0
 678 1905 717 2013 774 1989 c 0
 853 1956 790 1806 732 1730 c 0
 687 1671 621 1617 533 1611 c 0
 445 1605 375 1649 332 1713 c 0
 281 1789 267 1962 358 1962 c 0
74 125 m 0
 -11 137 59 690 150 942 c 0
 233 1170 370 1471 540 1480 c 0
 756 1491 877 1178 907 963 c 0
 953 638 1030 84 902 73 c 0
 789 63 800 636 763 869 c 0
 732 1065 668 1310 546 1295 c 0
 457 1284 351 1043 300 873 c 0
 227 627 209 106 74 125 c 0
125 984 m 0
 242 1007 247 717 242 574 c 0
 237 416 205 108 84 124 c 0
 -33 139 83 386 89 517 c 0
 96 673 32 966 125 984 c 0
216 475 m 0
 166 591 350 660 508 682 c 0
 644 701 873 661 835 562 c 0
 804 480 618 527 518 510 c 0
 421 494 258 378 216 475 c 0
EndSplineSet
EndChar
StartChar: abreve
Encoding: 259 259 259
Width: 795
Flags: W
LayerCount: 2
Fore
SplineSet
190 1370 m 4
 264 1370 254 1291 271 1243 c 4
 292 1185 325 1164 368 1170 c 4
 414 1177 451 1218 479 1264 c 4
 509 1313 548 1421 605 1397 c 4
 684 1364 621 1214 563 1138 c 4
 518 1079 452 1025 364 1019 c 4
 276 1013 206 1057 163 1121 c 4
 112 1197 99 1370 190 1370 c 4
475 683 m 0
 405 696 376 683 332 646 c 0
 267 591 245 554 205 472 c 0
 168 397 130 218 187 199 c 0
 269 172 335 331 375 418 c 0
 429 537 507 744 566 730 c 0
 672 706 550 478 500 366 c 0
 440 233 364 71 223 32 c 0
 159 14 77 46 46 105 c 0
 -12 217 7 365 64 524 c 0
 86 585 166 701 242 756 c 0
 341 828 446 821 498 802 c 0
 539 787 558 757 545 721 c 0
 533 688 504 678 475 683 c 0
581 724 m 0
 649 712 565 479 601 362 c 0
 630 267 794 240 773 176 c 0
 754 118 686 110 630 134 c 0
 538 174 480 265 465 363 c 0
 445 495 475 743 581 724 c 0
EndSplineSet
EndChar
StartChar: Aogonek
Encoding: 260 260 260
Width: 1011
Flags: W
LayerCount: 2
Fore
SplineSet
1027 338 m 0
 1098 308 978 151 952 67 c 0
 936 14 923 -69 963 -90 c 0
 1025 -122 1128 65 1191 16 c 0
 1257 -35 1126 -189 1037 -222 c 0
 968 -248 890 -237 846 -178 c 0
 779 -89 804 43 832 120 c 0
 869 219 966 363 1027 338 c 0
74 125 m 0
 -11 137 59 690 150 942 c 0
 233 1170 370 1471 540 1480 c 0
 756 1491 877 1178 907 963 c 0
 953 638 1030 84 902 73 c 0
 789 63 800 636 763 869 c 0
 732 1065 668 1310 546 1295 c 0
 457 1284 351 1043 300 873 c 0
 227 627 209 106 74 125 c 0
125 984 m 0
 242 1007 247 717 242 574 c 0
 237 416 205 108 84 124 c 0
 -33 139 83 386 89 517 c 0
 96 673 32 966 125 984 c 0
216 475 m 0
 166 591 350 660 508 682 c 0
 644 701 873 661 835 562 c 0
 804 480 618 527 518 510 c 0
 421 494 258 378 216 475 c 0
EndSplineSet
EndChar
StartChar: aogonek
Encoding: 261 261 261
Width: 795
Flags: W
LayerCount: 2
Fore
SplineSet
758 256 m 0
 829 226 709 69 683 -15 c 0
 667 -68 654 -151 694 -172 c 0
 756 -204 859 -17 922 -66 c 0
 988 -117 857 -271 768 -304 c 0
 699 -330 621 -319 577 -260 c 0
 510 -171 535 -39 563 38 c 0
 600 137 697 281 758 256 c 0
475 683 m 0
 405 696 376 683 332 646 c 0
 267 591 245 554 205 472 c 0
 168 397 130 218 187 199 c 0
 269 172 335 331 375 418 c 0
 429 537 507 744 566 730 c 0
 672 706 550 478 500 366 c 0
 440 233 364 71 223 32 c 0
 159 14 77 46 46 105 c 0
 -12 217 7 365 64 524 c 0
 86 585 166 701 242 756 c 0
 341 828 446 821 498 802 c 0
 539 787 558 757 545 721 c 0
 533 688 504 678 475 683 c 0
581 724 m 0
 642 696 576 519 590 404 c 0
 602 302 619 271 647 256 c 0
 683 236 748 288 776 238 c 0
 801 193 692 93 603 121 c 0
 508 151 476 255 465 363 c 0
 451 496 483 769 581 724 c 0
EndSplineSet
EndChar
StartChar: Cacute
Encoding: 262 262 262
Width: 1080
Flags: W
LayerCount: 2
Fore
SplineSet
876 2010 m 4
 807 2074 721 1947 668 1868 c 4
 606 1775 526 1634 598 1594 c 4
 659 1560 711 1680 762 1759 c 4
 819 1847 933 1957 876 2010 c 4
921 1255 m 0
 872 1195 747 1327 671 1311 c 0
 547 1285 472 1197 399 1093 c 0
 288 934 224 747 205 530 c 0
 188 336 312 230 449 216 c 0
 572 203 712 278 817 393 c 0
 906 490 948 619 1046 536 c 0
 1115 478 898 162 666 69 c 0
 457 -15 235 31 109 196 c 0
 -24 369 24 640 85 850 c 0
 147 1061 263 1224 391 1345 c 0
 507 1455 655 1517 802 1454 c 0
 887 1418 980 1326 921 1255 c 0
EndSplineSet
EndChar
StartChar: cacute
Encoding: 263 263 263
Width: 751
Flags: W
LayerCount: 2
Fore
SplineSet
604 1444 m 4
 535 1508 449 1381 396 1302 c 4
 334 1209 254 1068 326 1028 c 4
 387 994 439 1114 490 1193 c 4
 547 1281 661 1391 604 1444 c 4
498 675 m 0
 458 638 386 685 352 674 c 0
 281 650 262 595 226 529 c 0
 179 441 162 287 211 226 c 0
 263 163 384 231 437 278 c 0
 513 346 634 513 694 444 c 0
 774 353 537 119 380 54 c 0
 272 9 142 19 80 103 c 0
 26 177 14 315 40 444 c 0
 60 544 107 637 147 702 c 0
 205 796 293 838 403 835 c 0
 477 833 552 726 498 675 c 0
EndSplineSet
EndChar
StartChar: Ccircumflex
Encoding: 264 264 264
Width: 1080
Flags: W
LayerCount: 2
Fore
SplineSet
752 1629 m 4
 699 1591 619 1693 585 1748 c 4
 548 1809 490 1926 553 1959 c 4
 602 1985 652 1887 682 1840 c 4
 722 1777 812 1672 752 1629 c 4
583 1963 m 4
 649 1934 584 1798 554 1732 c 4
 520 1656 455 1530 390 1582 c 4
 337 1624 416 1738 446 1802 c 4
 479 1873 532 1985 583 1963 c 4
921 1255 m 0
 872 1195 747 1327 671 1311 c 0
 547 1285 472 1197 399 1093 c 0
 288 934 224 747 205 530 c 0
 188 336 312 230 449 216 c 0
 572 203 712 278 817 393 c 0
 906 490 948 619 1046 536 c 0
 1115 478 898 162 666 69 c 0
 457 -15 235 31 109 196 c 0
 -24 369 24 640 85 850 c 0
 147 1061 263 1224 391 1345 c 0
 507 1455 655 1517 802 1454 c 0
 887 1418 980 1326 921 1255 c 0
EndSplineSet
EndChar
StartChar: ccircumflex
Encoding: 265 265 265
Width: 751
Flags: W
LayerCount: 2
Fore
SplineSet
500 1035 m 0
 447 997 367 1099 333 1154 c 0
 296 1215 238 1332 301 1365 c 0
 350 1391 400 1293 430 1246 c 0
 470 1183 560 1078 500 1035 c 0
331 1369 m 0
 397 1340 332 1204 302 1138 c 0
 268 1062 203 936 138 988 c 0
 85 1030 164 1144 194 1208 c 0
 227 1279 280 1391 331 1369 c 0
498 675 m 0
 458 638 386 685 352 674 c 0
 281 650 262 595 226 529 c 0
 179 441 162 287 211 226 c 0
 263 163 384 231 437 278 c 0
 513 346 634 513 694 444 c 0
 774 353 537 119 380 54 c 0
 272 9 142 19 80 103 c 0
 26 177 14 315 40 444 c 0
 60 544 107 637 147 702 c 0
 205 796 293 838 403 835 c 0
 477 833 552 726 498 675 c 0
EndSplineSet
EndChar
StartChar: Cdotaccent
Encoding: 266 266 266
Width: 1080
Flags: W
LayerCount: 2
Fore
SplineSet
543 1624 m 4
 491 1650 490 1735 515 1787 c 4
 536 1832 589 1899 645 1870 c 4
 712 1836 691 1751 664 1697 c 4
 642 1654 586 1603 543 1624 c 4
921 1255 m 0
 872 1195 747 1327 671 1311 c 0
 547 1285 472 1197 399 1093 c 0
 288 934 224 747 205 530 c 0
 188 336 312 230 449 216 c 0
 572 203 712 278 817 393 c 0
 906 490 948 619 1046 536 c 0
 1115 478 898 162 666 69 c 0
 457 -15 235 31 109 196 c 0
 -24 369 24 640 85 850 c 0
 147 1061 263 1224 391 1345 c 0
 507 1455 655 1517 802 1454 c 0
 887 1418 980 1326 921 1255 c 0
EndSplineSet
EndChar
StartChar: cdotaccent
Encoding: 267 267 267
Width: 751
Flags: W
LayerCount: 2
Fore
SplineSet
310 1034 m 4
 258 1060 257 1145 282 1197 c 4
 303 1242 356 1309 412 1280 c 4
 479 1246 458 1161 431 1107 c 4
 409 1064 353 1013 310 1034 c 4
498 675 m 0
 458 638 386 685 352 674 c 0
 281 650 262 595 226 529 c 0
 179 441 162 287 211 226 c 0
 263 163 384 231 437 278 c 0
 513 346 634 513 694 444 c 0
 774 353 537 119 380 54 c 0
 272 9 142 19 80 103 c 0
 26 177 14 315 40 444 c 0
 60 544 107 637 147 702 c 0
 205 796 293 838 403 835 c 0
 477 833 552 726 498 675 c 0
EndSplineSet
EndChar
StartChar: Ccaron
Encoding: 268 268 268
Width: 1080
Flags: W
LayerCount: 2
Fore
SplineSet
416 1921 m 0
 469 1959 549 1857 583 1802 c 0
 620 1741 678 1624 615 1591 c 0
 566 1565 516 1662 486 1709 c 0
 446 1772 356 1878 416 1921 c 0
585 1587 m 0
 519 1616 585 1752 615 1818 c 0
 649 1894 713 2020 778 1968 c 0
 831 1926 752 1812 722 1748 c 0
 689 1677 636 1565 585 1587 c 0
921 1255 m 0
 872 1195 747 1327 671 1311 c 0
 547 1285 472 1197 399 1093 c 0
 288 934 224 747 205 530 c 0
 188 336 312 230 449 216 c 0
 572 203 712 278 817 393 c 0
 906 490 948 619 1046 536 c 0
 1115 478 898 162 666 69 c 0
 457 -15 235 31 109 196 c 0
 -24 369 24 640 85 850 c 0
 147 1061 263 1224 391 1345 c 0
 507 1455 655 1517 802 1454 c 0
 887 1418 980 1326 921 1255 c 0
EndSplineSet
EndChar
StartChar: ccaron
Encoding: 269 269 269
Width: 751
Flags: W
LayerCount: 2
Fore
SplineSet
129 1339 m 0
 182 1377 262 1275 296 1220 c 0
 333 1159 391 1042 328 1009 c 0
 279 983 229 1080 199 1127 c 0
 159 1190 69 1296 129 1339 c 0
298 1005 m 0
 232 1034 298 1170 328 1236 c 0
 362 1312 426 1438 491 1386 c 0
 544 1344 465 1230 435 1166 c 0
 402 1095 349 983 298 1005 c 0
498 675 m 0
 458 638 386 685 352 674 c 0
 281 650 262 595 226 529 c 0
 179 441 162 287 211 226 c 0
 263 163 384 231 437 278 c 0
 513 346 634 513 694 444 c 0
 774 353 537 119 380 54 c 0
 272 9 142 19 80 103 c 0
 26 177 14 315 40 444 c 0
 60 544 107 637 147 702 c 0
 205 796 293 838 403 835 c 0
 477 833 552 726 498 675 c 0
EndSplineSet
EndChar
StartChar: Dcaron
Encoding: 270 270 270
Width: 1362
Flags: W
LayerCount: 2
Fore
SplineSet
398 1947 m 4
 451 1985 531 1883 565 1828 c 4
 602 1767 660 1650 597 1617 c 4
 548 1591 498 1689 468 1736 c 4
 428 1799 338 1904 398 1947 c 4
567 1613 m 4
 501 1642 567 1778 597 1844 c 4
 631 1920 695 2046 760 1994 c 4
 813 1952 734 1838 704 1774 c 4
 671 1703 618 1591 567 1613 c 4
127 1235 m 0
 225 1244 227 967 226 828 c 0
 225 652 201 319 91 329 c 0
 14 336 58 623 63 768 c 0
 68 928 46 1227 127 1235 c 0
96 323 m 0
 -18 344 90 658 108 810 c 0
 127 965 143 1042 153 1254 c 0
 157 1331 162 1426 290 1442 c 0
 458 1462 684 1445 859 1369 c 0
 1008 1305 1164 1207 1237 1063 c 0
 1311 917 1331 753 1288 595 c 0
 1254 470 1153 324 1049 247 c 0
 895 133 685 46 498 84 c 0
 343 116 63 289 130 373 c 0
 165 416 313 310 502 278 c 0
 615 259 755 269 840 314 c 0
 958 376 1064 493 1112 618 c 0
 1155 731 1141 882 1079 986 c 0
 1014 1095 889 1181 768 1221 c 0
 626 1268 499 1273 315 1269 c 1
 309 1087 291 928 268 761 c 0
 246 605 219 300 96 323 c 0
EndSplineSet
EndChar
StartChar: dcaron
Encoding: 271 271 271
Width: 789
Flags: W
LayerCount: 2
Fore
SplineSet
991 1630 m 4
 922 1694 837 1567 784 1488 c 4
 722 1395 641 1254 713 1214 c 4
 774 1180 826 1300 877 1379 c 4
 934 1467 1048 1577 991 1630 c 4
450 624 m 0
 456 504 244 538 203 466 c 0
 162 394 171 193 218 180 c 0
 280 163 378 373 400 458 c 0
 442 621 443 762 458 926 c 0
 478 1143 493 1582 617 1560 c 0
 701 1545 637 1151 616 950 c 0
 597 772 601 585 546 414 c 0
 500 271 450 115 317 36 c 0
 259 1 150 -3 105 48 c 0
 1 165 6 383 63 539 c 0
 87 605 195 651 264 664 c 0
 326 676 447 687 450 624 c 0
617 1560 m 0
 712 1530 588 1234 576 1070 c 0
 566 935 549 834 542 699 c 0
 535 565 527 404 582 298 c 0
 611 243 745 352 768 252 c 0
 787 170 612 80 535 115 c 0
 416 169 404 324 393 459 c 0
 376 662 395 865 419 1072 c 0
 439 1246 511 1594 617 1560 c 0
EndSplineSet
EndChar
StartChar: Dcroat
Encoding: 272 272 272
Width: 1362
Flags: W
LayerCount: 2
Fore
SplineSet
174 883 m 0
 290 911 497 927 490 817 c 0
 485 736 348 763 194 731 c 0
 97 711 -65 661 -88 731 c 0
 -120 825 77 860 174 883 c 0
127 1235 m 0
 225 1244 227 967 226 828 c 0
 225 652 201 319 91 329 c 0
 14 336 58 623 63 768 c 0
 68 928 46 1227 127 1235 c 0
96 323 m 0
 -18 344 90 658 108 810 c 0
 127 965 143 1042 153 1254 c 0
 157 1331 162 1426 290 1442 c 0
 458 1462 684 1445 859 1369 c 0
 1008 1305 1164 1207 1237 1063 c 0
 1311 917 1331 753 1288 595 c 0
 1254 470 1153 324 1049 247 c 0
 895 133 685 46 498 84 c 0
 343 116 63 289 130 373 c 0
 165 416 313 310 502 278 c 0
 615 259 755 269 840 314 c 0
 958 376 1064 493 1112 618 c 0
 1155 731 1141 882 1079 986 c 0
 1014 1095 889 1181 768 1221 c 0
 626 1268 499 1273 315 1269 c 1
 309 1087 291 928 268 761 c 0
 246 605 219 300 96 323 c 0
EndSplineSet
EndChar
StartChar: dcroat
Encoding: 273 273 273
Width: 789
Flags: W
LayerCount: 2
Fore
SplineSet
492 1178 m 4
 608 1206 815 1222 808 1112 c 4
 803 1031 666 1058 512 1026 c 4
 415 1006 253 956 230 1026 c 4
 198 1120 395 1155 492 1178 c 4
450 624 m 0
 456 504 244 538 203 466 c 0
 162 394 171 193 218 180 c 0
 280 163 378 373 400 458 c 0
 442 621 443 762 458 926 c 0
 478 1143 493 1582 617 1560 c 0
 701 1545 637 1151 616 950 c 0
 597 772 601 585 546 414 c 0
 500 271 450 115 317 36 c 0
 259 1 150 -3 105 48 c 0
 1 165 6 383 63 539 c 0
 87 605 195 651 264 664 c 0
 326 676 447 687 450 624 c 0
617 1560 m 0
 712 1530 588 1234 576 1070 c 0
 566 935 549 834 542 699 c 0
 535 565 527 404 582 298 c 0
 611 243 745 352 768 252 c 0
 787 170 612 80 535 115 c 0
 416 169 404 324 393 459 c 0
 376 662 395 865 419 1072 c 0
 439 1246 511 1594 617 1560 c 0
EndSplineSet
EndChar
StartChar: Emacron
Encoding: 274 274 274
Width: 1008
Flags: W
LayerCount: 2
Fore
SplineSet
476 1795 m 0
 592 1823 799 1839 792 1729 c 0
 787 1648 650 1675 496 1643 c 0
 399 1623 237 1573 214 1643 c 0
 182 1737 379 1772 476 1795 c 0
-6 1272 m 0
 -21 1391 318 1448 488 1454 c 0
 639 1458 925 1478 918 1346 c 0
 914 1247 618 1273 478 1264 c 0
 311 1253 9 1150 -6 1272 c 0
133 1284 m 0
 255 1312 249 1098 260 965 c 0
 269 863 272 738 250 646 c 0
 230 561 211 475 239 393 c 0
 264 316 314 227 392 204 c 0
 482 178 580 202 671 217 c 0
 763 232 897 247 908 167 c 0
 922 59 719 43 595 21 c 0
 485 1 361 -2 273 46 c 0
 152 113 99 211 64 345 c 0
 36 449 56 557 80 665 c 0
 99 749 99 864 93 946 c 0
 84 1073 27 1260 133 1284 c 0
190 578 m 0
 162 686 345 748 523 768 c 0
 725 790 916 813 916 699 c 0
 916 600 690 616 547 604 c 0
 430 593 213 484 190 578 c 0
EndSplineSet
EndChar
StartChar: emacron
Encoding: 275 275 275
Width: 751
Flags: W
LayerCount: 2
Fore
SplineSet
148 407 m 0
 114 466 231 527 289 563 c 0
 371 613 447 668 437 684 c 0
 426 701 364 667 335 646 c 0
 288 613 267 588 242 552 c 0
 209 504 187 425 192 367 c 0
 196 313 213 246 262 223 c 0
 324 194 392 223 468 276 c 0
 541 327 642 463 689 408 c 0
 742 347 629 216 569 162 c 0
 478 80 356 34 235 54 c 0
 152 68 96 123 67 202 c 0
 20 328 47 447 104 569 c 0
 140 647 193 724 260 772 c 0
 330 822 424 867 501 828 c 0
 571 793 591 736 576 660 c 0
 560 578 480 518 409 475 c 0
 332 428 192 329 148 407 c 0
329 1228 m 0
 445 1256 652 1272 645 1162 c 0
 640 1081 503 1108 349 1076 c 0
 252 1056 90 1006 67 1076 c 0
 35 1170 232 1205 329 1228 c 0
EndSplineSet
EndChar
StartChar: Edotaccent
Encoding: 278 278 278
Width: 1008
Flags: W
LayerCount: 2
Fore
SplineSet
466 1630 m 0
 414 1656 413 1741 438 1793 c 0
 459 1838 512 1905 568 1876 c 0
 635 1842 614 1757 587 1703 c 0
 565 1660 509 1609 466 1630 c 0
-6 1272 m 0
 -21 1391 318 1448 488 1454 c 0
 639 1458 925 1478 918 1346 c 0
 914 1247 618 1273 478 1264 c 0
 311 1253 9 1150 -6 1272 c 0
133 1284 m 0
 255 1312 249 1098 260 965 c 0
 269 863 272 738 250 646 c 0
 230 561 211 475 239 393 c 0
 264 316 314 227 392 204 c 0
 482 178 580 202 671 217 c 0
 763 232 897 247 908 167 c 0
 922 59 719 43 595 21 c 0
 485 1 361 -2 273 46 c 0
 152 113 99 211 64 345 c 0
 36 449 56 557 80 665 c 0
 99 749 99 864 93 946 c 0
 84 1073 27 1260 133 1284 c 0
190 578 m 0
 162 686 345 748 523 768 c 0
 725 790 916 813 916 699 c 0
 916 600 690 616 547 604 c 0
 430 593 213 484 190 578 c 0
EndSplineSet
EndChar
StartChar: edotaccent
Encoding: 279 279 279
Width: 751
Flags: W
LayerCount: 2
Fore
SplineSet
148 407 m 0
 114 466 231 527 289 563 c 0
 371 613 447 668 437 684 c 0
 426 701 364 667 335 646 c 0
 288 613 267 588 242 552 c 0
 209 504 187 425 192 367 c 0
 196 313 213 246 262 223 c 0
 324 194 392 223 468 276 c 0
 541 327 642 463 689 408 c 0
 742 347 629 216 569 162 c 0
 478 80 356 34 235 54 c 0
 152 68 96 123 67 202 c 0
 20 328 47 447 104 569 c 0
 140 647 193 724 260 772 c 0
 330 822 424 867 501 828 c 0
 571 793 591 736 576 660 c 0
 560 578 480 518 409 475 c 0
 332 428 192 329 148 407 c 0
319 1041 m 0
 267 1067 266 1152 291 1204 c 0
 312 1249 365 1316 421 1287 c 0
 488 1253 467 1168 440 1114 c 0
 418 1071 362 1020 319 1041 c 0
EndSplineSet
EndChar
StartChar: Eogonek
Encoding: 280 280 280
Width: 1008
Flags: W
LayerCount: 2
Fore
SplineSet
915 299 m 4
 986 269 866 112 840 28 c 4
 824 -25 811 -108 851 -129 c 4
 913 -161 1016 26 1079 -23 c 4
 1145 -74 1014 -228 925 -261 c 4
 856 -287 778 -276 734 -217 c 4
 667 -128 692 4 720 81 c 4
 757 180 854 324 915 299 c 4
-6 1272 m 0
 -21 1391 318 1448 488 1454 c 0
 639 1458 925 1478 918 1346 c 0
 914 1247 618 1273 478 1264 c 0
 311 1253 9 1150 -6 1272 c 0
133 1284 m 0
 255 1312 249 1098 260 965 c 0
 269 863 272 738 250 646 c 0
 230 561 211 475 239 393 c 0
 264 316 314 227 392 204 c 0
 482 178 582 192 671 217 c 0
 758 242 896 345 932 273 c 0
 973 192 719 44 595 21 c 0
 485 1 361 -2 273 46 c 0
 152 113 99 211 64 345 c 0
 36 449 56 557 80 665 c 0
 99 749 99 864 93 946 c 0
 84 1073 27 1260 133 1284 c 0
190 578 m 0
 162 686 345 748 523 768 c 0
 725 790 916 813 916 699 c 0
 916 600 690 616 547 604 c 0
 430 593 213 484 190 578 c 0
EndSplineSet
EndChar
StartChar: eogonek
Encoding: 281 281 281
Width: 751
Flags: W
LayerCount: 2
Fore
SplineSet
671 418 m 0
 742 388 622 231 596 147 c 0
 580 94 567 11 607 -10 c 0
 669 -42 772 145 835 96 c 0
 901 45 770 -109 681 -142 c 0
 612 -168 534 -157 490 -98 c 0
 423 -9 448 123 476 200 c 0
 513 299 610 443 671 418 c 0
148 407 m 4
 114 466 231 527 289 563 c 4
 371 613 447 668 437 684 c 4
 426 701 364 667 335 646 c 4
 288 613 267 588 242 552 c 4
 209 504 187 425 192 367 c 4
 196 313 213 246 262 223 c 4
 324 194 392 223 468 276 c 4
 541 327 642 463 689 408 c 4
 742 347 629 216 569 162 c 4
 478 80 356 34 235 54 c 4
 152 68 96 123 67 202 c 4
 20 328 47 447 104 569 c 4
 140 647 193 724 260 772 c 4
 330 822 424 867 501 828 c 4
 571 793 591 736 576 660 c 4
 560 578 480 518 409 475 c 4
 332 428 192 329 148 407 c 4
EndSplineSet
EndChar
StartChar: Ecaron
Encoding: 282 282 282
Width: 1008
Flags: W
LayerCount: 2
Fore
SplineSet
313 1944 m 0
 366 1982 446 1880 480 1825 c 0
 517 1764 575 1647 512 1614 c 0
 463 1588 413 1686 383 1733 c 0
 343 1796 253 1901 313 1944 c 0
482 1610 m 0
 416 1639 482 1775 512 1841 c 0
 546 1917 610 2043 675 1991 c 0
 728 1949 649 1835 619 1771 c 0
 586 1700 533 1588 482 1610 c 0
-6 1272 m 0
 -21 1391 318 1448 488 1454 c 0
 639 1458 925 1478 918 1346 c 0
 914 1247 618 1273 478 1264 c 0
 311 1253 9 1150 -6 1272 c 0
133 1284 m 0
 255 1312 249 1098 260 965 c 0
 269 863 272 738 250 646 c 0
 230 561 211 475 239 393 c 0
 264 316 314 227 392 204 c 0
 482 178 580 202 671 217 c 0
 763 232 897 247 908 167 c 0
 922 59 719 43 595 21 c 0
 485 1 361 -2 273 46 c 0
 152 113 99 211 64 345 c 0
 36 449 56 557 80 665 c 0
 99 749 99 864 93 946 c 0
 84 1073 27 1260 133 1284 c 0
190 578 m 0
 162 686 345 748 523 768 c 0
 725 790 916 813 916 699 c 0
 916 600 690 616 547 604 c 0
 430 593 213 484 190 578 c 0
EndSplineSet
EndChar
StartChar: ecaron
Encoding: 283 283 283
Width: 751
Flags: W
LayerCount: 2
Fore
SplineSet
148 407 m 0
 114 466 231 527 289 563 c 0
 371 613 447 668 437 684 c 0
 426 701 364 667 335 646 c 0
 288 613 267 588 242 552 c 0
 209 504 187 425 192 367 c 0
 196 313 213 246 262 223 c 0
 324 194 392 223 468 276 c 0
 541 327 642 463 689 408 c 0
 742 347 629 216 569 162 c 0
 478 80 356 34 235 54 c 0
 152 68 96 123 67 202 c 0
 20 328 47 447 104 569 c 0
 140 647 193 724 260 772 c 0
 330 822 424 867 501 828 c 0
 571 793 591 736 576 660 c 0
 560 578 480 518 409 475 c 0
 332 428 192 329 148 407 c 0
166 1369 m 0
 219 1407 299 1305 333 1250 c 0
 370 1189 428 1072 365 1039 c 0
 316 1013 266 1110 236 1157 c 0
 196 1220 106 1326 166 1369 c 0
335 1035 m 0
 269 1064 335 1200 365 1266 c 0
 399 1342 463 1468 528 1416 c 0
 581 1374 502 1260 472 1196 c 0
 439 1125 386 1013 335 1035 c 0
EndSplineSet
EndChar
StartChar: Gcircumflex
Encoding: 284 284 284
Width: 1495
Flags: W
LayerCount: 2
Fore
SplineSet
820 1643 m 4
 767 1605 687 1707 653 1762 c 4
 616 1823 558 1940 621 1973 c 4
 670 1999 720 1901 750 1854 c 4
 790 1791 880 1686 820 1643 c 4
651 1977 m 4
 717 1948 651 1812 621 1746 c 4
 587 1670 523 1544 458 1596 c 4
 405 1638 484 1752 514 1816 c 4
 547 1887 600 1999 651 1977 c 4
942 1223 m 0
 872 1156 750 1307 682 1292 c 0
 526 1257 348 1115 278 972 c 0
 218 850 199 701 239 572 c 0
 284 425 406 296 552 269 c 0
 714 239 830 273 960 407 c 0
 1033 483 1106 723 1184 701 c 0
 1259 680 1240 544 1180 422 c 0
 1080 217 889 89 655 82 c 0
 450 75 316 152 196 282 c 0
 102 383 52 554 47 692 c 0
 41 870 128 1073 246 1205 c 0
 367 1341 562 1503 772 1466 c 0
 868 1449 1024 1303 942 1223 c 0
810 675 m 0
 808 788 992 762 1129 774 c 0
 1279 787 1459 833 1463 716 c 0
 1466 617 1310 633 1148 612 c 0
 1008 594 812 559 810 675 c 0
EndSplineSet
EndChar
StartChar: gcircumflex
Encoding: 285 285 285
Width: 763
Flags: W
LayerCount: 2
Fore
SplineSet
633 1064 m 4
 580 1026 500 1128 466 1183 c 4
 429 1244 371 1361 434 1394 c 4
 483 1420 533 1322 563 1275 c 4
 603 1212 693 1107 633 1064 c 4
464 1398 m 4
 530 1369 465 1233 435 1167 c 4
 401 1091 336 965 271 1017 c 4
 218 1059 297 1173 327 1237 c 4
 360 1308 413 1420 464 1398 c 4
622 720 m 0
 601 634 553 656 500 650 c 0
 426 641 364 549 331 483 c 0
 297 415 259 296 296 273 c 0
 330 252 415 374 464 449 c 0
 510 520 532 615 595 672 c 0
 649 721 729 675 716 631 c 0
 672 485 606 375 529 273 c 0
 473 200 393 107 303 90 c 0
 238 78 166 106 140 200 c 0
 102 337 142 441 195 560 c 0
 237 655 348 774 447 807 c 0
 520 831 647 824 622 720 c 0
651 691 m 0
 742 703 715 515 716 423 c 0
 718 234 723 101 713 -61 c 0
 705 -199 702 -343 685 -478 c 0
 668 -620 647 -772 546 -872 c 0
 474 -944 361 -984 262 -961 c 0
 185 -943 97 -878 68 -797 c 0
 33 -698 26 -601 54 -499 c 0
 77 -418 124 -268 204 -295 c 0
 287 -323 200 -472 199 -560 c 0
 198 -642 207 -737 273 -767 c 0
 342 -798 433 -769 468 -702 c 0
 524 -595 547 -369 557 -209 c 0
 567 -36 573 132 579 307 c 0
 583 436 526 675 651 691 c 0
EndSplineSet
EndChar
StartChar: Gbreve
Encoding: 286 286 286
Width: 1495
Flags: W
LayerCount: 2
Fore
SplineSet
467 1948 m 0
 541 1948 531 1869 548 1821 c 0
 569 1763 602 1742 645 1748 c 0
 691 1755 728 1796 756 1842 c 0
 786 1891 825 1999 882 1975 c 0
 961 1942 898 1792 840 1716 c 0
 795 1657 729 1603 641 1597 c 0
 553 1591 483 1635 440 1699 c 0
 389 1775 376 1948 467 1948 c 0
942 1223 m 0
 872 1156 750 1307 682 1292 c 0
 526 1257 348 1115 278 972 c 0
 218 850 199 701 239 572 c 0
 284 425 406 296 552 269 c 0
 714 239 830 273 960 407 c 0
 1033 483 1106 723 1184 701 c 0
 1259 680 1240 544 1180 422 c 0
 1080 217 889 89 655 82 c 0
 450 75 316 152 196 282 c 0
 102 383 52 554 47 692 c 0
 41 870 128 1073 246 1205 c 0
 367 1341 562 1503 772 1466 c 0
 868 1449 1024 1303 942 1223 c 0
810 675 m 0
 808 788 992 762 1129 774 c 0
 1279 787 1459 833 1463 716 c 0
 1466 617 1310 633 1148 612 c 0
 1008 594 812 559 810 675 c 0
EndSplineSet
EndChar
StartChar: gbreve
Encoding: 287 287 287
Width: 763
Flags: W
LayerCount: 2
Fore
SplineSet
266 1367 m 0
 340 1367 330 1288 347 1240 c 0
 368 1182 401 1161 444 1167 c 0
 490 1174 527 1215 555 1261 c 0
 585 1310 624 1418 681 1394 c 0
 760 1361 697 1211 639 1135 c 0
 594 1076 528 1022 440 1016 c 0
 352 1010 282 1054 239 1118 c 0
 188 1194 175 1367 266 1367 c 0
622 720 m 0
 601 634 553 656 500 650 c 0
 426 641 364 549 331 483 c 0
 297 415 259 296 296 273 c 0
 330 252 415 374 464 449 c 0
 510 520 532 615 595 672 c 0
 649 721 729 675 716 631 c 0
 672 485 606 375 529 273 c 0
 473 200 393 107 303 90 c 0
 238 78 166 106 140 200 c 0
 102 337 142 441 195 560 c 0
 237 655 348 774 447 807 c 0
 520 831 647 824 622 720 c 0
651 691 m 0
 742 703 715 515 716 423 c 0
 718 234 723 101 713 -61 c 0
 705 -199 702 -343 685 -478 c 0
 668 -620 647 -772 546 -872 c 0
 474 -944 361 -984 262 -961 c 0
 185 -943 97 -878 68 -797 c 0
 33 -698 26 -601 54 -499 c 0
 77 -418 124 -268 204 -295 c 0
 287 -323 200 -472 199 -560 c 0
 198 -642 207 -737 273 -767 c 0
 342 -798 433 -769 468 -702 c 0
 524 -595 547 -369 557 -209 c 0
 567 -36 573 132 579 307 c 0
 583 436 526 675 651 691 c 0
EndSplineSet
EndChar
StartChar: Gdotaccent
Encoding: 288 288 288
Width: 1495
Flags: W
LayerCount: 2
Fore
SplineSet
602 1649 m 0
 550 1675 549 1760 574 1812 c 0
 595 1857 648 1924 704 1895 c 0
 771 1861 750 1776 723 1722 c 0
 701 1679 645 1628 602 1649 c 0
942 1223 m 0
 872 1156 750 1307 682 1292 c 0
 526 1257 348 1115 278 972 c 0
 218 850 199 701 239 572 c 0
 284 425 406 296 552 269 c 0
 714 239 830 273 960 407 c 0
 1033 483 1106 723 1184 701 c 0
 1259 680 1240 544 1180 422 c 0
 1080 217 889 89 655 82 c 0
 450 75 316 152 196 282 c 0
 102 383 52 554 47 692 c 0
 41 870 128 1073 246 1205 c 0
 367 1341 562 1503 772 1466 c 0
 868 1449 1024 1303 942 1223 c 0
810 675 m 0
 808 788 992 762 1129 774 c 0
 1279 787 1459 833 1463 716 c 0
 1466 617 1310 633 1148 612 c 0
 1008 594 812 559 810 675 c 0
EndSplineSet
EndChar
StartChar: gdotaccent
Encoding: 289 289 289
Width: 763
Flags: W
LayerCount: 2
Fore
SplineSet
392 1020 m 0
 340 1046 339 1131 364 1183 c 0
 385 1228 438 1295 494 1266 c 0
 561 1232 540 1147 513 1093 c 0
 491 1050 435 999 392 1020 c 0
622 720 m 0
 601 634 553 656 500 650 c 0
 426 641 364 549 331 483 c 0
 297 415 259 296 296 273 c 0
 330 252 415 374 464 449 c 0
 510 520 532 615 595 672 c 0
 649 721 729 675 716 631 c 0
 672 485 606 375 529 273 c 0
 473 200 393 107 303 90 c 0
 238 78 166 106 140 200 c 0
 102 337 142 441 195 560 c 0
 237 655 348 774 447 807 c 0
 520 831 647 824 622 720 c 0
651 691 m 0
 742 703 715 515 716 423 c 0
 718 234 723 101 713 -61 c 0
 705 -199 702 -343 685 -478 c 0
 668 -620 647 -772 546 -872 c 0
 474 -944 361 -984 262 -961 c 0
 185 -943 97 -878 68 -797 c 0
 33 -698 26 -601 54 -499 c 0
 77 -418 124 -268 204 -295 c 0
 287 -323 200 -472 199 -560 c 0
 198 -642 207 -737 273 -767 c 0
 342 -798 433 -769 468 -702 c 0
 524 -595 547 -369 557 -209 c 0
 567 -36 573 132 579 307 c 0
 583 436 526 675 651 691 c 0
EndSplineSet
EndChar
StartChar: Gcommaaccent
Encoding: 290 290 290
Width: 1495
Flags: W
LayerCount: 2
Fore
SplineSet
621 88 m 4
 712 74 686 -87 656 -185 c 4
 627 -280 522 -442 459 -411 c 4
 379 -372 488 -224 518 -122 c 4
 540 -48 548 99 621 88 c 4
942 1223 m 0
 872 1156 750 1307 682 1292 c 0
 526 1257 348 1115 278 972 c 0
 218 850 199 701 239 572 c 0
 284 425 406 296 552 269 c 0
 714 239 830 273 960 407 c 0
 1033 483 1106 723 1184 701 c 0
 1259 680 1240 544 1180 422 c 0
 1080 217 889 89 655 82 c 0
 450 75 316 152 196 282 c 0
 102 383 52 554 47 692 c 0
 41 870 128 1073 246 1205 c 0
 367 1341 562 1503 772 1466 c 0
 868 1449 1024 1303 942 1223 c 0
810 675 m 0
 808 788 992 762 1129 774 c 0
 1279 787 1459 833 1463 716 c 0
 1466 617 1310 633 1148 612 c 0
 1008 594 812 559 810 675 c 0
EndSplineSet
EndChar
StartChar: gcommaaccent
Encoding: 291 291 291
Width: 763
Flags: W
LayerCount: 2
Fore
SplineSet
600 1352 m 4
 691 1338 665 1177 635 1079 c 4
 606 984 501 822 438 853 c 4
 358 892 467 1040 497 1142 c 4
 519 1216 527 1363 600 1352 c 4
622 720 m 0
 601 634 553 656 500 650 c 0
 426 641 364 549 331 483 c 0
 297 415 259 296 296 273 c 0
 330 252 415 374 464 449 c 0
 510 520 532 615 595 672 c 0
 649 721 729 675 716 631 c 0
 672 485 606 375 529 273 c 0
 473 200 393 107 303 90 c 0
 238 78 166 106 140 200 c 0
 102 337 142 441 195 560 c 0
 237 655 348 774 447 807 c 0
 520 831 647 824 622 720 c 0
651 691 m 0
 742 703 715 515 716 423 c 0
 718 234 723 101 713 -61 c 0
 705 -199 702 -343 685 -478 c 0
 668 -620 647 -772 546 -872 c 0
 474 -944 361 -984 262 -961 c 0
 185 -943 97 -878 68 -797 c 0
 33 -698 26 -601 54 -499 c 0
 77 -418 124 -268 204 -295 c 0
 287 -323 200 -472 199 -560 c 0
 198 -642 207 -737 273 -767 c 0
 342 -798 433 -769 468 -702 c 0
 524 -595 547 -369 557 -209 c 0
 567 -36 573 132 579 307 c 0
 583 436 526 675 651 691 c 0
EndSplineSet
EndChar
StartChar: Hcircumflex
Encoding: 292 292 292
Width: 1243
Flags: W
LayerCount: 2
Fore
SplineSet
837 1584 m 4
 784 1546 704 1648 670 1703 c 4
 633 1764 575 1881 638 1914 c 4
 687 1940 737 1842 767 1795 c 4
 807 1732 897 1627 837 1584 c 4
668 1918 m 4
 734 1889 668 1753 638 1687 c 4
 604 1611 540 1485 475 1537 c 4
 422 1579 501 1693 531 1757 c 4
 564 1828 617 1940 668 1918 c 4
286 1402 m 0
 387 1388 284 938 254 704 c 0
 228 499 245 90 131 96 c 0
 9 102 66 501 85 700 c 0
 109 946 176 1417 286 1402 c 0
190 634 m 0
 197 730 446 706 565 742 c 0
 759 801 966 958 1022 854 c 0
 1074 757 834 680 627 599 c 0
 476 540 182 535 190 634 c 0
1126 1425 m 0
 1227 1414 1116 942 1110 703 c 0
 1104 467 1224 60 1108 36 c 0
 971 7 945 469 946 695 c 0
 947 960 1002 1439 1126 1425 c 0
EndSplineSet
EndChar
StartChar: hcircumflex
Encoding: 293 293 293
Width: 793
Flags: W
LayerCount: 2
Fore
SplineSet
78 1375 m 0
 157 1388 176 1204 189 1078 c 0
 200 971 211 856 218 731 c 0
 225 611 224 541 229 426 c 0
 234 321 239 3 148 -7 c 0
 35 -19 70 241 73 381 c 0
 76 533 57 785 41 968 c 0
 28 1122 5 1363 78 1375 c 0
126 -4 m 0
 40 30 125 370 166 473 c 0
 237 649 354 774 484 775 c 0
 604 776 646 607 656 540 c 0
 672 439 679 403 704 298 c 0
 724 213 753 195 771 113 c 0
 785 49 751 1 685 7 c 0
 617 13 578 150 559 215 c 0
 504 406 522 548 456 555 c 0
 378 563 308 419 273 277 c 0
 240 143 197 -32 126 -4 c 0
557 1573 m 4
 504 1535 424 1637 390 1692 c 4
 353 1753 295 1870 358 1903 c 4
 407 1929 457 1831 487 1784 c 4
 527 1721 617 1616 557 1573 c 4
388 1907 m 4
 454 1878 389 1742 359 1676 c 4
 325 1600 260 1474 195 1526 c 4
 142 1568 221 1682 251 1746 c 4
 284 1817 337 1929 388 1907 c 4
EndSplineSet
EndChar
StartChar: Hbar
Encoding: 294 294 294
Width: 1569
Flags: W
LayerCount: 2
Fore
SplineSet
400 1172 m 0
 593 1220 896 1232 1074 1232 c 0
 1336 1232 1545 1194 1538 1107 c 0
 1532 1029 1281 1078 1034 1074 c 0
 901 1072 622 1062 436 1021 c 0
 224 974 60 880 37 950 c 0
 5 1044 206 1124 400 1172 c 0
448 1402 m 0
 549 1388 446 938 416 704 c 0
 390 499 407 90 293 96 c 0
 171 102 228 501 247 700 c 0
 271 946 338 1417 448 1402 c 0
352 634 m 0
 359 730 608 706 727 742 c 0
 921 801 1128 958 1184 854 c 0
 1236 757 996 680 789 599 c 0
 638 540 344 535 352 634 c 0
1288 1425 m 0
 1389 1414 1278 942 1272 703 c 0
 1266 467 1386 60 1270 36 c 0
 1133 7 1107 469 1108 695 c 0
 1109 960 1164 1439 1288 1425 c 0
EndSplineSet
EndChar
StartChar: hbar
Encoding: 295 295 295
Width: 971
Flags: W
LayerCount: 2
Fore
SplineSet
272 1096 m 0
 388 1124 595 1140 588 1030 c 0
 583 949 446 976 292 944 c 0
 195 924 33 874 10 944 c 0
 -22 1038 175 1073 272 1096 c 0
240 1375 m 0
 319 1388 338 1204 351 1078 c 0
 362 971 373 856 380 731 c 0
 387 611 386 541 391 426 c 0
 396 321 401 3 310 -7 c 0
 197 -19 232 241 235 381 c 0
 238 533 219 785 203 968 c 0
 190 1122 167 1363 240 1375 c 0
288 -4 m 0
 202 30 287 370 328 473 c 0
 399 649 516 774 646 775 c 0
 766 776 808 607 818 540 c 0
 834 439 841 403 866 298 c 0
 886 213 915 195 933 113 c 0
 947 49 913 1 847 7 c 0
 779 13 740 150 721 215 c 0
 666 406 684 548 618 555 c 0
 540 563 470 419 435 277 c 0
 402 143 359 -32 288 -4 c 0
EndSplineSet
EndChar
StartChar: Itilde
Encoding: 296 296 296
Width: 768
Flags: W
LayerCount: 2
Fore
SplineSet
57 1558 m 0
 128 1485 174 1663 268 1676 c 0
 350 1687 386 1618 483 1631 c 0
 575 1643 736 1802 661 1868 c 0
 603 1919 521 1787 460 1786 c 0
 380 1784 347 1855 235 1827 c 0
 110 1796 -4 1621 57 1558 c 0
392 -57 m 0
 264 -90 89 -159 71 -94 c 0
 38 24 226 62 358 94 c 0
 483 124 723 163 721 64 c 0
 719 -42 511 -26 392 -57 c 0
374 1243 m 0
 246 1210 71 1141 53 1206 c 0
 20 1324 208 1362 340 1394 c 0
 465 1424 705 1463 703 1364 c 0
 701 1258 493 1274 374 1243 c 0
368 1328 m 0
 447 1335 452 1206 456 1039 c 0
 459 917 449 582 450 486 c 0
 452 260 466 14 348 23 c 0
 245 31 306 268 302 477 c 0
 300 583 305 889 302 1022 c 0
 299 1181 296 1322 368 1328 c 0
EndSplineSet
EndChar
StartChar: itilde
Encoding: 297 297 297
Width: 355
Flags: W
LayerCount: 2
Fore
SplineSet
-124 1104 m 0
 -53 1031 -7 1209 87 1222 c 0
 169 1233 205 1164 302 1177 c 0
 394 1189 555 1348 480 1414 c 0
 422 1465 340 1333 279 1332 c 0
 199 1330 166 1401 54 1373 c 0
 -71 1342 -185 1167 -124 1104 c 0
153 720 m 0
 263 717 207 509 210 399 c 0
 214 265 263 179 222 93 c 0
 200 47 156 6 112 33 c 0
 42 75 35 270 40 392 c 0
 45 506 39 723 153 720 c 0
EndSplineSet
EndChar
StartChar: Imacron
Encoding: 298 298 298
Width: 768
Flags: W
LayerCount: 2
Fore
SplineSet
349 1805 m 0
 465 1833 672 1849 665 1739 c 0
 660 1658 523 1685 369 1653 c 0
 272 1633 110 1583 87 1653 c 0
 55 1747 252 1782 349 1805 c 0
392 -57 m 0
 264 -90 89 -159 71 -94 c 0
 38 24 226 62 358 94 c 0
 483 124 723 163 721 64 c 0
 719 -42 511 -26 392 -57 c 0
374 1243 m 0
 246 1210 71 1141 53 1206 c 0
 20 1324 208 1362 340 1394 c 0
 465 1424 705 1463 703 1364 c 0
 701 1258 493 1274 374 1243 c 0
368 1328 m 0
 447 1335 452 1206 456 1039 c 0
 459 917 449 582 450 486 c 0
 452 260 466 14 348 23 c 0
 245 31 306 268 302 477 c 0
 300 583 305 889 302 1022 c 0
 299 1181 296 1322 368 1328 c 0
EndSplineSet
EndChar
StartChar: imacron
Encoding: 299 299 299
Width: 355
Flags: W
LayerCount: 2
Fore
SplineSet
150 1353 m 0
 266 1381 473 1397 466 1287 c 0
 461 1206 324 1233 170 1201 c 0
 73 1181 -89 1131 -112 1201 c 0
 -144 1295 53 1330 150 1353 c 0
153 720 m 0
 263 717 207 509 210 399 c 0
 214 265 263 179 222 93 c 0
 200 47 156 6 112 33 c 0
 42 75 35 270 40 392 c 0
 45 506 39 723 153 720 c 0
EndSplineSet
EndChar
StartChar: Iogonek
Encoding: 302 302 302
Width: 768
Flags: W
LayerCount: 2
Fore
SplineSet
707 131 m 0
 778 101 658 -56 632 -140 c 0
 616 -193 603 -276 643 -297 c 0
 705 -329 808 -142 871 -191 c 0
 937 -242 806 -396 717 -429 c 0
 648 -455 570 -444 526 -385 c 0
 459 -296 484 -164 512 -87 c 0
 549 12 646 156 707 131 c 0
392 -57 m 0
 264 -90 89 -159 71 -94 c 0
 38 24 226 62 358 94 c 0
 483 124 715 192 732 89 c 0
 749 -15 511 -26 392 -57 c 0
374 1243 m 0
 246 1210 71 1141 53 1206 c 0
 20 1324 208 1362 340 1394 c 0
 465 1424 705 1463 703 1364 c 0
 701 1258 493 1274 374 1243 c 0
368 1328 m 0
 447 1335 452 1206 456 1039 c 0
 459 917 449 582 450 486 c 0
 452 260 466 14 348 23 c 0
 245 31 306 268 302 477 c 0
 300 583 305 889 302 1022 c 0
 299 1181 296 1322 368 1328 c 0
EndSplineSet
EndChar
StartChar: iogonek
Encoding: 303 303 303
Width: 355
Flags: W
LayerCount: 2
Fore
SplineSet
253 189 m 0
 324 159 204 2 178 -82 c 0
 162 -135 149 -218 189 -239 c 0
 251 -271 354 -84 417 -133 c 0
 483 -184 352 -338 263 -371 c 0
 194 -397 116 -386 72 -327 c 0
 5 -238 30 -106 58 -29 c 0
 95 70 192 214 253 189 c 0
153 720 m 0
 263 717 207 509 210 399 c 0
 214 265 263 179 222 93 c 0
 200 47 156 6 112 33 c 0
 42 75 35 270 40 392 c 0
 45 506 39 723 153 720 c 0
EndSplineSet
EndChar
StartChar: Idotaccent
Encoding: 304 304 304
Width: 768
Flags: W
LayerCount: 2
Fore
SplineSet
321 1631 m 0
 269 1657 268 1742 293 1794 c 0
 314 1839 367 1906 423 1877 c 0
 490 1843 469 1758 442 1704 c 0
 420 1661 364 1610 321 1631 c 0
392 -57 m 0
 264 -90 89 -159 71 -94 c 0
 38 24 226 62 358 94 c 0
 483 124 723 163 721 64 c 0
 719 -42 511 -26 392 -57 c 0
374 1243 m 0
 246 1210 71 1141 53 1206 c 0
 20 1324 208 1362 340 1394 c 0
 465 1424 705 1463 703 1364 c 0
 701 1258 493 1274 374 1243 c 0
368 1328 m 0
 447 1335 452 1206 456 1039 c 0
 459 917 449 582 450 486 c 0
 452 260 466 14 348 23 c 0
 245 31 306 268 302 477 c 0
 300 583 305 889 302 1022 c 0
 299 1181 296 1322 368 1328 c 0
EndSplineSet
EndChar
StartChar: dotlessi
Encoding: 305 305 305
Width: 355
Flags: W
LayerCount: 2
Fore
SplineSet
153 720 m 0
 263 717 207 509 210 399 c 0
 214 265 263 179 222 93 c 0
 200 47 156 6 112 33 c 0
 42 75 35 270 40 392 c 0
 45 506 39 723 153 720 c 0
EndSplineSet
EndChar
StartChar: Jcircumflex
Encoding: 308 308 308
Width: 901
Flags: W
LayerCount: 2
Fore
SplineSet
725 1623 m 4
 672 1585 592 1687 558 1742 c 4
 521 1803 463 1920 526 1953 c 4
 575 1979 625 1881 655 1834 c 4
 695 1771 785 1666 725 1623 c 4
556 1957 m 4
 622 1928 557 1792 527 1726 c 4
 493 1650 428 1524 363 1576 c 4
 310 1618 389 1732 419 1796 c 4
 452 1867 505 1979 556 1957 c 4
263 1094 m 0
 232 1203 435 1253 548 1270 c 0
 651 1286 846 1296 847 1192 c 0
 848 1078 660 1113 547 1097 c 0
 462 1085 287 1010 263 1094 c 0
767 1265 m 0
 869 1241 808 988 812 833 c 0
 813 761 817 642 839 535 c 0
 876 349 849 126 761 -42 c 0
 669 -218 471 -358 278 -337 c 0
 87 -316 10 -123 27 35 c 0
 40 160 89 381 180 365 c 0
 299 345 183 125 194 5 c 0
 200 -62 226 -129 291 -147 c 0
 410 -181 522 -86 594 14 c 0
 676 128 688 266 689 406 c 0
 690 538 658 680 654 812 c 0
 650 934 624 1299 767 1265 c 0
EndSplineSet
EndChar
StartChar: jcircumflex
Encoding: 309 309 309
Width: 703
Flags: W
LayerCount: 2
Fore
SplineSet
658 1283 m 0
 605 1245 525 1347 491 1402 c 0
 454 1463 396 1580 459 1613 c 0
 508 1639 558 1541 588 1494 c 0
 628 1431 718 1326 658 1283 c 0
489 1617 m 0
 555 1588 490 1452 460 1386 c 0
 426 1310 361 1184 296 1236 c 0
 243 1278 322 1392 352 1456 c 0
 385 1527 438 1639 489 1617 c 0
254 518 m 0
 215 591 338 678 415 710 c 0
 487 741 627 768 649 693 c 0
 673 610 521 572 441 540 c 0
 383 517 284 463 254 518 c 0
592 725 m 0
 689 731 666 497 667 403 c 0
 668 266 672 165 671 45 c 0
 669 -124 648 -282 589 -432 c 0
 538 -562 467 -707 351 -785 c 0
 270 -840 171 -843 96 -780 c 0
 20 -716 7 -588 21 -490 c 0
 32 -414 42 -271 119 -280 c 0
 190 -288 168 -374 163 -490 c 0
 161 -547 171 -636 227 -649 c 0
 273 -660 335 -576 371 -520 c 0
 440 -412 476 -294 501 -170 c 0
 531 -23 531 176 529 373 c 0
 528 484 488 719 592 725 c 0
EndSplineSet
EndChar
StartChar: Kcommaaccent
Encoding: 310 310 310
Width: 1221
Flags: W
LayerCount: 2
Fore
SplineSet
568 34 m 4
 659 20 633 -141 603 -239 c 4
 574 -334 469 -496 406 -465 c 4
 326 -426 435 -278 465 -176 c 4
 487 -102 495 45 568 34 c 4
319 1383 m 0
 420 1378 371 952 335 742 c 0
 298 526 244 38 121 53 c 0
 20 65 115 485 159 745 c 0
 197 972 203 1389 319 1383 c 0
1154 1340 m 0
 1236 1277 983 956 850 811 c 0
 702 649 432 419 371 521 c 0
 316 612 591 767 718 904 c 0
 862 1058 1064 1410 1154 1340 c 0
383 574 m 0
 396 669 684 599 845 502 c 0
 973 425 1237 167 1151 95 c 0
 1063 22 880 289 725 378 c 0
 597 451 367 461 383 574 c 0
EndSplineSet
EndChar
StartChar: kcommaaccent
Encoding: 311 311 311
Width: 789
Flags: W
LayerCount: 2
Fore
SplineSet
379 15 m 4
 470 1 444 -160 414 -258 c 4
 385 -353 280 -515 217 -484 c 4
 137 -445 246 -297 276 -195 c 4
 298 -121 306 26 379 15 c 4
88 1489 m 0
 158 1495 177 1220 186 1114 c 0
 196 997 198 886 204 748 c 0
 208 653 204 502 204 385 c 0
 204 286 203 26 129 14 c 0
 10 -6 57 377 54 509 c 0
 50 675 46 913 29 1096 c 0
 17 1223 -1 1481 88 1489 c 0
110 15 m 0
 16 41 64 347 97 469 c 0
 130 593 181 716 253 809 c 0
 326 903 464 969 562 939 c 0
 648 913 691 820 667 719 c 0
 639 603 554 512 463 424 c 0
 416 379 332 306 278 343 c 0
 217 386 293 464 342 520 c 0
 405 591 557 755 507 793 c 0
 469 822 342 708 282 568 c 0
 247 485 211 335 204 235 c 0
 199 154 182 -5 110 15 c 0
273 430 m 0
 342 528 562 369 635 274 c 0
 711 174 818 37 746 -17 c 0
 686 -62 578 62 495 173 c 0
 411 285 212 344 273 430 c 0
EndSplineSet
EndChar
StartChar: kgreenlandic
Encoding: 312 312 312
Width: 805
Flags: W
LayerCount: 2
Fore
SplineSet
158 907 m 0
 261 907 223 609 210 460 c 0
 197 309 216 9 83 25 c 0
 -26 38 32 314 44 458 c 0
 56 612 36 907 158 907 c 0
721 895 m 0
 811 829 627 638 536 541 c 0
 462 462 321 305 249 386 c 0
 172 474 331 569 399 640 c 0
 495 741 634 959 721 895 c 0
244 478 m 0
 313 559 504 424 583 352 c 0
 668 274 841 119 758 39 c 0
 668 -47 530 179 428 250 c 0
 312 331 184 408 244 478 c 0
EndSplineSet
EndChar
StartChar: Lacute
Encoding: 313 313 313
Width: 1058
Flags: W
LayerCount: 2
Fore
SplineSet
495 2043 m 4
 426 2107 341 1980 288 1901 c 4
 226 1808 145 1667 217 1627 c 4
 278 1593 330 1713 381 1792 c 4
 438 1880 552 1990 495 2043 c 4
238 1487 m 0
 341 1485 301 1158 302 947 c 0
 303 759 248 400 235 279 c 1
 339 289 508 307 626 313 c 0
 801 323 1044 362 1039 229 c 0
 1035 123 768 139 582 122 c 0
 415 106 270 100 151 90 c 0
 41 82 50 208 56 288 c 0
 67 425 107 610 113 742 c 0
 118 856 127 984 127 1100 c 0
 127 1250 116 1490 238 1487 c 0
EndSplineSet
EndChar
StartChar: lacute
Encoding: 314 314 314
Width: 549
Flags: W
LayerCount: 2
Fore
SplineSet
473 2099 m 4
 404 2163 319 2036 266 1957 c 4
 204 1864 123 1723 195 1683 c 4
 256 1649 308 1769 359 1848 c 4
 416 1936 530 2046 473 2099 c 4
201 1578 m 0
 291 1567 254 1412 244 1325 c 0
 221 1126 204 883 199 709 c 0
 195 547 217 265 283 253 c 0
 380 236 364 427 459 405 c 0
 570 379 517 174 402 83 c 0
 309 10 175 45 134 118 c 0
 55 257 33 526 36 775 c 0
 39 1023 74 1593 201 1578 c 0
EndSplineSet
EndChar
StartChar: Lcommaaccent
Encoding: 315 315 315
Width: 1058
Flags: W
LayerCount: 2
Fore
SplineSet
529 88 m 4
 620 74 594 -87 564 -185 c 4
 535 -280 430 -442 367 -411 c 4
 287 -372 396 -224 426 -122 c 4
 448 -48 456 99 529 88 c 4
238 1487 m 0
 341 1485 301 1158 302 947 c 0
 303 759 248 400 235 279 c 1
 339 289 508 307 626 313 c 0
 801 323 1044 362 1039 229 c 0
 1035 123 768 139 582 122 c 0
 415 106 270 100 151 90 c 0
 41 82 50 208 56 288 c 0
 67 425 107 610 113 742 c 0
 118 856 127 984 127 1100 c 0
 127 1250 116 1490 238 1487 c 0
EndSplineSet
EndChar
StartChar: lcommaaccent
Encoding: 316 316 316
Width: 549
Flags: W
LayerCount: 2
Fore
SplineSet
288 0 m 4
 379 -14 353 -175 323 -273 c 4
 294 -368 189 -530 126 -499 c 4
 46 -460 155 -312 185 -210 c 4
 207 -136 215 11 288 0 c 4
201 1578 m 0
 291 1567 254 1412 244 1325 c 0
 221 1126 204 883 199 709 c 0
 195 547 217 265 283 253 c 0
 380 236 364 427 459 405 c 0
 570 379 517 174 402 83 c 0
 309 10 175 45 134 118 c 0
 55 257 33 526 36 775 c 0
 39 1023 74 1593 201 1578 c 0
EndSplineSet
EndChar
StartChar: Lcaron
Encoding: 317 317 317
Width: 1058
Flags: W
LayerCount: 2
Fore
SplineSet
761 1780 m 4
 692 1844 607 1717 554 1638 c 4
 492 1545 411 1404 483 1364 c 4
 544 1330 596 1450 647 1529 c 4
 704 1617 818 1727 761 1780 c 4
238 1487 m 0
 341 1485 301 1158 302 947 c 0
 303 759 248 400 235 279 c 1
 339 289 508 307 626 313 c 0
 801 323 1044 362 1039 229 c 0
 1035 123 768 139 582 122 c 0
 415 106 270 100 151 90 c 0
 41 82 50 208 56 288 c 0
 67 425 107 610 113 742 c 0
 118 856 127 984 127 1100 c 0
 127 1250 116 1490 238 1487 c 0
EndSplineSet
EndChar
StartChar: lcaron
Encoding: 318 318 318
Width: 549
Flags: W
LayerCount: 2
Fore
SplineSet
656 1880 m 4
 587 1944 501 1817 448 1738 c 4
 386 1645 306 1504 378 1464 c 4
 439 1430 491 1550 542 1629 c 4
 599 1717 713 1827 656 1880 c 4
201 1578 m 0
 291 1567 254 1412 244 1325 c 0
 221 1126 204 883 199 709 c 0
 195 547 217 265 283 253 c 0
 380 236 364 427 459 405 c 0
 570 379 517 174 402 83 c 0
 309 10 175 45 134 118 c 0
 55 257 33 526 36 775 c 0
 39 1023 74 1593 201 1578 c 0
EndSplineSet
EndChar
StartChar: Lslash
Encoding: 321 321 321
Width: 1058
Flags: W
LayerCount: 2
Fore
SplineSet
169 984 m 4
 263 1058 481 1175 521 1072 c 4
 550 996 377 948 251 854 c 4
 171 795 6 638 -45 692 c 4
 -113 765 91 922 169 984 c 4
238 1487 m 0
 341 1485 301 1158 302 947 c 0
 303 759 248 400 235 279 c 1
 339 289 508 307 626 313 c 0
 801 323 1044 362 1039 229 c 0
 1035 123 768 139 582 122 c 0
 415 106 270 100 151 90 c 0
 41 82 50 208 56 288 c 0
 67 425 107 610 113 742 c 0
 118 856 127 984 127 1100 c 0
 127 1250 116 1490 238 1487 c 0
EndSplineSet
EndChar
StartChar: lslash
Encoding: 322 322 322
Width: 549
Flags: W
LayerCount: 2
Fore
SplineSet
95 977 m 4
 189 1051 407 1168 447 1065 c 4
 476 989 303 941 177 847 c 4
 97 788 -68 631 -119 685 c 4
 -187 758 17 915 95 977 c 4
201 1578 m 0
 291 1567 254 1412 244 1325 c 0
 221 1126 204 883 199 709 c 0
 195 547 217 265 283 253 c 0
 380 236 364 427 459 405 c 0
 570 379 517 174 402 83 c 0
 309 10 175 45 134 118 c 0
 55 257 33 526 36 775 c 0
 39 1023 74 1593 201 1578 c 0
EndSplineSet
EndChar
StartChar: Nacute
Encoding: 323 323 323
Width: 1074
Flags: W
LayerCount: 2
Fore
SplineSet
773 1815 m 0
 704 1879 619 1752 566 1673 c 0
 504 1580 423 1439 495 1399 c 0
 556 1365 608 1485 659 1564 c 0
 716 1652 830 1762 773 1815 c 0
53 78 m 0
 -41 96 36 467 60 708 c 0
 79 906 70 1223 178 1235 c 0
 306 1249 358 989 444 809 c 0
 512 666 654 295 757 337 c 0
 858 378 853 665 859 821 c 0
 866 1003 826 1290 940 1296 c 0
 1042 1301 1041 994 1034 779 c 0
 1027 565 1020 230 817 160 c 0
 629 95 479 323 406 461 c 0
 348 569 275 746 244 820 c 1
 242 744 213 486 194 341 c 0
 178 219 160 56 53 78 c 0
EndSplineSet
EndChar
StartChar: nacute
Encoding: 324 324 324
Width: 643
Flags: W
LayerCount: 2
Fore
SplineSet
544 1385 m 0
 475 1449 389 1322 336 1243 c 0
 274 1150 194 1009 266 969 c 0
 327 935 379 1055 430 1134 c 0
 487 1222 601 1332 544 1385 c 0
106 775 m 0
 209 783 184 539 181 399 c 0
 178 274 195 -5 89 25 c 0
 7 49 32 247 43 380 c 0
 54 512 8 767 106 775 c 0
452 304 m 0
 449 387 465 606 412 610 c 0
 343 615 320 466 277 351 c 0
 235 239 166 -11 84 28 c 0
 -3 69 94 267 132 366 c 0
 179 489 186 534 245 647 c 0
 290 734 379 811 466 781 c 0
 537 757 573 701 585 605 c 0
 597 504 598 388 603 307 c 0
 611 167 624 28 558 24 c 0
 488 19 461 90 452 304 c 0
EndSplineSet
EndChar
StartChar: Ncommaaccent
Encoding: 325 325 325
Width: 1074
Flags: W
LayerCount: 2
Fore
SplineSet
491 33 m 4
 582 19 556 -142 526 -240 c 4
 497 -335 392 -497 329 -466 c 4
 249 -427 358 -279 388 -177 c 4
 410 -103 418 44 491 33 c 4
53 78 m 0
 -41 96 36 467 60 708 c 0
 79 906 70 1223 178 1235 c 0
 306 1249 358 989 444 809 c 0
 512 666 654 295 757 337 c 0
 858 378 853 665 859 821 c 0
 866 1003 826 1290 940 1296 c 0
 1042 1301 1041 994 1034 779 c 0
 1027 565 1020 230 817 160 c 0
 629 95 479 323 406 461 c 0
 348 569 275 746 244 820 c 1
 242 744 213 486 194 341 c 0
 178 219 160 56 53 78 c 0
EndSplineSet
EndChar
StartChar: ncommaaccent
Encoding: 326 326 326
Width: 643
Flags: W
LayerCount: 2
Fore
SplineSet
310 10 m 0
 401 -4 375 -165 345 -263 c 0
 316 -358 211 -520 148 -489 c 0
 68 -450 177 -302 207 -200 c 0
 229 -126 237 21 310 10 c 0
106 775 m 0
 209 783 184 539 181 399 c 0
 178 274 195 -5 89 25 c 0
 7 49 32 247 43 380 c 0
 54 512 8 767 106 775 c 0
452 304 m 0
 449 387 465 606 412 610 c 0
 343 615 320 466 277 351 c 0
 235 239 166 -11 84 28 c 0
 -3 69 94 267 132 366 c 0
 179 489 186 534 245 647 c 0
 290 734 379 811 466 781 c 0
 537 757 573 701 585 605 c 0
 597 504 598 388 603 307 c 0
 611 167 624 28 558 24 c 0
 488 19 461 90 452 304 c 0
EndSplineSet
EndChar
StartChar: Ncaron
Encoding: 327 327 327
Width: 1074
Flags: W
LayerCount: 2
Fore
SplineSet
325 1731 m 0
 378 1769 458 1667 492 1612 c 0
 529 1551 587 1434 524 1401 c 0
 475 1375 425 1472 395 1519 c 0
 355 1582 265 1688 325 1731 c 0
494 1397 m 0
 428 1426 494 1562 524 1628 c 0
 558 1704 622 1830 687 1778 c 0
 740 1736 661 1622 631 1558 c 0
 598 1487 545 1375 494 1397 c 0
53 78 m 0
 -41 96 36 467 60 708 c 0
 79 906 70 1223 178 1235 c 0
 306 1249 358 989 444 809 c 0
 512 666 654 295 757 337 c 0
 858 378 853 665 859 821 c 0
 866 1003 826 1290 940 1296 c 0
 1042 1301 1041 994 1034 779 c 0
 1027 565 1020 230 817 160 c 0
 629 95 479 323 406 461 c 0
 348 569 275 746 244 820 c 1
 242 744 213 486 194 341 c 0
 178 219 160 56 53 78 c 0
EndSplineSet
EndChar
StartChar: ncaron
Encoding: 328 328 328
Width: 643
Flags: W
LayerCount: 2
Fore
SplineSet
110 1306 m 0
 163 1344 243 1242 277 1187 c 0
 314 1126 372 1009 309 976 c 0
 260 950 210 1047 180 1094 c 0
 140 1157 50 1263 110 1306 c 0
279 972 m 0
 213 1001 278 1137 308 1203 c 0
 342 1279 407 1405 472 1353 c 0
 525 1311 446 1197 416 1133 c 0
 383 1062 330 950 279 972 c 0
106 775 m 0
 209 783 184 539 181 399 c 0
 178 274 195 -5 89 25 c 0
 7 49 32 247 43 380 c 0
 54 512 8 767 106 775 c 0
452 304 m 0
 449 387 465 606 412 610 c 0
 343 615 320 466 277 351 c 0
 235 239 166 -11 84 28 c 0
 -3 69 94 267 132 366 c 0
 179 489 186 534 245 647 c 0
 290 734 379 811 466 781 c 0
 537 757 573 701 585 605 c 0
 597 504 598 388 603 307 c 0
 611 167 624 28 558 24 c 0
 488 19 461 90 452 304 c 0
EndSplineSet
EndChar
StartChar: Eng
Encoding: 330 330 330
Width: 1129
Flags: W
LayerCount: 2
Fore
SplineSet
104 1323 m 0
 215 1349 211 1056 212 927 c 0
 213 808 213 579 206 412 c 0
 196 184 191 62 84 74 c 0
 11 82 30 222 36 439 c 0
 41 594 45 783 45 888 c 0
 44 1038 17 1303 104 1323 c 0
112 197 m 0
 45 207 63 439 128 644 c 0
 175 793 244 935 271 983 c 0
 345 1115 408 1198 475 1261 c 0
 555 1336 644 1393 778 1376 c 0
 915 1359 1025 1146 1045 1000 c 0
 1068 833 1078 681 1081 526 c 0
 1085 343 1083 86 1027 -112 c 0
 970 -313 680 -772 564 -668 c 0
 455 -570 601 -502 695 -364 c 0
 791 -223 853 -102 887 66 c 0
 919 221 914 615 897 824 c 0
 886 958 842 1179 719 1188 c 0
 615 1196 489 1026 417 888 c 0
 366 790 308 675 265 547 c 0
 207 375 181 187 112 197 c 0
EndSplineSet
EndChar
StartChar: eng
Encoding: 331 331 331
Width: 733
Flags: W
LayerCount: 2
Fore
SplineSet
80 614 m 0
 172 632 186 450 196 357 c 0
 208 242 236 16 120 19 c 0
 21 21 47 213 40 312 c 0
 33 412 -19 595 80 614 c 0
101 21 m 0
 9 54 97 253 132 345 c 0
 169 443 223 554 294 630 c 0
 349 688 414 709 492 684 c 0
 594 651 652 527 679 423 c 0
 715 285 711 90 700 -77 c 0
 688 -260 641 -439 536 -590 c 0
 470 -684 322 -827 249 -739 c 0
 178 -654 373 -555 430 -465 c 0
 497 -358 536 -206 552 -67 c 0
 567 64 558 240 541 342 c 0
 529 413 479 522 424 519 c 0
 368 516 327 412 289 320 c 0
 246 216 192 -12 101 21 c 0
EndSplineSet
EndChar
StartChar: Omacron
Encoding: 332 332 332
Width: 1106
Flags: W
LayerCount: 2
Fore
SplineSet
534 1765 m 4
 650 1793 857 1809 850 1699 c 4
 845 1618 708 1645 554 1613 c 4
 457 1593 295 1543 272 1613 c 4
 240 1707 437 1742 534 1765 c 4
577 1435 m 0
 725 1447 928 1298 993 1090 c 0
 1061 870 1076 560 926 279 c 0
 842 122 655 48 477 69 c 0
 278 93 168 231 107 381 c 0
 17 602 41 914 140 1109 c 0
 240 1306 363 1418 577 1435 c 0
676 1237 m 0
 602 1278 498 1244 428 1199 c 0
 325 1133 263 1011 235 891 c 0
 203 755 216 535 280 408 c 0
 329 312 411 261 494 245 c 0
 588 227 683 253 734 306 c 0
 859 436 881 658 881 838 c 0
 881 953 804 1166 676 1237 c 0
EndSplineSet
EndChar
StartChar: omacron
Encoding: 333 333 333
Width: 663
Flags: W
LayerCount: 2
Fore
SplineSet
296 1314 m 0
 412 1342 619 1358 612 1248 c 0
 607 1167 470 1194 316 1162 c 0
 219 1142 57 1092 34 1162 c 0
 2 1256 199 1291 296 1314 c 0
368 907 m 0
 487 906 589 813 618 698 c 0
 654 557 643 358 571 220 c 0
 511 105 427 14 250 24 c 0
 140 30 51 161 37 262 c 0
 18 397 16 520 68 653 c 0
 118 781 226 908 368 907 c 0
357 728 m 0
 281 728 223 643 204 578 c 0
 182 504 180 411 189 338 c 0
 196 281 232 212 291 210 c 0
 368 207 406 252 432 317 c 0
 467 403 475 482 472 567 c 0
 470 639 421 728 357 728 c 0
EndSplineSet
EndChar
StartChar: Ohungarumlaut
Encoding: 336 336 336
Width: 1106
Flags: W
LayerCount: 2
Fore
SplineSet
907 1993 m 0
 838 2057 753 1930 700 1851 c 0
 638 1758 557 1617 629 1577 c 0
 690 1543 742 1663 793 1742 c 0
 850 1830 964 1940 907 1993 c 0
622 1989 m 0
 553 2053 467 1926 414 1847 c 0
 352 1754 272 1613 344 1573 c 0
 405 1539 457 1659 508 1738 c 0
 565 1826 679 1936 622 1989 c 0
577 1435 m 0
 725 1447 928 1298 993 1090 c 0
 1061 870 1076 560 926 279 c 0
 842 122 655 48 477 69 c 0
 278 93 168 231 107 381 c 0
 17 602 41 914 140 1109 c 0
 240 1306 363 1418 577 1435 c 0
676 1237 m 0
 602 1278 498 1244 428 1199 c 0
 325 1133 263 1011 235 891 c 0
 203 755 216 535 280 408 c 0
 329 312 411 261 494 245 c 0
 588 227 683 253 734 306 c 0
 859 436 881 658 881 838 c 0
 881 953 804 1166 676 1237 c 0
EndSplineSet
EndChar
StartChar: ohungarumlaut
Encoding: 337 337 337
Width: 649
Flags: W
LayerCount: 2
Fore
SplineSet
662 1472 m 4
 593 1536 507 1409 454 1330 c 4
 392 1237 312 1096 384 1056 c 4
 445 1022 497 1142 548 1221 c 4
 605 1309 719 1419 662 1472 c 4
377 1468 m 4
 308 1532 223 1405 170 1326 c 4
 108 1233 27 1092 99 1052 c 4
 160 1018 212 1138 263 1217 c 4
 320 1305 434 1415 377 1468 c 4
354 907 m 0
 473 906 575 813 604 698 c 0
 640 557 629 358 557 220 c 0
 497 105 413 14 236 24 c 0
 126 30 37 161 23 262 c 0
 4 397 2 520 54 653 c 0
 104 781 212 908 354 907 c 0
343 728 m 0
 267 728 209 643 190 578 c 0
 168 504 166 411 175 338 c 0
 182 281 218 212 277 210 c 0
 354 207 392 252 418 317 c 0
 453 403 461 482 458 567 c 0
 456 639 407 728 343 728 c 0
EndSplineSet
EndChar
StartChar: OE
Encoding: 338 338 338
Width: 1657
Flags: W
LayerCount: 2
Fore
SplineSet
948 1267 m 0
 884 1206 781 1379 692 1379 c 0
 578 1379 480 1326 407 1237 c 0
 307 1115 243 968 214 859 c 0
 180 731 172 566 183 456 c 0
 195 330 241 221 367 204 c 0
 475 190 556 238 663 331 c 0
 767 421 856 644 938 617 c 0
 1068 575 856 299 744 190 c 0
 631 80 485 4 333 26 c 0
 164 50 69 201 45 333 c 0
 8 531 24 716 70 899 c 0
 118 1093 199 1235 334 1386 c 0
 431 1494 609 1572 752 1542 c 0
 868 1518 1034 1348 948 1267 c 0
1629 1505 m 0
 1620 1392 1419 1452 1262 1415 c 0
 1058 1367 896 1209 853 1299 c 0
 794 1424 1064 1556 1219 1592 c 0
 1374 1628 1640 1638 1629 1505 c 0
946 1396 m 0
 1060 1409 1019 1168 1020 983 c 0
 1021 849 997 675 989 521 c 0
 983 398 977 310 1031 272 c 0
 1097 225 1212 285 1307 328 c 0
 1422 380 1537 516 1615 430 c 0
 1672 367 1449 195 1324 136 c 0
 1205 80 1042 35 929 102 c 0
 839 155 801 289 815 434 c 0
 832 611 836 715 853 927 c 0
 865 1085 828 1383 946 1396 c 0
899 695 m 0
 843 808 1057 882 1177 921 c 0
 1293 959 1544 1033 1553 911 c 0
 1560 819 1345 805 1215 759 c 0
 1094 717 940 613 899 695 c 0
EndSplineSet
EndChar
StartChar: oe
Encoding: 339 339 339
Width: 1212
Flags: W
LayerCount: 2
Fore
SplineSet
615 656 m 0
 567 598 468 698 423 691 c 0
 343 678 283 634 236 568 c 0
 190 504 165 423 183 348 c 0
 197 290 289 231 352 250 c 0
 460 282 579 381 673 471 c 0
 759 553 900 746 861 773 c 0
 820 802 728 693 676 602 c 0
 630 522 605 374 648 292 c 0
 682 227 722 174 795 180 c 0
 859 185 939 248 993 301 c 0
 1065 372 1119 448 1166 429 c 0
 1244 398 1124 222 1047 150 c 0
 965 72 842 -2 714 17 c 0
 624 31 547 112 506 193 c 0
 463 278 457 422 477 516 c 0
 499 618 561 728 633 803 c 0
 716 889 863 975 951 917 c 0
 1064 843 1021 655 929 545 c 0
 862 465 795 372 698 287 c 0
 609 208 511 107 338 78 c 0
 258 65 142 120 88 180 c 0
 28 247 7 369 32 473 c 0
 57 579 113 681 193 749 c 0
 262 808 356 854 446 844 c 0
 537 834 669 721 615 656 c 0
EndSplineSet
EndChar
StartChar: Racute
Encoding: 340 340 340
Width: 1081
Flags: W
LayerCount: 2
Fore
SplineSet
697 2219 m 4
 628 2283 543 2156 490 2077 c 4
 428 1984 347 1843 419 1803 c 4
 480 1769 532 1889 583 1968 c 4
 640 2056 754 2166 697 2219 c 4
295 583 m 0
 316 700 544 571 664 500 c 0
 837 398 1117 109 1028 36 c 0
 947 -31 725 287 592 352 c 0
 452 420 279 494 295 583 c 0
149 1440 m 0
 285 1439 240 1006 238 791 c 0
 236 538 282 42 151 37 c 0
 7 31 55 513 61 755 c 0
 66 984 30 1441 149 1440 c 0
133 46 m 0
 11 56 67 506 78 738 c 0
 89 967 125 1219 190 1440 c 0
 214 1523 275 1611 371 1618 c 0
 579 1634 810 1477 929 1290 c 0
 1000 1180 1045 1062 1001 938 c 0
 955 810 839 692 715 634 c 0
 590 575 295 438 280 565 c 0
 267 669 507 704 633 784 c 0
 741 852 864 974 853 1074 c 0
 846 1134 771 1240 680 1320 c 0
 582 1406 465 1463 398 1441 c 0
 300 1409 271 975 250 743 c 0
 229 511 284 34 133 46 c 0
EndSplineSet
EndChar
StartChar: racute
Encoding: 341 341 341
Width: 751
Flags: W
LayerCount: 2
Fore
SplineSet
592 1472 m 4
 523 1536 437 1409 384 1330 c 4
 322 1237 242 1096 314 1056 c 4
 375 1022 427 1142 478 1221 c 4
 535 1309 649 1419 592 1472 c 4
60 785 m 0
 154 837 230 616 234 487 c 0
 239 343 254 -9 131 32 c 0
 28 66 81 314 76 463 c 0
 73 564 -28 736 60 785 c 0
140 32 m 0
 4 60 84 336 133 466 c 0
 172 569 228 667 302 739 c 0
 338 774 412 842 479 852 c 0
 586 868 694 800 665 724 c 0
 620 605 519 724 446 657 c 0
 379 596 304 480 266 388 c 0
 221 278 257 8 140 32 c 0
EndSplineSet
EndChar
StartChar: Rcommaaccent
Encoding: 342 342 342
Width: 1081
Flags: W
LayerCount: 2
Fore
SplineSet
515 18 m 0
 606 4 580 -157 550 -255 c 0
 521 -350 416 -512 353 -481 c 0
 273 -442 382 -294 412 -192 c 0
 434 -118 442 29 515 18 c 0
295 583 m 0
 316 700 544 571 664 500 c 0
 837 398 1117 109 1028 36 c 0
 947 -31 725 287 592 352 c 0
 452 420 279 494 295 583 c 0
149 1440 m 0
 285 1439 240 1006 238 791 c 0
 236 538 282 42 151 37 c 0
 7 31 55 513 61 755 c 0
 66 984 30 1441 149 1440 c 0
133 46 m 0
 11 56 67 506 78 738 c 0
 89 967 125 1219 190 1440 c 0
 214 1523 275 1611 371 1618 c 0
 579 1634 810 1477 929 1290 c 0
 1000 1180 1045 1062 1001 938 c 0
 955 810 839 692 715 634 c 0
 590 575 295 438 280 565 c 0
 267 669 507 704 633 784 c 0
 741 852 864 974 853 1074 c 0
 846 1134 771 1240 680 1320 c 0
 582 1406 465 1463 398 1441 c 0
 300 1409 271 975 250 743 c 0
 229 511 284 34 133 46 c 0
EndSplineSet
EndChar
StartChar: rcommaaccent
Encoding: 343 343 343
Width: 751
Flags: W
LayerCount: 2
Fore
SplineSet
202 -39 m 4
 293 -53 267 -214 237 -312 c 4
 208 -407 103 -569 40 -538 c 4
 -40 -499 69 -351 99 -249 c 4
 121 -175 129 -28 202 -39 c 4
60 785 m 0
 154 837 230 616 234 487 c 0
 239 343 254 -9 131 32 c 0
 28 66 81 314 76 463 c 0
 73 564 -28 736 60 785 c 0
140 32 m 0
 4 60 84 336 133 466 c 0
 172 569 228 667 302 739 c 0
 338 774 412 842 479 852 c 0
 586 868 694 800 665 724 c 0
 620 605 519 724 446 657 c 0
 379 596 304 480 266 388 c 0
 221 278 257 8 140 32 c 0
EndSplineSet
EndChar
StartChar: Rcaron
Encoding: 344 344 344
Width: 1081
Flags: W
LayerCount: 2
Fore
SplineSet
260 2142 m 0
 313 2180 393 2078 427 2023 c 0
 464 1962 522 1845 459 1812 c 0
 410 1786 360 1884 330 1931 c 0
 290 1994 200 2099 260 2142 c 0
429 1808 m 0
 363 1837 429 1973 459 2039 c 0
 493 2115 557 2241 622 2189 c 0
 675 2147 596 2033 566 1969 c 0
 533 1898 480 1786 429 1808 c 0
295 583 m 0
 316 700 544 571 664 500 c 0
 837 398 1117 109 1028 36 c 0
 947 -31 725 287 592 352 c 0
 452 420 279 494 295 583 c 0
149 1440 m 0
 285 1439 240 1006 238 791 c 0
 236 538 282 42 151 37 c 0
 7 31 55 513 61 755 c 0
 66 984 30 1441 149 1440 c 0
133 46 m 0
 11 56 67 506 78 738 c 0
 89 967 125 1219 190 1440 c 0
 214 1523 275 1611 371 1618 c 0
 579 1634 810 1477 929 1290 c 0
 1000 1180 1045 1062 1001 938 c 0
 955 810 839 692 715 634 c 0
 590 575 295 438 280 565 c 0
 267 669 507 704 633 784 c 0
 741 852 864 974 853 1074 c 0
 846 1134 771 1240 680 1320 c 0
 582 1406 465 1463 398 1441 c 0
 300 1409 271 975 250 743 c 0
 229 511 284 34 133 46 c 0
EndSplineSet
EndChar
StartChar: rcaron
Encoding: 345 345 345
Width: 751
Flags: W
LayerCount: 2
Fore
SplineSet
145 1390 m 0
 198 1428 278 1326 312 1271 c 0
 349 1210 407 1093 344 1060 c 0
 295 1034 245 1131 215 1178 c 0
 175 1241 85 1347 145 1390 c 0
314 1056 m 0
 248 1085 313 1221 343 1287 c 0
 377 1363 442 1489 507 1437 c 0
 560 1395 481 1281 451 1217 c 0
 418 1146 365 1034 314 1056 c 0
60 785 m 0
 154 837 230 616 234 487 c 0
 239 343 254 -9 131 32 c 0
 28 66 81 314 76 463 c 0
 73 564 -28 736 60 785 c 0
140 32 m 0
 4 60 84 336 133 466 c 0
 172 569 228 667 302 739 c 0
 338 774 412 842 479 852 c 0
 586 868 694 800 665 724 c 0
 620 605 519 724 446 657 c 0
 379 596 304 480 266 388 c 0
 221 278 257 8 140 32 c 0
EndSplineSet
EndChar
StartChar: Sacute
Encoding: 346 346 346
Width: 1182
Flags: W
LayerCount: 2
Fore
SplineSet
785 2043 m 4
 716 2107 631 1980 578 1901 c 4
 516 1808 435 1667 507 1627 c 4
 568 1593 620 1713 671 1792 c 4
 728 1880 842 1990 785 2043 c 4
763 1303 m 0
 710 1268 665 1330 629 1320 c 0
 557 1301 480 1256 408 1198 c 0
 308 1119 230 1043 246 1002 c 0
 268 946 520 978 764 952 c 0
 1027 923 1128 750 1123 642 c 0
 1115 444 979 232 805 119 c 0
 693 47 517 35 391 60 c 0
 246 89 12 226 73 329 c 0
 125 417 290 269 390 251 c 0
 496 232 578 224 674 266 c 0
 762 304 826 364 875 446 c 0
 919 520 958 614 924 678 c 0
 866 789 720 781 589 785 c 0
 443 790 276 771 145 836 c 0
 66 874 34 926 36 994 c 0
 40 1098 134 1182 212 1252 c 0
 349 1376 569 1531 709 1487 c 0
 780 1464 825 1344 763 1303 c 0
EndSplineSet
EndChar
StartChar: sacute
Encoding: 347 347 347
Width: 654
Flags: W
LayerCount: 2
Fore
SplineSet
444 737 m 0
 425 683 305 725 262 694 c 0
 223 666 160 579 173 550 c 0
 189 514 317 527 390 533 c 0
 471 540 550 525 593 458 c 0
 651 369 652 300 610 202 c 0
 568 106 431 31 302 16 c 0
 203 5 -30 66 16 180 c 0
 49 260 208 174 282 179 c 0
 353 184 420 216 463 263 c 0
 505 310 485 373 439 382 c 0
 389 391 262 357 139 382 c 0
 70 396 13 446 13 517 c 0
 13 592 37 648 72 701 c 0
 125 780 208 842 303 847 c 0
 368 850 466 798 444 737 c 0
538 1379 m 0
 469 1443 383 1316 330 1237 c 0
 268 1144 188 1003 260 963 c 0
 321 929 373 1049 424 1128 c 0
 481 1216 595 1326 538 1379 c 0
EndSplineSet
EndChar
StartChar: Scircumflex
Encoding: 348 348 348
Width: 1182
Flags: W
LayerCount: 2
Fore
SplineSet
714 1650 m 0
 661 1612 580 1714 546 1769 c 0
 509 1830 452 1947 515 1980 c 0
 564 2006 614 1908 644 1861 c 0
 684 1798 774 1693 714 1650 c 0
544 1984 m 0
 610 1955 545 1819 515 1753 c 0
 481 1677 416 1551 351 1603 c 0
 298 1645 378 1759 408 1823 c 0
 441 1894 493 2006 544 1984 c 0
763 1303 m 0
 710 1268 665 1330 629 1320 c 0
 557 1301 480 1256 408 1198 c 0
 308 1119 230 1043 246 1002 c 0
 268 946 520 978 764 952 c 0
 1027 923 1128 750 1123 642 c 0
 1115 444 979 232 805 119 c 0
 693 47 517 35 391 60 c 0
 246 89 12 226 73 329 c 0
 125 417 290 269 390 251 c 0
 496 232 578 224 674 266 c 0
 762 304 826 364 875 446 c 0
 919 520 958 614 924 678 c 0
 866 789 720 781 589 785 c 0
 443 790 276 771 145 836 c 0
 66 874 34 926 36 994 c 0
 40 1098 134 1182 212 1252 c 0
 349 1376 569 1531 709 1487 c 0
 780 1464 825 1344 763 1303 c 0
EndSplineSet
EndChar
StartChar: scircumflex
Encoding: 349 349 349
Width: 654
Flags: W
LayerCount: 2
Fore
SplineSet
444 737 m 0
 425 683 305 725 262 694 c 0
 223 666 160 579 173 550 c 0
 189 514 317 527 390 533 c 0
 471 540 550 525 593 458 c 0
 651 369 652 300 610 202 c 0
 568 106 431 31 302 16 c 0
 203 5 -30 66 16 180 c 0
 49 260 208 174 282 179 c 0
 353 184 420 216 463 263 c 0
 505 310 485 373 439 382 c 0
 389 391 262 357 139 382 c 0
 70 396 13 446 13 517 c 0
 13 592 37 648 72 701 c 0
 125 780 208 842 303 847 c 0
 368 850 466 798 444 737 c 0
468 1023 m 0
 415 985 335 1087 301 1142 c 0
 264 1203 206 1320 269 1353 c 0
 318 1379 368 1281 398 1234 c 0
 438 1171 528 1066 468 1023 c 0
299 1357 m 0
 365 1328 300 1192 270 1126 c 0
 236 1050 171 924 106 976 c 0
 53 1018 132 1132 162 1196 c 0
 195 1267 248 1379 299 1357 c 0
EndSplineSet
EndChar
StartChar: Scedilla
Encoding: 350 350 350
Width: 1182
Flags: W
LayerCount: 2
Fore
SplineSet
521 73 m 4
 550 73 572 50 571 15 c 4
 570 -12 567 -35 578 -38 c 4
 606 -45 647 -73 666 -95 c 4
 694 -127 709 -182 683 -249 c 4
 665 -296 611 -343 549 -367 c 4
 497 -387 449 -384 436 -350 c 4
 419 -306 469 -291 511 -264 c 4
 542 -244 563 -224 563 -199 c 4
 563 -171 539 -157 508 -145 c 4
 476 -133 439 -124 440 -76 c 4
 441 -44 445 -12 455 17 c 4
 467 53 492 73 521 73 c 4
763 1303 m 0
 710 1268 665 1330 629 1320 c 0
 557 1301 480 1256 408 1198 c 0
 308 1119 230 1043 246 1002 c 0
 268 946 520 978 764 952 c 0
 1027 923 1128 750 1123 642 c 0
 1115 444 979 232 805 119 c 0
 693 47 517 35 391 60 c 0
 246 89 12 226 73 329 c 0
 125 417 290 269 390 251 c 0
 496 232 578 224 674 266 c 0
 762 304 826 364 875 446 c 0
 919 520 958 614 924 678 c 0
 866 789 720 781 589 785 c 0
 443 790 276 771 145 836 c 0
 66 874 34 926 36 994 c 0
 40 1098 134 1182 212 1252 c 0
 349 1376 569 1531 709 1487 c 0
 780 1464 825 1344 763 1303 c 0
EndSplineSet
EndChar
StartChar: scedilla
Encoding: 351 351 351
Width: 654
Flags: W
LayerCount: 2
Fore
SplineSet
444 737 m 0
 425 683 305 725 262 694 c 0
 223 666 160 579 173 550 c 0
 189 514 317 527 390 533 c 0
 471 540 550 525 593 458 c 0
 651 369 652 300 610 202 c 0
 568 106 431 31 302 16 c 0
 203 5 -30 66 16 180 c 0
 49 260 208 174 282 179 c 0
 353 184 420 216 463 263 c 0
 505 310 485 373 439 382 c 0
 389 391 262 357 139 382 c 0
 70 396 13 446 13 517 c 0
 13 592 37 648 72 701 c 0
 125 780 208 842 303 847 c 0
 368 850 466 798 444 737 c 0
295 44 m 0
 324 44 346 21 345 -14 c 0
 344 -41 341 -64 352 -67 c 0
 380 -74 421 -102 440 -124 c 0
 468 -156 483 -211 457 -278 c 0
 439 -325 385 -372 323 -396 c 0
 271 -416 223 -413 210 -379 c 0
 193 -335 243 -320 285 -293 c 0
 316 -273 337 -253 337 -228 c 0
 337 -200 313 -186 282 -174 c 0
 250 -162 213 -153 214 -105 c 0
 215 -73 219 -41 229 -12 c 0
 241 24 266 44 295 44 c 0
EndSplineSet
EndChar
StartChar: Scaron
Encoding: 352 352 352
Width: 1182
Flags: W
LayerCount: 2
Fore
SplineSet
337 1941 m 0
 390 1979 470 1877 504 1822 c 0
 541 1761 599 1644 536 1611 c 0
 487 1585 437 1682 407 1729 c 0
 367 1792 277 1898 337 1941 c 0
506 1607 m 0
 440 1636 506 1772 536 1838 c 0
 570 1914 634 2040 699 1988 c 0
 752 1946 673 1832 643 1768 c 0
 610 1697 557 1585 506 1607 c 0
763 1303 m 0
 710 1268 665 1330 629 1320 c 0
 557 1301 480 1256 408 1198 c 0
 308 1119 230 1043 246 1002 c 0
 268 946 520 978 764 952 c 0
 1027 923 1128 750 1123 642 c 0
 1115 444 979 232 805 119 c 0
 693 47 517 35 391 60 c 0
 246 89 12 226 73 329 c 0
 125 417 290 269 390 251 c 0
 496 232 578 224 674 266 c 0
 762 304 826 364 875 446 c 0
 919 520 958 614 924 678 c 0
 866 789 720 781 589 785 c 0
 443 790 276 771 145 836 c 0
 66 874 34 926 36 994 c 0
 40 1098 134 1182 212 1252 c 0
 349 1376 569 1531 709 1487 c 0
 780 1464 825 1344 763 1303 c 0
EndSplineSet
EndChar
StartChar: scaron
Encoding: 353 353 353
Width: 654
Flags: W
LayerCount: 2
Fore
SplineSet
444 737 m 0
 425 683 305 725 262 694 c 0
 223 666 160 579 173 550 c 0
 189 514 317 527 390 533 c 0
 471 540 550 525 593 458 c 0
 651 369 652 300 610 202 c 0
 568 106 431 31 302 16 c 0
 203 5 -30 66 16 180 c 0
 49 260 208 174 282 179 c 0
 353 184 420 216 463 263 c 0
 505 310 485 373 439 382 c 0
 389 391 262 357 139 382 c 0
 70 396 13 446 13 517 c 0
 13 592 37 648 72 701 c 0
 125 780 208 842 303 847 c 0
 368 850 466 798 444 737 c 0
85 1284 m 0
 138 1322 218 1220 252 1165 c 0
 289 1104 347 987 284 954 c 0
 235 928 185 1025 155 1072 c 0
 115 1135 25 1241 85 1284 c 0
254 950 m 0
 188 979 254 1115 284 1181 c 0
 318 1257 382 1383 447 1331 c 0
 500 1289 421 1175 391 1111 c 0
 358 1040 305 928 254 950 c 0
EndSplineSet
EndChar
StartChar: uni0162
Encoding: 354 354 354
Width: 1413
Flags: W
LayerCount: 2
Fore
SplineSet
640 208 m 4
 669 208 691 185 690 150 c 4
 689 123 686 100 697 97 c 4
 725 90 766 62 785 40 c 4
 813 8 828 -47 802 -114 c 4
 784 -161 730 -208 668 -232 c 4
 616 -252 568 -249 555 -215 c 4
 538 -171 588 -156 630 -129 c 4
 661 -109 682 -89 682 -64 c 4
 682 -36 658 -22 627 -10 c 4
 595 2 558 11 559 59 c 4
 560 91 564 123 574 152 c 4
 586 188 611 208 640 208 c 4
18 1351 m 0
 -18 1500 431 1548 703 1584 c 0
 1010 1625 1394 1675 1380 1542 c 0
 1372 1466 1034 1449 732 1405 c 0
 411 1358 42 1251 18 1351 c 0
695 1568 m 0
 813 1568 756 1098 748 839 c 0
 731 330 739 137 636 136 c 0
 516 135 552 409 568 837 c 0
 578 1114 586 1568 695 1568 c 0
EndSplineSet
EndChar
StartChar: uni0163
Encoding: 355 355 355
Width: 928
Flags: W
LayerCount: 2
Fore
SplineSet
510 77 m 4
 539 77 561 54 560 19 c 4
 559 -8 556 -31 567 -34 c 4
 595 -41 636 -69 655 -91 c 4
 683 -123 698 -178 672 -245 c 4
 654 -292 600 -339 538 -363 c 4
 486 -383 438 -380 425 -346 c 4
 408 -302 458 -287 500 -260 c 4
 531 -240 552 -220 552 -195 c 4
 552 -167 528 -153 497 -141 c 4
 465 -129 428 -120 429 -72 c 4
 430 -40 434 -8 444 21 c 4
 456 57 481 77 510 77 c 4
468 1594 m 0
 559 1583 490 1312 472 1173 c 0
 449 997 432 851 438 689 c 0
 443 545 455 379 490 276 c 0
 515 204 580 213 597 248 c 0
 623 300 624 389 685 374 c 0
 774 352 760 166 655 85 c 0
 600 43 537 25 481 40 c 0
 418 57 364 122 338 206 c 0
 303 320 286 470 281 616 c 0
 277 742 280 875 291 985 c 0
 313 1205 363 1607 468 1594 c 0
60 841 m 0
 -36 914 113 1083 207 1158 c 0
 328 1255 448 1297 589 1321 c 0
 698 1340 880 1355 890 1275 c 0
 902 1183 728 1208 617 1181 c 0
 505 1154 390 1089 292 1016 c 0
 215 958 137 783 60 841 c 0
EndSplineSet
EndChar
StartChar: Tcaron
Encoding: 356 356 356
Width: 1413
Flags: W
LayerCount: 2
Fore
SplineSet
498 2072 m 4
 551 2110 631 2008 665 1953 c 4
 702 1892 760 1775 697 1742 c 4
 648 1716 598 1813 568 1860 c 4
 528 1923 438 2029 498 2072 c 4
667 1738 m 4
 601 1767 667 1903 697 1969 c 4
 731 2045 795 2171 860 2119 c 4
 913 2077 834 1963 804 1899 c 4
 771 1828 718 1716 667 1738 c 4
18 1351 m 0
 -18 1500 431 1548 703 1584 c 0
 1010 1625 1394 1675 1380 1542 c 0
 1372 1466 1034 1449 732 1405 c 0
 411 1358 42 1251 18 1351 c 0
695 1568 m 0
 813 1568 756 1098 748 839 c 0
 731 330 739 137 636 136 c 0
 516 135 552 409 568 837 c 0
 578 1114 586 1568 695 1568 c 0
EndSplineSet
EndChar
StartChar: tcaron
Encoding: 357 357 357
Width: 928
Flags: W
LayerCount: 2
Fore
SplineSet
877 1904 m 4
 808 1968 723 1841 670 1762 c 4
 608 1669 527 1528 599 1488 c 4
 660 1454 712 1574 763 1653 c 4
 820 1741 934 1851 877 1904 c 4
468 1594 m 0
 559 1583 490 1312 472 1173 c 0
 449 997 432 851 438 689 c 0
 443 545 455 379 490 276 c 0
 515 204 580 213 597 248 c 0
 623 300 624 389 685 374 c 0
 774 352 760 166 655 85 c 0
 600 43 537 25 481 40 c 0
 418 57 364 122 338 206 c 0
 303 320 286 470 281 616 c 0
 277 742 280 875 291 985 c 0
 313 1205 363 1607 468 1594 c 0
60 841 m 0
 -36 914 113 1083 207 1158 c 0
 328 1255 448 1297 589 1321 c 0
 698 1340 880 1355 890 1275 c 0
 902 1183 728 1208 617 1181 c 0
 505 1154 390 1089 292 1016 c 0
 215 958 137 783 60 841 c 0
EndSplineSet
EndChar
StartChar: Tbar
Encoding: 358 358 358
Width: 1413
Flags: W
LayerCount: 2
Fore
SplineSet
647 907 m 4
 763 935 970 951 963 841 c 4
 958 760 821 787 667 755 c 4
 570 735 408 685 385 755 c 4
 353 849 550 884 647 907 c 4
18 1351 m 0
 -18 1500 431 1548 703 1584 c 0
 1010 1625 1394 1675 1380 1542 c 0
 1372 1466 1034 1449 732 1405 c 0
 411 1358 42 1251 18 1351 c 0
695 1568 m 0
 813 1568 756 1098 748 839 c 0
 731 330 739 137 636 136 c 0
 516 135 552 409 568 837 c 0
 578 1114 586 1568 695 1568 c 0
EndSplineSet
EndChar
StartChar: tbar
Encoding: 359 359 359
Width: 928
Flags: W
LayerCount: 2
Fore
SplineSet
386 818 m 0
 501 849 709 862 702 752 c 0
 697 671 557 711 406 666 c 0
 278 628 150 492 102 547 c 0
 37 622 234 777 386 818 c 0
468 1594 m 0
 559 1583 490 1312 472 1173 c 0
 449 997 432 851 438 689 c 0
 443 545 455 379 490 276 c 0
 515 204 580 213 597 248 c 0
 623 300 624 389 685 374 c 0
 774 352 760 166 655 85 c 0
 600 43 537 25 481 40 c 0
 418 57 364 122 338 206 c 0
 303 320 286 470 281 616 c 0
 277 742 280 875 291 985 c 0
 313 1205 363 1607 468 1594 c 0
60 841 m 0
 -36 914 113 1083 207 1158 c 0
 328 1255 448 1297 589 1321 c 0
 698 1340 880 1355 890 1275 c 0
 902 1183 728 1208 617 1181 c 0
 505 1154 390 1089 292 1016 c 0
 215 958 137 783 60 841 c 0
EndSplineSet
EndChar
StartChar: Utilde
Encoding: 360 360 360
Width: 1398
Flags: W
LayerCount: 2
Fore
SplineSet
270 1527 m 4
 341 1454 387 1632 481 1645 c 4
 563 1656 599 1587 696 1600 c 4
 788 1612 949 1771 874 1837 c 4
 816 1888 734 1756 673 1755 c 4
 593 1753 560 1824 448 1796 c 4
 323 1765 209 1590 270 1527 c 4
150 1467 m 0
 251 1469 175 1068 176 833 c 0
 177 664 222 254 385 237 c 0
 511 224 659 451 725 593 c 0
 798 750 842 866 872 1033 c 0
 908 1233 902 1487 1014 1472 c 0
 1117 1459 1084 1128 977 765 c 0
 926 592 865 464 797 346 c 0
 663 113 512 14 308 58 c 0
 50 114 2 567 -2 796 c 0
 -6 1035 16 1464 150 1467 c 0
1010 1470 m 0
 1104 1460 1055 1224 1063 1068 c 0
 1074 854 1083 718 1151 513 c 0
 1197 375 1381 214 1300 116 c 0
 1226 26 1065 240 1012 373 c 0
 923 597 903 805 901 1046 c 0
 900 1224 895 1482 1010 1470 c 0
EndSplineSet
EndChar
StartChar: utilde
Encoding: 361 361 361
Width: 672
Flags: W
LayerCount: 2
Fore
SplineSet
37 943 m 0
 108 870 154 1048 248 1061 c 0
 330 1072 366 1003 463 1016 c 0
 555 1028 716 1187 641 1253 c 0
 583 1304 501 1172 440 1171 c 0
 360 1169 327 1240 215 1212 c 0
 90 1181 -24 1006 37 943 c 0
128 674 m 0
 186 674 188 571 176 512 c 0
 157 419 146 214 173 211 c 0
 209 207 293 362 338 452 c 0
 384 545 426 758 510 738 c 0
 597 718 526 574 500 489 c 0
 463 368 413 251 344 157 c 0
 288 80 219 -9 127 21 c 0
 13 58 4 232 14 350 c 0
 24 468 34 674 128 674 c 0
488 734 m 0
 584 737 547 558 555 462 c 0
 561 392 571 342 596 287 c 0
 629 215 697 89 620 54 c 0
 556 25 499 104 469 172 c 0
 431 259 413 359 408 452 c 0
 403 550 390 731 488 734 c 0
EndSplineSet
EndChar
StartChar: Umacron
Encoding: 362 362 362
Width: 1398
Flags: W
LayerCount: 2
Fore
SplineSet
514 1781 m 0
 630 1809 837 1825 830 1715 c 0
 825 1634 688 1661 534 1629 c 0
 437 1609 275 1559 252 1629 c 0
 220 1723 417 1758 514 1781 c 0
150 1467 m 0
 251 1469 175 1068 176 833 c 0
 177 664 222 254 385 237 c 0
 511 224 659 451 725 593 c 0
 798 750 842 866 872 1033 c 0
 908 1233 902 1487 1014 1472 c 0
 1117 1459 1084 1128 977 765 c 0
 926 592 865 464 797 346 c 0
 663 113 512 14 308 58 c 0
 50 114 2 567 -2 796 c 0
 -6 1035 16 1464 150 1467 c 0
1010 1470 m 0
 1104 1460 1055 1224 1063 1068 c 0
 1074 854 1083 718 1151 513 c 0
 1197 375 1381 214 1300 116 c 0
 1226 26 1065 240 1012 373 c 0
 923 597 903 805 901 1046 c 0
 900 1224 895 1482 1010 1470 c 0
EndSplineSet
EndChar
StartChar: umacron
Encoding: 363 363 363
Width: 672
Flags: W
LayerCount: 2
Fore
SplineSet
314 1165 m 0
 430 1193 637 1209 630 1099 c 0
 625 1018 488 1045 334 1013 c 0
 237 993 75 943 52 1013 c 0
 20 1107 217 1142 314 1165 c 0
128 674 m 0
 186 674 188 571 176 512 c 0
 157 419 146 214 173 211 c 0
 209 207 293 362 338 452 c 0
 384 545 426 758 510 738 c 0
 597 718 526 574 500 489 c 0
 463 368 413 251 344 157 c 0
 288 80 219 -9 127 21 c 0
 13 58 4 232 14 350 c 0
 24 468 34 674 128 674 c 0
488 734 m 0
 584 737 547 558 555 462 c 0
 561 392 571 342 596 287 c 0
 629 215 697 89 620 54 c 0
 556 25 499 104 469 172 c 0
 431 259 413 359 408 452 c 0
 403 550 390 731 488 734 c 0
EndSplineSet
EndChar
StartChar: Ubreve
Encoding: 364 364 364
Width: 1398
Flags: W
LayerCount: 2
Fore
SplineSet
372 1920 m 0
 446 1920 436 1841 453 1793 c 0
 474 1735 507 1714 550 1720 c 0
 596 1727 633 1768 661 1814 c 0
 691 1863 730 1971 787 1947 c 0
 866 1914 803 1764 745 1688 c 0
 700 1629 634 1575 546 1569 c 0
 458 1563 388 1607 345 1671 c 0
 294 1747 281 1920 372 1920 c 0
606 1767 m 0
 627 1812 680 1879 736 1850 c 1024
150 1467 m 0
 251 1469 175 1068 176 833 c 0
 177 664 222 254 385 237 c 0
 511 224 659 451 725 593 c 0
 798 750 842 866 872 1033 c 0
 908 1233 902 1487 1014 1472 c 0
 1117 1459 1084 1128 977 765 c 0
 926 592 865 464 797 346 c 0
 663 113 512 14 308 58 c 0
 50 114 2 567 -2 796 c 0
 -6 1035 16 1464 150 1467 c 0
1010 1470 m 0
 1104 1460 1055 1224 1063 1068 c 0
 1074 854 1083 718 1151 513 c 0
 1197 375 1381 214 1300 116 c 0
 1226 26 1065 240 1012 373 c 0
 923 597 903 805 901 1046 c 0
 900 1224 895 1482 1010 1470 c 0
EndSplineSet
EndChar
StartChar: ubreve
Encoding: 365 365 365
Width: 672
Flags: W
LayerCount: 2
Fore
SplineSet
160 1288 m 0
 234 1288 224 1209 241 1161 c 0
 262 1103 295 1082 338 1088 c 0
 384 1095 421 1136 449 1182 c 0
 479 1231 518 1339 575 1315 c 0
 654 1282 591 1132 533 1056 c 0
 488 997 422 943 334 937 c 0
 246 931 176 975 133 1039 c 0
 82 1115 69 1288 160 1288 c 0
128 674 m 0
 186 674 188 571 176 512 c 0
 157 419 146 214 173 211 c 0
 209 207 293 362 338 452 c 0
 384 545 426 758 510 738 c 0
 597 718 526 574 500 489 c 0
 463 368 413 251 344 157 c 0
 288 80 219 -9 127 21 c 0
 13 58 4 232 14 350 c 0
 24 468 34 674 128 674 c 0
488 734 m 0
 584 737 547 558 555 462 c 0
 561 392 571 342 596 287 c 0
 629 215 697 89 620 54 c 0
 556 25 499 104 469 172 c 0
 431 259 413 359 408 452 c 0
 403 550 390 731 488 734 c 0
EndSplineSet
EndChar
StartChar: Uring
Encoding: 366 366 366
Width: 1398
Flags: W
LayerCount: 2
Fore
SplineSet
470 1553 m 0
 364 1603 351 1720 392 1800 c 0
 443 1899 554 1953 638 1907 c 0
 730 1857 758 1756 708 1656 c 0
 660 1560 559 1511 470 1553 c 0
583 1797 m 0
 536 1816 497 1797 479 1759 c 0
 459 1717 475 1675 509 1661 c 0
 552 1643 590 1663 611 1698 c 0
 636 1740 618 1783 583 1797 c 0
606 1767 m 1024
150 1467 m 0
 251 1469 175 1068 176 833 c 0
 177 664 222 254 385 237 c 0
 511 224 659 451 725 593 c 0
 798 750 842 866 872 1033 c 0
 908 1233 902 1487 1014 1472 c 0
 1117 1459 1084 1128 977 765 c 0
 926 592 865 464 797 346 c 0
 663 113 512 14 308 58 c 0
 50 114 2 567 -2 796 c 0
 -6 1035 16 1464 150 1467 c 0
1010 1470 m 0
 1104 1460 1055 1224 1063 1068 c 0
 1074 854 1083 718 1151 513 c 0
 1197 375 1381 214 1300 116 c 0
 1226 26 1065 240 1012 373 c 0
 923 597 903 805 901 1046 c 0
 900 1224 895 1482 1010 1470 c 0
EndSplineSet
EndChar
StartChar: uring
Encoding: 367 367 367
Width: 672
Flags: W
LayerCount: 2
Fore
SplineSet
248 947 m 0
 142 997 129 1114 170 1194 c 0
 221 1293 332 1347 416 1301 c 0
 508 1251 536 1150 486 1050 c 0
 438 954 337 905 248 947 c 0
361 1191 m 0
 314 1210 275 1191 257 1153 c 0
 237 1111 253 1069 287 1055 c 0
 330 1037 368 1057 389 1092 c 0
 414 1134 396 1177 361 1191 c 0
516 1263 m 1024
128 674 m 0
 186 674 188 571 176 512 c 0
 157 419 146 214 173 211 c 0
 209 207 293 362 338 452 c 0
 384 545 426 758 510 738 c 0
 597 718 526 574 500 489 c 0
 463 368 413 251 344 157 c 0
 288 80 219 -9 127 21 c 0
 13 58 4 232 14 350 c 0
 24 468 34 674 128 674 c 0
488 734 m 0
 584 737 547 558 555 462 c 0
 561 392 571 342 596 287 c 0
 629 215 697 89 620 54 c 0
 556 25 499 104 469 172 c 0
 431 259 413 359 408 452 c 0
 403 550 390 731 488 734 c 0
EndSplineSet
EndChar
StartChar: Uhungarumlaut
Encoding: 368 368 368
Width: 1398
Flags: W
LayerCount: 2
Fore
SplineSet
926 2010 m 0
 857 2074 771 1947 718 1868 c 0
 656 1775 576 1634 648 1594 c 0
 709 1560 761 1680 812 1759 c 0
 869 1847 983 1957 926 2010 c 0
641 2006 m 0
 572 2070 487 1943 434 1864 c 0
 372 1771 291 1630 363 1590 c 0
 424 1556 476 1676 527 1755 c 0
 584 1843 698 1953 641 2006 c 0
150 1467 m 0
 251 1469 175 1068 176 833 c 0
 177 664 222 254 385 237 c 0
 511 224 659 451 725 593 c 0
 798 750 842 866 872 1033 c 0
 908 1233 902 1487 1014 1472 c 0
 1117 1459 1084 1128 977 765 c 0
 926 592 865 464 797 346 c 0
 663 113 512 14 308 58 c 0
 50 114 2 567 -2 796 c 0
 -6 1035 16 1464 150 1467 c 0
1010 1470 m 0
 1104 1460 1055 1224 1063 1068 c 0
 1074 854 1083 718 1151 513 c 0
 1197 375 1381 214 1300 116 c 0
 1226 26 1065 240 1012 373 c 0
 923 597 903 805 901 1046 c 0
 900 1224 895 1482 1010 1470 c 0
EndSplineSet
EndChar
StartChar: uhungarumlaut
Encoding: 369 369 369
Width: 672
Flags: W
LayerCount: 2
Fore
SplineSet
672 1407 m 4
 603 1471 517 1344 464 1265 c 4
 402 1172 322 1031 394 991 c 4
 455 957 507 1077 558 1156 c 4
 615 1244 729 1354 672 1407 c 4
387 1403 m 4
 318 1467 233 1340 180 1261 c 4
 118 1168 37 1027 109 987 c 4
 170 953 222 1073 273 1152 c 4
 330 1240 444 1350 387 1403 c 4
128 674 m 0
 186 674 188 571 176 512 c 0
 157 419 146 214 173 211 c 0
 209 207 293 362 338 452 c 0
 384 545 426 758 510 738 c 0
 597 718 526 574 500 489 c 0
 463 368 413 251 344 157 c 0
 288 80 219 -9 127 21 c 0
 13 58 4 232 14 350 c 0
 24 468 34 674 128 674 c 0
488 734 m 0
 584 737 547 558 555 462 c 0
 561 392 571 342 596 287 c 0
 629 215 697 89 620 54 c 0
 556 25 499 104 469 172 c 0
 431 259 413 359 408 452 c 0
 403 550 390 731 488 734 c 0
EndSplineSet
EndChar
